<svg xmlns="http://www.w3.org/2000/svg" width="504" height="504" viewBox="0 0 504 504"><g transform="matrix(1 0 0 -1 0 504)" font-size="12" stroke-miterlimit="10" font-family="Helvetica, Arial, FreeSans, Liberation Sans, Nimbus Sans L, sans-serif" stroke-linejoin="round" stroke-linecap="round" stroke-width=".75" stroke="#000" fill-opacity="0" fill="none"><defs><clipPath id="a"><path stroke="none" d="M41.37 30.43h352.64v468.09H41.37z"/></clipPath></defs><g stroke-linecap="butt" clip-path="url(#a)"><g stroke="#EBEBEB"><path d="M41.37 90.39h352.64M41.37 206.45h352.64M41.37 322.5h352.64M41.37 438.56h352.64M98.95 30.43v468.09M199.88 30.43v468.09M318.61 30.43v468.09" stroke-width=".53"/><path d="M41.37 32.36h352.64M41.37 148.42h352.64M41.37 264.48h352.64M41.37 380.53h352.64M41.37 496.59h352.64M57.4 30.43v468.09m83.11-468.09v468.09M259.24 30.43v468.09M377.98 30.43v468.09" stroke-width="1.07"/></g><g stroke-miterlimit="1" stroke-width="3.2"><path stroke="#F8766D" d="M57.4 152.33l1.18.15 1.19.12 1.19.11 1.19.12 1.18.15 1.19.08 1.19.08 1.19.08 1.18.07 1.19.12 1.19.19 1.19.16 1.18.23 1.19 1.66 1.19 1.67 1.18.42 1.19.2 1.19.15 1.19.19 1.18.2 1.19.15 1.19.12 1.19.12 1.18.07 1.19.04 1.19.08 1.19.04 1.18.04 1.19.03 1.19.04 1.18.04 1.19.04h1.19l1.19.04h1.18l1.19.04 1.19.04h1.19l1.18.04h2.38l1.19.03h2.37l1.19.04h2.37l1.19.04h1.19l1.18.04h3.57l1.18.04h3.57l1.18.04h2.38l1.18.04h3.57l1.18.03h4.75l1.19.04h5.94l1.18.04h5.94l1.19.04h7.12l1.19.04h4.75l1.19.04h5.93l1.19.04h4.75l1.19.04h4.75l1.18.03h5.94l1.19.04h4.75l1.18.04h3.57l1.18.04h3.57l1.18.04h4.75l1.19.04h5.94l1.18.04h1.19l1.19.04h2.37l1.19.03h1.19l1.19.04h2.37l1.19.04 1.18.08 1.19.04 1.19.04 1.19.11 1.18.12 1.19.23 1.19.12 1.19.31 1.18.11 1.19.16 1.19.11 1.19.04 1.18.16 1.19.03 1.19.2 1.18.08 1.19.03 1.19.08 1.19.08 1.18.08 1.19.11 1.19.04 1.19.08 1.18.08h1.19l1.19.19 1.19.08 1.18.07 1.19.2 1.19.11 1.18.2 1.19.04 1.19.07 1.19.08h1.18l1.19.04 1.19.35 1.19.93 1.18.3 1.19 1.05 1.19 1.16 1.19.19 1.18.24 1.19.61h1.19l1.18.08h1.19l1.19.16 1.19.04 1.18.34 1.19.04 1.19.04h1.19l1.18.04h2.38l1.19.08 1.18.04 1.19.03 1.19.04 1.18.2 1.19.15h3.56l1.19.04 1.19.04 1.19.04h1.18l1.19.04h1.19l1.19.07h1.18l1.19.04 1.19.04h3.56l1.19.12 1.18.04h1.19l1.19.07h1.19l1.18.04h1.19l1.19.12h3.56l1.19.07h1.18l1.19.04h4.75l1.19.04h8.31l1.19.08h11.87l1.19.08h3.56l1.19.04"/><path stroke="#D89000" d="M57.4 52.09h2.37l1.19.04h2.37l1.19.04h2.38l1.18.04h2.38l1.19.04h2.37l1.19.04h3.56l1.19.04h1.18l1.19.03h3.56l1.19.04h2.38l1.18.04h2.38l1.18.04h2.38l1.19.04h1.18l1.19.04h2.38l1.18.04h2.38l1.19.04h2.37l1.19.03h1.18l1.19.04h3.56l1.19.04h2.38l1.18.04h2.38l1.19.04h3.56l1.18.04h2.38l1.19.04h3.56l1.19.04h3.56l1.19.03h3.56l1.18.04h1.19l1.19.04h2.37l1.19.04h1.19l1.19.04h2.37l1.19.04h2.37l1.19.04h1.19l1.18.03h1.19l1.19.04h1.19l1.18.04h1.19l1.19.04 1.19.04 1.18.04 1.19.04 1.19.04 1.19.03 1.18.04h1.19l1.19.04h1.18l1.19.04h1.19l1.19.04 1.18.04h1.19l1.19.04 1.19.03 1.18.04h1.19l1.19.04h1.19l1.18.04h1.19l1.19.04 1.18.04 1.19.04h1.19l1.19.04h1.18l1.19.03h1.19l1.19.04h1.18l1.19.04h1.19l1.19.08 1.18.04h1.19l1.19.04h2.37l1.19.04h1.19l1.18.07 1.19.04 1.19.04 1.19.04 1.18.04 1.19.07 1.19.04h1.19l1.18.04 1.19.04 1.19.04 1.18.04 1.19.04 1.19.04h1.19l1.18.07 1.19.12 1.19.08 1.19.03 1.18.16 1.19.08 1.19.19 1.19.04 1.18.15 1.19.04 1.19.04 1.18.04h1.19l1.19.08h1.19l1.18.04 1.19.03h1.19l1.19.04 1.18.12 1.19.04 1.19.08h1.19l1.18.03 1.19.04 1.19.04 1.18.08h1.19l1.19.04 1.19.07 1.18.08 1.19.08 1.19.31 1.19.04 1.18.19h1.19l1.19.27 1.19 8.98 1.18 6.46 1.19 3.17 1.19 3.37 1.18 1.7 1.19.46 1.19 1.94 1.19 12.65h1.18l1.19.03 1.19.28 1.19.15 1.18.08 1.19.19 1.19.04 1.19.04 1.18.04 1.19.11 1.19.16 1.18.04 1.19.04 1.19.03 1.19.12h1.18l1.19.04 1.19.04h2.37l1.19.15 1.19.08 1.19.12h1.18l1.19.07 1.19.12h1.18l1.19.04h2.38l1.18.04h1.19l1.19.03h1.19l1.18.04h1.19l1.19.04h1.19l1.18.04h3.56l1.19.08h4.75l1.19.08h4.75l1.19.15h7.12l1.19.08h7.12l1.19.08h4.75"/><path stroke="#A3A500" d="M57.4 82l1.18.04h1.19l1.19.04 1.19.03 1.18.04 1.19.04h1.19l1.19.04 1.18.04 1.19.04 1.19.04 1.19.03 1.18.04 1.19.04 1.19.04 1.18.08 1.19.04 1.19.04 1.19.07 1.18.08 1.19.12 1.19.11 1.19.12 1.18.19 1.19.2 1.19.23 1.19.23 1.18.27 1.19.19 1.19.47 1.18 1.78 1.19 6.61 1.19.78 1.19.27 1.18.27 1.19.23 1.19.19 1.19.35 1.18.39 1.19 1.62 1.19 4.65 1.19 1.08 1.18.35 1.19.27 1.19.27 1.18.15 1.19.12 1.19.12 1.19.15 1.18.12 1.19.11 1.19.12 1.19.11 1.18.12 1.19.15 1.19.24 1.19.23 1.18.42 1.19.74 1.19 1.2 1.18 1.04 1.19.89 1.19 1.09 1.19.89 1.18.69 1.19.31 1.19.23 1.19.16 1.18.11 1.19.08 1.19.12 1.19.08 1.18.07 1.19.08 1.19.08 1.18.08 1.19.07 1.19.04 1.19.12 1.18.07 1.19.04 1.19.16 1.19.08 1.18.11 1.19.08 1.19.11 1.19.08 1.18.16 1.19.11 1.19.08 1.18.12 1.19.11 1.19.23 1.19.08 1.18.31 1.19.23 1.19.89 1.19.62 1.18.78 1.19.92 1.19.35 1.19.16 1.18.19 1.19.27 1.19.47 1.18.58 1.19.54 1.19.23 1.19.15 1.18.08 1.19.08 1.19.12 1.19.03 1.18.04 1.19.12h1.19l1.19.08 1.18.03h1.19l1.19.08 1.18.04 1.19.04 1.19.04 1.19.04 1.18.04H207l1.19.03 1.19.04 1.18.04h1.19l1.19.04h2.37l1.19.04 1.19.04h1.18l1.19.04 1.19.04h2.37l1.19.03H226l1.19.04h1.18l1.19.04 1.19.04h1.19l1.18.04h1.19l1.19.04h1.18l1.19.04h2.38l1.18.03h2.38l1.19.04 1.18.04h3.57l1.18.04h2.38l1.18.04h2.38l1.19.04h2.37l1.19.04h3.56l1.19.04h1.19l1.18.03 1.19.04h1.19l1.18.04h2.38l1.19.04h1.18l1.19.04h4.75l1.19.04h2.37l1.19.04 1.19.03h2.37l1.19.04h1.19l1.18.04 1.19.04 1.19.08h2.37l1.19.04h2.38l1.18.04h3.56l1.19.03h3.56l1.19.04 1.19.04 1.19.08h2.37l1.19.04h2.37l1.19.04 1.19.04h1.18l1.19.03h1.19l1.19.04 1.18.08h1.19l1.19.39h1.19l1.18 2.63h1.19l1.19 4.06h1.19l1.18.58h1.19l1.19.93h1.18l1.19.81h2.38l1.18.16h1.19l1.19 1.54h2.37l1.19.54h4.75l1.19.82h3.56l1.19.23h2.37l1.19.11h3.56l1.19.39h3.56l1.19 2.55"/><path stroke="#39B600" d="M57.4 159.64l1.18.39 1.19.5 1.19.58 1.19.54 1.18.54 1.19.39 1.19.58 1.19.5 1.18 1.12 1.19 1.59 1.19 1.51 1.19 1.16 1.18 1.2 1.19 1.08 1.19.78 1.18.89 1.19.58 1.19.5 1.19.39 1.18.5 1.19.5 1.19.54 1.19.43 1.18.46 1.19.47 1.19.5 1.19.42 1.18.55 1.19.58 1.19.38 1.18.39 1.19.39 1.19.31 1.19.31 1.18.27 1.19.19 1.19.23 1.19.2 1.18.19 1.19.19 1.19.2 1.19.15 1.18.16 1.19.19 1.19.23 1.18.16 1.19.15 1.19.12 1.19.15 1.18.16 1.19.19 1.19.12 1.19.15 1.18.12 1.19.15 1.19.16 1.19.19 1.18.19 1.19.16 1.19.19 1.18.19 1.19.24 1.19.19 1.19.19 1.18.2 1.19.15 1.19.31 1.19.23 1.18.24 1.19.3 1.19.24 1.19.35 1.18.19 1.19.27 1.19.54 1.18.43 1.19.31 1.19.34 1.19.55 1.18.42 1.19.39 1.19.39 1.19.23 1.18.27 1.19.31 1.19.38 1.19.35 1.18.31 1.19.27 1.19.2 1.18.23 1.19.19 1.19.16 1.19.19 1.18.23 1.19.23 1.19.2 1.19.23 1.18.19 1.19.12 1.19.23 1.19.08 1.18.19 1.19.08 1.19.27 1.18.15 1.19.31 1.19.24 1.19.19 1.18.27 1.19.12 1.19.23 1.19.19 1.18.23 1.19.12 1.19.16 1.19.11 1.18.19 1.19.12 1.19.19 1.18.39 1.19.08 1.19.19 1.19.12 1.18.15 1.19.16 1.19.11 1.19.08 1.18.19 1.19.16 1.19.08 1.19.15 1.18.04 1.19.31 1.19.23 1.18.12 1.19.23 1.19.15 1.19.08 1.18.08 1.19.19 1.19.27 1.19.12 1.18.31 1.19.23 1.19.12 1.19.07 1.18.28 1.19.07 1.19.16 1.18.04 1.19.19 1.19.08 1.19.19 1.18.04 1.19.08 1.19.07 1.19.08 1.18.04 1.19.12h1.19l1.19.03 1.18.04 1.19.04 1.19.04 1.18.04 1.19.04 1.19.08 1.19.07h1.18l1.19.16 1.19.23 1.19.04 1.18.11 1.19.12 1.19.04 1.19.11 1.18.04 1.19.2 1.19.04 1.18.03 1.19.12 1.19.04 1.19.12h1.18l1.19.03 1.19.12 1.19.04 1.18.08 1.19.11 1.19.08 1.19.08h1.18l1.19.11 1.19.04h1.18l1.19.12 1.19.04 1.19.15h1.18l1.19.04h1.19l1.19.08 1.18.07 1.19.04 1.19.04h1.19l1.18.08 1.19.08 1.19.04 1.18.03h2.38l1.19.16h1.18l1.19.08h1.19l1.19.07h1.18l1.19.12 1.19.12 1.19.03h1.18l1.19.08h2.37l1.19.66h1.19l1.19.04 1.18.08h1.19l1.19.11h3.56l1.19.04h1.19l1.18.08h1.19l1.19.07h4.75l1.18.35h1.19l1.19.08h2.37l1.19.54h1.19l1.19.23h2.37l1.19.89h3.56l1.19 4.65h2.37l1.19.03h3.56l1.19 4.88h3.56l1.19.5"/><path stroke="#00BF7D" d="M57.4 203.74l1.18.81 1.19 1.01 1.19 1.2 1.19 1.2 1.18 1.31 1.19.93 1.19 1.04 1.19.82 1.18.69 1.19.82 1.19.73 1.19.7 1.18.81 1.19 1.04 1.19.86 1.18.73 1.19.89 1.19.66 1.19.62 1.18.46 1.19.46 1.19.43 1.19.39 1.18.46 1.19.7 1.19.5 1.19.5 1.18.58 1.19.78 1.19.58 1.18.46 1.19.35 1.19.54 1.19.58 1.18.31 1.19.43 1.19.42 1.19.66 1.18.54 1.19.5 1.19.51 1.19.38 1.18.55 1.19.38 1.19.62 1.18.54 1.19.35 1.19.39 1.19.31 1.18.35 1.19.31 1.19.38 1.19.23 1.18.35 1.19.39 1.19.27 1.19.27 1.18.35 1.19.35 1.19.19 1.18.23 1.19.24 1.19.15 1.19.19 1.18.2 1.19.11 1.19.16 1.19.23 1.18.15 1.19.16 1.19.12 1.19.11 1.18.19 1.19.12 1.19.16 1.18.11 1.19.16 1.19.07 1.19.12 1.18.19 1.19.08 1.19.12 1.19.15 1.18.19 1.19.16 1.19.12 1.19.19 1.18.08 1.19.15 1.19.16 1.18.15 1.19.19 1.19.08 1.19.08 1.18.08 1.19.11 1.19.04 1.19.08 1.18.11 1.19.08 1.19.12 1.19.11 1.18.08 1.19.08 1.19.08 1.18.07 1.19.08 1.19.12 1.19.04 1.18.07 1.19.12 1.19.04 1.19.04 1.18.07 1.19.04 1.19.08 1.19.08 1.18.11h1.19l1.19.08 1.18.08 1.19.04 1.19.07 1.19.12h1.18l1.19.04 1.19.08 1.19.07 1.18.08 1.19.12 1.19.04 1.19.03 1.18.12 1.19.04 1.19.08 1.18.04h1.19l1.19.07 1.19.04 1.18.08 1.19.08 1.19.03 1.19.04 1.18.04h1.19l1.19.08 1.19.08 1.18.04 1.19.03 1.19.08h1.18l1.19.12 1.19.11 1.19.04 1.18.16 1.19.04 1.19.03 1.19.12 1.18.04h1.19l1.19.04h2.37l1.19.11 1.19.04 1.18.04 1.19.04 1.19.08 1.19.07 1.18.04 1.19.08h1.19l1.19.08h1.18l1.19.04 1.19.07 1.19.08 1.18.04 1.19.04 1.19.08 1.18.03 1.19.04 1.19.04h2.37l1.19.04 1.19.04 1.19.04 1.18.04h1.19l1.19.07 1.19.04h3.56l1.18.08 1.19.04 1.19.08h2.37l1.19.04 1.19.07 1.19.04 1.18.04h1.19l1.19.04 1.19.11 1.18.04 1.19.08h1.19l1.18.04 1.19.04 1.19.11 1.19.12h1.18l1.19.04 1.19.04 1.19.07h1.18l1.19.08 1.19.08 1.19.46h1.18l1.19.2 1.19.04h1.18l1.19.03h1.19l1.19.43 1.18.58h1.19l1.19.46h3.56l1.19.2h1.19l1.18.31h1.19l1.19.73h1.18l1.19 1.78h2.38l1.18.39h1.19l1.19 1h2.37l1.19 1.28h1.19l1.19.16h2.37l1.19 1.85h3.56l1.19 1.47h2.37l1.19 1.32h3.56l1.19.62h4.75"/><path stroke="#00BFC4" d="M57.4 99.68l1.18 1.16 1.19.54 1.19.39 1.19.42 1.18.39 1.19.42 1.19.58 1.19.74 1.18.85 1.19.89 1.19.77 1.19.7 1.18.43 1.19.3 1.19.35 1.18.35 1.19.27 1.19.39 1.19.46 1.18.66 1.19.74 1.19.61 1.19.51 1.18.58 1.19.62 1.19.38 1.19.35 1.18.27 1.19.23 1.19.31 1.18.28 1.19.3 1.19.24 1.19.27 1.18.31 1.19.23 1.19.5 1.19.47 1.18.5 1.19.42 1.19.24 1.19.34 1.18.43 1.19.43 1.19.27 1.18.23 1.19.19 1.19.2 1.19.15 1.18.19 1.19.16 1.19.15 1.19.16 1.18.19 1.19.16 1.19.15 1.19.19 1.18.16 1.19.12 1.19.34 1.18.27 1.19.24 1.19.23 1.19.35 1.18.27 1.19.23 1.19.23 1.19.16 1.18.11 1.19.2 1.19.27 1.19.27 1.18.19 1.19.23 1.19.2 1.18.15 1.19.12 1.19.11 1.19.2 1.18.15 1.19.08 1.19.11 1.19.12 1.18.12 1.19.07 1.19.08 1.19.12 1.18.04 1.19.07 1.19.08 1.18.12 1.19.11 1.19.08 1.19.16 1.18.07 1.19.08 1.19.12 1.19.15 1.18.12 1.19.15 1.19.2 1.19.07 1.18.16 1.19.07 1.19.16 1.18.19 1.19.16 1.19.23 1.19.23 1.18.23 1.19.2 1.19.19 1.19.23 1.18.27 1.19.31 1.19.12 1.19.39 1.18.23 1.19.08 1.19.23 1.18.27 1.19.23 1.19.19 1.19.27 1.18.08 1.19.12 1.19.11 1.19.08 1.18.16 1.19.27 1.19.23 1.19.23 1.18.31 1.19.27 1.19.12 1.18.15 1.19.12 1.19.15 1.19.12 1.18 1.01 1.19.42 1.19.46 1.19.39 1.18.47 1.19.19 1.19.23 1.19.16 1.18.19 1.19.27 1.19.16 1.18.15 1.19.62 1.19.27 1.19.12 1.18.69 1.19.47 1.19 1.81 1.19.08 1.18.7 1.19.66 1.19.38 1.19.27 1.18.39 1.19.46h1.19l1.18.28 1.19.77 1.19 1.43 1.19.39 1.18.15 1.19.89 1.19.12 1.19.15 1.18.66 1.19.39 1.19.46 1.19.27 1.18.31 1.19.31 1.19.23 1.18.43 1.19.46 1.19.16 1.19 1.31 1.18.39 1.19.04 1.19.39 1.19.11 1.18.58 1.19.08 1.19.23 1.19.23 1.18.31 1.19.27 1.19.16 1.18.19 1.19.08h1.19l1.19.04h2.37l1.19.04 1.19.23 1.18.08 1.19.15 1.19.04 1.19.08h1.18l1.19.23 1.19.27h1.18l1.19.08 1.19.04 1.19.03h1.18l1.19.24 1.19.11h2.37l1.19.08 1.19.27 1.19.12h1.18l1.19.11 1.19.16h1.18l1.19.38h1.19l1.19.47 1.18.62h1.19l1.19.31h1.19l1.18.07h1.19l1.19.43h1.19l1.18.43h1.19l1.19.54h1.18l1.19.19h2.38l1.18.46h1.19l1.19.04h2.37l1.19.04h1.19l1.19 3.21h2.37l1.19.24h3.56l1.19 2.86h2.37l1.19.38h3.56l1.19.2h3.56l1.19.35"/><path stroke="#00B0F6" d="M58.58 137.86l1.19.35 1.19.27 1.19.23 1.18.27 1.19.39 1.19.35 1.19.23 1.18.23 1.19.27 1.19.23 1.19.16 1.18.11 1.19.16 1.19.19 1.18.16 1.19.23 1.19.31 1.19.35 1.18.23 1.19.19 1.19.12 1.19.11 1.18.08 1.19.08 1.19.08 1.19.07 1.18.08 1.19.08 1.19.04 1.18.04 1.19.03 1.19.04 1.19.08 1.18.04 1.19.08 1.19.04 1.19.03 1.18.04 1.19.04 1.19.04 1.19.08 1.18.04 1.19.03 1.19.04 1.18.04h1.19l1.19.08 1.19.04h1.18l1.19.04 1.19.04 1.19.03 1.18.04 1.19.04 1.19.04 1.19.04h1.18l1.19.04 1.19.04 1.18.03 1.19.04h1.19l1.19.04h1.18l1.19.04 1.19.04h1.19l1.18.04 1.19.04h1.19l1.19.04 1.18.03 1.19.04 1.19.04h1.18l1.19.04 1.19.04h1.19l1.18.04h1.19l1.19.04h1.19l1.18.04h1.19l1.19.03 1.19.04h1.18l1.19.04h1.19l1.18.04h1.19l1.19.04h1.19l1.18.04h1.19l1.19.04h1.19l1.18.03 1.19.04 1.19.04h1.19l1.18.04h1.19l1.19.04h2.37l1.19.04 1.19.04H188l1.19.04h1.19l1.19.03h1.18l1.19.04h1.19l1.19.04 1.18.04h2.38l1.18.04h1.19l1.19.04 1.19.04h1.18l1.19.04h2.38l1.18.03h1.19l1.19.04h1.19l1.18.04h1.19l1.19.04h1.18l1.19.04h1.19l1.19.04H226l1.19.04h1.18l1.19.03 1.19.04h1.19l1.18.04h2.38l1.18.04 1.19.04h2.38l1.18.04h2.38l1.19.04h1.18l1.19.04h2.38l1.18.03 1.19.04h3.56l1.19.04 1.19.04h2.37l1.19.04 1.19.04h1.18l1.19.04 1.19.03h1.19l1.18.04h1.19l1.19.04h2.37l1.19.04h2.37l1.19.04h2.38l1.18.04h2.38l1.19.04h5.93l1.19.04h2.37l1.19.03h1.19l1.19.04h3.56l1.19.04h1.18l1.19.04 1.19.04h1.18l1.19.04h1.19l1.19.04h1.18l1.19.04 1.19.03 1.19.12h1.18l1.19.19h1.19l1.19.04h1.18l1.19.04 1.19.04h1.18l1.19.27h2.38l1.18.08h3.57l1.18.11h1.19l1.19.08h3.56l1.19.16h1.18l1.19.03h2.38l1.18.12h1.19l1.19.35h2.37l1.19.11h4.75l1.19.04h7.12l1.19.08h3.56l1.19.12h3.56l1.19.04"/><path stroke="#9590FF" d="M57.4 107.99l1.18.2 1.19.19 1.19.23 1.19.16 1.18.15 1.19.23 1.19.2 1.19.15 1.18.16 1.19.19 1.19.16 1.19.11 1.18.2 1.19.15 1.19.12 1.18.11 1.19.08 1.19.08 1.19.04 1.18.03 1.19.08 1.19.04 1.19.04 1.18.04h1.19l1.19.04 1.19.03 1.18.04h1.19l1.19.04h1.18l1.19.04h1.19l1.19.04h1.18l1.19.04h1.19l1.19.04h1.18l1.19.04h1.19l1.19.03h1.18l1.19.04h1.19l1.18.04h1.19l1.19.04h1.19l1.18.04h2.38l1.19.04h1.18l1.19.04h2.38l1.18.04h2.38l1.18.03h2.38l1.19.04h2.37l1.19.04h3.56l1.19.04h2.37l1.19.04h3.56l1.19.04h2.37l1.19.04h2.38l1.18.03h2.38l1.19.04h2.37l1.19.04h2.37l1.19.04h2.37l1.19.04h2.38l1.18.04h2.38l1.19.04h2.37l1.19.04h3.56l1.19.03h2.37l1.19.04h2.37l1.19.04h2.38l1.18.04h2.38l1.18.04h1.19l1.19.04H207l1.19.04h3.56l1.19.04h1.19l1.18.03h2.38l1.18.04h4.75l1.19.04h2.38l1.18.04h2.38l1.19.04h1.18l1.19.04h2.37l1.19.04h1.19l1.19.03h1.18l1.19.04H245l1.18.04 1.19.04 1.19.04h2.37l1.19.04 1.19.04 1.18.04h2.38l1.19.03h1.18l1.19.04 1.19.04h1.19l1.18.08 1.19.04 1.19.04 1.19.03 1.18.08h1.19l1.19.04h1.18l1.19.04 1.19.04 1.19.08h1.18l1.19.07h1.19l1.19.04 1.18.04 1.19.04h1.19l1.19.15h2.37l1.19.04h1.18l1.19.12 1.19.04 1.19.04h1.18l1.19.19 1.19.12 1.19.03 1.18.27 1.19.28 1.19.03 1.19.12 1.18.27 1.19.19h1.19l1.18.04 1.19.04 1.19.12 1.19.08h1.18l1.19.07h4.75l1.19.12 1.19.04h1.18l1.19.04h4.75l1.19.03 1.18.04h8.32l1.18.08h3.56l1.19.08h2.38l1.18.04h1.19l1.19.07h4.75l1.19.08h2.37l1.19.23h3.56l1.19.04h2.37l1.19.04h3.56l1.19.16h3.56l1.19.58"/><path stroke="#E76BF3" d="M57.4 129.43l1.18 4.48 1.19 2.83 1.19 5.37 1.19 11.34 1.18 5.07 1.19 2.78 1.19 1.59 1.19 2.05 1.18 1.31 1.19 1.36 1.19 1.85 1.19 1.36 1.18 1.82 1.19.85 1.19.54 1.18.46 1.19.43 1.19.46 1.19.35 1.18.43 1.19.46 1.19.47 1.19.54 1.18.62 1.19.65 1.19.78 1.19.66 1.18.5 1.19.31 1.19.31 1.18.23 1.19.23 1.19.23 1.19.24 1.18.15 1.19.19 1.19.16 1.19.15 1.18.16 1.19.11 1.19.12 1.19.15 1.18.16 1.19.15 1.19.12 1.18.12 1.19.15 1.19.12 1.19.11 1.18.12 1.19.15 1.19.24 1.19.11 1.18.27 1.19.31 1.19.31 1.19.43 1.18.62 1.19.89 1.19 1 1.18 1.32 1.19 1.16 1.19.42 1.19.47 1.18.46 1.19.35 1.19.39 1.19.27 1.18.19 1.19.43 1.19.34 1.19.35 1.18.39 1.19.35 1.19.54 1.18.77 1.19.82 1.19.65 1.19.66 1.18 1.01 1.19.58 1.19.77 1.19.54 1.18.47 1.19.58 1.19.5 1.19 1.08 1.18.54 1.19.66 1.19.93 1.18.43 1.19.73 1.19 1.2 1.19 1.08 1.18.7 1.19.85 1.19.81 1.19.55 1.18.3 1.19.51 1.19.77 1.19.62 1.18 1.01 1.19.73 1.19.66 1.18.69 1.19.74 1.19.62 1.19.58 1.18.73 1.19.86 1.19 1 1.19.77 1.18.86 1.19.65 1.19.43 1.19.23 1.18.39 1.19.38 1.19.2 1.18.54 1.19.27 1.19.81 1.19.47 1.18.27 1.19.38 1.19.16 1.19.39 1.18.31 1.19.27 1.19.27 1.19.42 1.18.93 1.19.43 1.19 1.12 1.18.93 1.19 1.93 1.19 1.36 1.19.31 1.18.69 1.19.81 1.19.78 1.19.38 1.18.31 1.19.62 1.19.39 1.19.08 1.18.5 1.19.19 1.19.16 1.18.08 1.19.42 1.19.04 1.19.12 1.18.11 1.19.08 1.19.08 1.19.04 1.18.19 1.19.15 1.19.12 1.19.04 1.18.19 1.19.27 1.19.04 1.18.27 1.19.04 1.19.23 1.19.16 1.18.31 1.19.19 1.19.66 1.19.46 1.18.27 1.19.58 1.19 1.74 1.19.04 1.18.51 1.19.03 1.19.04 1.18.16 1.19.54 1.19.39 1.19.34 1.18.2 1.19.08 1.19 1.47 1.19.11 1.18.35 1.19.31 1.19.08 1.19.03 1.18.16 1.19.66 1.19.73 1.18 1.12 1.19 1.28 1.19.89 1.19.62 1.18.58 1.19.66 1.19.04 1.19.03 1.18.16 1.19.12 1.19.03 1.19.39 1.18.19 1.19.08 1.19.2 1.18.15 1.19.12 1.19.27 1.19 1.39h1.18l1.19.73 1.19 2.17h2.37l1.19 1.12 1.19.47 1.19.73h1.18l1.19.62 1.19.66h1.18l1.19.35h1.19l1.19.07 1.18.43h1.19l1.19.04h1.19l1.18.08h1.19l1.19.46h1.19l1.18.39h1.19l1.19.19h1.18l1.19.7h2.38l1.18.11h1.19l1.19.2h2.37l1.19.27h1.19l1.19.27h2.37l1.19.08h3.56l1.19.15h2.37l1.19.19h3.56l1.19.51h3.56l1.19 1.23"/><path stroke="#FF62BC" d="M57.4 53.95h1.18l1.19.04h1.19l1.19.04h1.18l1.19.04h1.19l1.19.04h1.18l1.19.03h1.19l1.19.04h1.18l1.19.04 1.19.04 1.18.04 1.19.04 1.19.04h1.19l1.18.04 1.19.03 1.19.04h1.19l1.18.04 1.19.04h1.19l1.19.04h1.18l1.19.04h2.37l1.19.04h2.38l1.18.03h3.57l1.18.04h3.57l1.18.04h3.56l1.19.04h4.75l1.19.04h5.94l1.18.04h5.94l1.19.04h4.75l1.18.04h5.94l1.19.03h7.12l1.19.04h7.12l1.19.04h5.94l1.18.04h5.94l1.19.04h7.12l1.19.04h7.12l1.19.04h3.56l1.19.03h4.75l1.19.04h5.93l1.19.04h3.56l1.19.04h2.37l1.19.04 1.19.04h1.19l1.18.04H226l1.19.04h1.18l1.19.03h2.38l1.18.04 1.19.04h1.19l1.18.04 1.19.04 1.19.04 1.19.08h1.18l1.19.11 1.19.16 1.19.15 1.18.12 1.19.34 1.19.16 1.19.08 1.18.15 1.19.2 1.19.03h1.18l1.19.24 1.19.11 1.19.08 1.18.08 1.19.31 1.19.15 1.19.08 1.18.39 1.19.07 1.19.16 1.19.54 1.18 1.28 1.19.34 1.19.27 1.18.28 1.19.19 1.19 4.87 1.19 2.32 1.18.28 1.19.15 1.19.43 1.19.11 1.18 1.39 1.19.35 1.19.7 1.19.69 1.18.28 1.19.85 1.19.27 1.18.07 1.19 1.36 1.19.58 1.19.04 1.18.69 1.19.58 1.19.16 1.19.31 1.18 1.24 1.19.69 1.19.85 1.19.58h1.18l1.19.51h1.19l1.18 5.22 1.19.5 1.19 1.55 1.19 2.28h1.18l1.19 5.84 1.19 1.55 1.19 4.06h1.18l1.19.04 1.19.31h2.37l1.19.16 1.19 3.83h1.18l1.19 2.9h1.19l1.19.5 1.18.31h1.19l1.19.19h1.19l1.18.27h1.19l1.19.82h1.19l1.18 2.59h1.19l1.19.27h1.18l1.19.19h2.38l1.18 1.98h1.19l1.19 1.85h2.37l1.19 1.78h1.19l1.19.04h2.37l1.19 1.24h3.56l1.19.35h2.37l1.19 3.79h3.56l1.19.19h3.56l1.19.23"/></g></g><g stroke-width=".1" font-size="8.8" stroke="#4D4D4D" text-anchor="end" fill-opacity="1" fill="#4D4D4D"><text transform="matrix(1 0 0 -1 36.44 32.36)"><tspan dy="3.23" x="0">0</tspan></text><text transform="matrix(1 0 0 -1 36.44 148.42)"><tspan dy="3.23" x="0">30</tspan></text><text transform="matrix(1 0 0 -1 36.44 264.48)"><tspan dy="3.23" x="0">60</tspan></text><text transform="matrix(1 0 0 -1 36.44 380.53)"><tspan dy="3.23" x="0">90</tspan></text><text transform="matrix(1 0 0 -1 36.44 496.59)"><tspan dy="3.23" x="0">120</tspan></text></g><g stroke-width=".1" font-size="8.8" stroke="#4D4D4D" text-anchor="middle" fill-opacity="1" fill="#4D4D4D"><text transform="matrix(1 0 0 -1 57.4 25.5)"><tspan dy="6.46" x="0">50</tspan></text><text transform="matrix(1 0 0 -1 140.51 25.5)"><tspan dy="6.46" x="0">90</tspan></text><text transform="matrix(1 0 0 -1 259.24 25.5)"><tspan dy="6.46" x="0">99</tspan></text><text transform="matrix(1 0 0 -1 377.98 25.5)"><tspan dy="6.46" x="0">99.9</tspan></text></g><text text-anchor="middle" fill-opacity="1" fill="#000" transform="matrix(1 0 0 -1 217.69 13.56)" stroke-width=".1" font-size="11"><tspan dy="7.9" x="0">Percentile</tspan></text><text transform="matrix(0 1 1 0 5.48 264.48)" text-anchor="middle" fill-opacity="1" fill="#000" stroke-width=".1" font-size="11"><tspan dy="7.9" x="0">Latency (ms)</tspan></text><text style="line-height:125%;-inkscape-font-specification:'sans-serif, Normal';text-align:start" x="384.942" y="-274" transform="scale(1 -1)" font-weight="400" font-size="12.5" font-family="sans-serif" letter-spacing="0" word-spacing="0" fill="#e76bf3" fill-opacity="1" stroke="none" stroke-width="1" stroke-linecap="butt" stroke-linejoin="miter" writing-mode="lr"><tspan>st</tspan></text><text style="line-height:125%;-inkscape-font-specification:'sans-serif, Normal';text-align:start" x="385.698" y="-263.182" transform="scale(1 -1)" font-weight="400" font-size="12.5" font-family="sans-serif" letter-spacing="0" word-spacing="0" fill="#00bf7d" fill-opacity="1" stroke="none" stroke-width="1" stroke-linecap="butt" stroke-linejoin="miter"><tspan x="385" y="-261">iterm2</tspan></text><text style="line-height:125%;-inkscape-font-specification:'sans-serif, Normal';text-align:start" x="384.942" y="-218.562" transform="scale(1 -1)" font-weight="400" font-size="12.5" font-family="sans-serif" letter-spacing="0" word-spacing="0" fill="#39b600" fill-opacity="1" stroke="none" stroke-width="1" stroke-linecap="butt" stroke-linejoin="miter"><tspan x="385" y="-219">hyper</tspan></text><text style="line-height:125%;-inkscape-font-specification:'sans-serif, Normal';text-align:start" x="385.698" y="-179.236" transform="scale(1 -1)" font-weight="400" font-size="12.5" font-family="sans-serif" letter-spacing="0" word-spacing="0" fill="#00bfc4" fill-opacity="1" stroke="none" stroke-width="1" stroke-linecap="butt" stroke-linejoin="miter"><tspan x="385" y="-175">linux-alacritty</tspan></text><text style="line-height:125%;-inkscape-font-specification:'sans-serif, Normal';text-align:start" x="385.698" y="-164.867" transform="scale(1 -1)" font-weight="400" font-size="12.5" font-family="sans-serif" letter-spacing="0" word-spacing="0" fill="#f8766d" fill-opacity="1" stroke="none" stroke-width="1" stroke-linecap="butt" stroke-linejoin="miter"><tspan x="385" y="-164.867">alacritty</tspan></text><text style="line-height:125%;-inkscape-font-specification:'sans-serif, Normal';text-align:start" x="384.942" y="-147.473" transform="scale(1 -1)" font-weight="400" font-size="12.5" font-family="sans-serif" letter-spacing="0" word-spacing="0" fill="#00b0f6" fill-opacity="1" stroke="none" stroke-width="1" stroke-linecap="butt" stroke-linejoin="miter"><tspan x="385" y="-146">linux-lxterminal</tspan></text><text style="line-height:125%;-inkscape-font-specification:'sans-serif, Normal';text-align:start" x="384.942" y="-135.373" transform="scale(1 -1)" font-weight="400" font-size="12.5" font-family="sans-serif" letter-spacing="0" word-spacing="0" fill="#a3a500" fill-opacity="1" stroke="none" stroke-width="1" stroke-linecap="butt" stroke-linejoin="miter"><tspan x="385" y="-135.373">emacs-term</tspan></text><text style="line-height:125%;-inkscape-font-specification:'sans-serif, Normal';text-align:start" x="385.698" y="-122.516" transform="scale(1 -1)" font-weight="400" font-size="12.5" font-family="sans-serif" letter-spacing="0" word-spacing="0" fill="#ff62bc" fill-opacity="1" stroke="none" stroke-width="1" stroke-linecap="butt" stroke-linejoin="miter"><tspan x="385" y="-124">terminal.app</tspan></text><text style="line-height:125%;-inkscape-font-specification:'sans-serif, Normal';text-align:start" x="386.454" y="-107.39" transform="scale(1 -1)" font-weight="400" font-size="12.5" font-family="sans-serif" letter-spacing="0" word-spacing="0" fill="#9590ff" fill-opacity="1" stroke="none" stroke-width="1" stroke-linecap="butt" stroke-linejoin="miter"><tspan x="385" y="-112">linux-st</tspan></text><text style="line-height:125%;-inkscape-font-specification:'sans-serif, Normal';text-align:start" x="385.698" y="-93.021" transform="scale(1 -1)" font-weight="400" font-size="12.5" font-family="sans-serif" letter-spacing="0" word-spacing="0" fill="#d89000" fill-opacity="1" stroke="none" stroke-width="1" stroke-linecap="butt" stroke-linejoin="miter"><tspan x="385" y="-96">emacs-eshell</tspan></text></g></svg>