<svg xmlns="http://www.w3.org/2000/svg" width="504" height="504" viewBox="0 0 504 504"><g transform="matrix(1 0 0 -1 0 504)" fill="none" stroke="#000" stroke-width=".75" font-size="12" font-family="Helvetica, Arial, FreeSans, Liberation Sans, Nimbus Sans L, sans-serif" stroke-linecap="round" stroke-linejoin="round" stroke-miterlimit="10" fill-opacity="0"><defs><clipPath id="a"><path stroke="none" d="M41.37 30.43h352.64v468.09H41.37z"/></clipPath></defs><g stroke-linecap="butt" clip-path="url(#a)"><g stroke="#EBEBEB"><path d="M41.37 90.39h352.64M41.37 206.45h352.64M41.37 322.5h352.64M41.37 438.56h352.64M98.95 30.43v468.09M199.88 30.43v468.09M318.61 30.43v468.09" stroke-width=".53"/><path d="M41.37 32.36h352.64M41.37 148.42h352.64M41.37 264.48h352.64M41.37 380.53h352.64M41.37 496.59h352.64M57.4 30.43v468.09m83.11-468.09v468.09M259.24 30.43v468.09M377.98 30.43v468.09" stroke-width="1.07"/></g><g stroke-width="3.2" stroke-miterlimit="1"><path stroke="#F8766D" d="M57.4 134.69l1.18.23 1.19.19 1.19.23 1.19.16 1.18.19 1.19.23 1.19.2 1.19.19 1.18.27 1.19.23 1.19.31 1.19.39 1.18.54 1.19.66 1.19.89 1.18 1.47 1.19 1.86 1.19 3.52 1.19 3.29 1.18 3.28 1.19 2.56 1.19 2.16 1.19 1.86 1.18 2.59 1.19 2.09 1.19 1.78 1.19.77 1.18.51 1.19.35 1.19.3 1.18.24 1.19.15 1.19.16 1.19.15 1.18.16 1.19.15 1.19.16 1.19.15 1.18.12 1.19.15 1.19.12 1.19.15 1.18.12 1.19.15 1.19.08 1.18.15 1.19.12 1.19.12 1.19.15 1.18.08 1.19.15 1.19.08 1.19.16 1.18.11 1.19.16 1.19.15 1.19.16 1.18.15 1.19.16 1.19.11 1.18.19 1.19.2 1.19.11 1.19.16 1.18.23 1.19.19 1.19.2 1.19.23 1.18.15 1.19.24 1.19.23 1.19.23 1.18.23 1.19.27 1.19.24 1.18.31 1.19.23 1.19.23 1.19.31 1.18.19 1.19.43 1.19.39 1.19.3 1.18.31 1.19.27 1.19.47 1.19.23 1.18.23 1.19.43 1.19.35 1.18.15 1.19.35 1.19.39 1.19.27 1.18.42 1.19.47 1.19.31 1.19.38 1.18.58 1.19.27 1.19.59 1.19.38 1.18.39 1.19.58 1.19.27 1.18.77 1.19.31 1.19.47 1.19.35 1.18.69 1.19.5 1.19.59 1.19.88 1.18 1.24 1.19.74 1.19.69 1.19 1.2 1.18.97 1.19.93 1.19 1.12 1.18 1.24 1.19.5 1.19 1.2 1.19 1.24 1.18.35 1.19.89 1.19 1.08 1.19.81 1.18.78 1.19.92 1.19.58 1.19.62 1.18.97 1.19.77 1.19.97 1.18.31 1.19.47 1.19.5 1.19.46 1.18.27 1.19.58 1.19.51 1.19.65 1.18.16 1.19.7 1.19.3 1.19.62 1.18.62 1.19.35 1.19.43 1.18.81 1.19.27 1.19.31 1.19.7 1.18.34 1.19.47 1.19.58 1.19.54 1.18.62 1.19.35 1.19.34 1.19.28 1.18.19 1.19 1.04 1.19.51 1.18.5 1.19.12 1.19.34 1.19.08 1.18.23 1.19.16 1.19 1.2 1.19.54 1.18.19 1.19.74 1.19.38 1.19.2 1.18.77 1.19.23 1.19.35 1.18.43 1.19.42 1.19.31 1.19.39 1.18.04 1.19.04 1.19.42 1.19.04 1.18.54 1.19.27 1.19.16 1.19.38 1.18.04 1.19 1.55 1.19.04 1.18.19 1.19.2 1.19.58 1.19.03 1.18.04h1.19l1.19.12 1.19.04 1.18.11 1.19.16 1.19.04 1.19.19 1.18.16 1.19.27 1.19.07 1.18.39 1.19.47 1.19.19 1.19.08h1.18l1.19.07 1.19.78 1.19 1.27h1.18l1.19.04 1.19.08 1.19.23h2.37l1.19.54h1.18l1.19.08h1.19l1.19.27 1.18 1.39h1.19l1.19.27h3.56l1.19.39h3.56l1.19.16h1.18l1.19.23h2.38l1.18.81h1.19l1.19.39h2.37l1.19.15h1.19l1.19.27h2.37l1.19.58h3.56l1.19.35h2.37l1.19.39h3.56l1.19.23h3.56l1.19.74"/><path stroke="#D89000" d="M57.4 84.05l1.18.19 1.19.16 1.19.15 1.19.16 1.18.19 1.19.12 1.19.11 1.19.16 1.18.19 1.19.15 1.19.2 1.19.15 1.18.2 1.19.15 1.19.19 1.18.2 1.19.11 1.19.16 1.19.19 1.18.19 1.19.24 1.19.19 1.19.16 1.18.15 1.19.15 1.19.12 1.19.12 1.18.11 1.19.12 1.19.11 1.18.12 1.19.16 1.19.07 1.19.08 1.18.12 1.19.07 1.19.12 1.19.08 1.18.07 1.19.12 1.19.04 1.19.12 1.18.07 1.19.08 1.19.04 1.18.08 1.19.07 1.19.08 1.19.08 1.18.08 1.19.03 1.19.08 1.19.08 1.18.04 1.19.08 1.19.07 1.19.08 1.18.04 1.19.08 1.19.07 1.18.04 1.19.08 1.19.08 1.19.07 1.18.08 1.19.08 1.19.08 1.19.07 1.18.08 1.19.08 1.19.04 1.19.11 1.18.04 1.19.08 1.19.04 1.18.08 1.19.07 1.19.08 1.19.08 1.18.07 1.19.04 1.19.08 1.19.08 1.18.11 1.19.08 1.19.12 1.19.11 1.18.08 1.19.19 1.19.04 1.18.08 1.19.16 1.19.07 1.19.08 1.18.08 1.19.07 1.19.12 1.19.16 1.18.15 1.19.04 1.19.19 1.19.12 1.18.19 1.19.2 1.19.11 1.18.27 1.19.35 1.19.19 1.19.27 1.18.35 1.19.23 1.19.62 1.19.27 1.18.62 1.19.58 1.19.74 1.19.5 1.18 1.39 1.19 2.44 1.19 1.55 1.18 3.29 1.19 3.83 1.19 1.58 1.19 5.26 1.18 2.25 1.19 2.63 1.19 2.9 1.19 7.31 1.18 1.97 1.19 1.47 1.19.78 1.19.46 1.18 1.12 1.19.51 1.19.35 1.18.38 1.19.39 1.19.39 1.19.11 1.18.5 1.19.24 1.19.19 1.19.27 1.18.31 1.19.16 1.19.23 1.19.42 1.18.2 1.19.11 1.19.16 1.18.11 1.19.31 1.19.47 1.19.35 1.18.27 1.19.31 1.19.23 1.19.15 1.18.23 1.19.35 1.19.27 1.19.08 1.18.35 1.19.23 1.19.35 1.18.08 1.19.11 1.19.08 1.19.12 1.18.27 1.19.42h1.19l1.19.04 1.18.04 1.19.31 1.19.08 1.19.04 1.18.03 1.19.24 1.19.11 1.18.04 1.19.04 1.19.04 1.19.04 1.18.04 1.19.07 1.19.2h1.19l1.18.04 1.19.15h1.19l1.19.12 1.18.07 1.19.12 1.19.04 1.18.08 1.19.03 1.19.24 1.19.03 1.18.04 1.19.04 1.19.04h1.19l1.18.04 1.19.04 1.19.04 1.19.04 1.18.11h1.19l1.19.04 1.18.04 1.19.08 1.19.07 1.19.04h1.18l1.19.08 1.19.08 1.19.04h1.18l1.19.03h1.19l1.19.12h1.18l1.19.08 1.19.04h1.18l1.19.07h1.19l1.19.04 1.18.04h1.19l1.19.08h1.19l1.18.04h1.19l1.19.04h5.93l1.19.07h2.38l1.18.04h1.19l1.19.08h4.75l1.19.04h2.37l1.19.11h3.56l1.19.2h7.12l1.19.27h3.56l1.19.27"/><path stroke="#A3A500" d="M57.4 148.19l1.18.19 1.19.19 1.19.2 1.19.15 1.18.2 1.19.15 1.19.16 1.19.15 1.18.19 1.19.16 1.19.15 1.19.12 1.18.15 1.19.12 1.19.12 1.18.15 1.19.08 1.19.11 1.19.12 1.18.16 1.19.11 1.19.12 1.19.11 1.18.12 1.19.12 1.19.11 1.19.08 1.18.12 1.19.07 1.19.12 1.18.08 1.19.11 1.19.08 1.19.12 1.18.07 1.19.12 1.19.08 1.19.11 1.18.08 1.19.08 1.19.11 1.19.08 1.18.12 1.19.07 1.19.08 1.18.08 1.19.08 1.19.07 1.19.08 1.18.08 1.19.11 1.19.08 1.19.08 1.18.08 1.19.07 1.19.08 1.19.04 1.18.08 1.19.07 1.19.08 1.18.12 1.19.04 1.19.07 1.19.08 1.18.04 1.19.12 1.19.07 1.19.04 1.18.04 1.19.08 1.19.08 1.19.03 1.18.08 1.19.08 1.19.08 1.18.03 1.19.08 1.19.04 1.19.04 1.18.08 1.19.07 1.19.04 1.19.08 1.18.08 1.19.04 1.19.04 1.19.07 1.18.04 1.19.08 1.19.04 1.18.07 1.19.08 1.19.04 1.19.08 1.18.04 1.19.04 1.19.11 1.19.04 1.18.08 1.19.04 1.19.04 1.19.07 1.18.04 1.19.08 1.19.04 1.18.07 1.19.08 1.19.08 1.19.08 1.18.07 1.19.08 1.19.08 1.19.04 1.18.07 1.19.08 1.19.04 1.19.08 1.18.08 1.19.03 1.19.08 1.18.08 1.19.12 1.19.03 1.19.08 1.18.08 1.19.11 1.19.08 1.19.08 1.18.08 1.19.07 1.19.08 1.19.08 1.18.11 1.19.16 1.19.15 1.18.08 1.19.12 1.19.08 1.19.11 1.18.08 1.19.04 1.19.11 1.19.12 1.18.23 1.19.16 1.19.15 1.19.12 1.18.11 1.19.39 1.19.7 1.18.34 1.19.62 1.19.12 1.19.85 1.18.58 1.19.31 1.19.81 1.19 1.47 1.18.85 1.19 1.4 1.19.65 1.19.43 1.18 1.16 1.19 2.36 1.19.23 1.18 4.64 1.19 4.53 1.19 15.01 1.19.97 1.18.85 1.19 1.66 1.19 1.94 1.19.15 1.18.43 1.19 1.08 1.19.19 1.19.08 1.18.19 1.19.08 1.19.12 1.18.15 1.19.08 1.19.12 1.19.27 1.18.31h1.19l1.19.31 1.19.03 1.18.27 1.19.12h1.19l1.19.54 1.18.04 1.19.12 1.19.15 1.18.08 1.19.23 1.19.12 1.19.04h1.18l1.19.11 1.19.39 1.19.15 1.18.04 1.19.23 1.19.12h1.19l1.18.04 1.19.12 1.19.07 1.18.12 1.19.15 1.19.2 1.19.11h1.18l1.19.12 1.19.04 1.19.08h3.56l1.19.07h1.18l1.19.16h2.37l1.19.11h1.19l1.19.27 1.18.04h1.19l1.19.54h1.19l1.18.12h3.57l1.18.12h1.19l1.19.27h1.18l1.19.35h2.38l1.18.19h1.19l1.19.27h2.37l1.19.19h1.19l1.19 1.01h2.37l1.19 1.16h3.56l1.19.39h2.37l1.19 1.04h3.56l1.19.23h3.56l1.19 2.32"/><path stroke="#39B600" d="M57.4 150.7l1.18.27 1.19.24 1.19.23 1.19.27 1.18.23 1.19.27 1.19.27 1.19.27 1.18.23 1.19.2 1.19.23 1.19.27 1.18.23 1.19.2 1.19.23 1.18.31 1.19.31 1.19.23 1.19.31 1.18.27 1.19.27 1.19.27 1.19.27 1.18.27 1.19.27 1.19.28 1.19.3 1.18.28 1.19.3 1.19.39 1.18.35 1.19.35 1.19.42 1.19.51 1.18.54 1.19.66 1.19.77 1.19.77 1.18.89 1.19 1.47 1.19 1.55 1.19 2.48 1.18 2.2 1.19 2.32 1.19 2.17 1.18 2.24 1.19 1.63 1.19 2.09 1.19 1.27 1.18 1.05 1.19 1 1.19 1.2 1.19 2.13 1.18 2.36 1.19 2.05 1.19 1.78 1.19.97 1.18 1.2 1.19 1.31 1.19.7 1.18.73 1.19.62 1.19.5 1.19.62 1.18.39 1.19.54 1.19.35 1.19.35 1.18.27 1.19.42 1.19.39 1.19.27 1.18.31 1.19.31 1.19.23 1.18.35 1.19.47 1.19.19 1.19.19 1.18.16 1.19.27 1.19.23 1.19.15 1.18.24 1.19.19 1.19.23 1.19.16 1.18.19 1.19.12 1.19.11 1.18.2 1.19.11 1.19.08 1.19.15 1.18.12 1.19.12 1.19.11 1.19.08 1.18.15 1.19.12 1.19.08 1.19.15 1.18.08 1.19.12 1.19.07 1.18.12 1.19.08 1.19.15 1.19.2 1.18.07 1.19.12 1.19.11 1.19.12 1.18.12 1.19.04 1.19.07 1.19.08 1.18.08 1.19.08 1.19.11 1.18.12 1.19.07 1.19.08 1.19.04 1.18.04 1.19.12 1.19.07 1.19.04 1.18.04 1.19.12 1.19.03 1.19.08 1.18.12 1.19.08 1.19.11 1.18.04 1.19.12 1.19.07 1.19.08 1.18.08 1.19.15 1.19.08 1.19.04 1.18.04 1.19.08 1.19.07 1.19.04 1.18.12 1.19.04 1.19.11 1.18.04 1.19.04 1.19.08 1.19.11 1.18.04 1.19.16 1.19.04 1.19.03 1.18.08 1.19.04 1.19.08 1.19.04h1.18l1.19.15 1.19.04 1.18.12 1.19.03 1.19.04 1.19.08 1.18.12 1.19.15 1.19.04 1.19.08 1.18.04 1.19.03 1.19.08 1.19.08 1.18.08h1.19l1.19.07 1.18.08h1.19l1.19.12 1.19.19 1.18.08h1.19l1.19.23 1.19.04 1.18.08 1.19.07 1.19.2 1.19.19h1.18l1.19.08h1.19l1.18.08 1.19.07 1.19.12 1.19.04h1.18l1.19.04h1.19l1.19.11 1.18.04 1.19.19h1.19l1.19.04 1.18.04 1.19.04 1.19.04 1.18.19 1.19.04 1.19.04 1.19.12h2.37l1.19.07 1.19.31h1.18l1.19.12 1.19.66h2.37l1.19.27 1.19.04h1.18l1.19.11h1.19l1.19.27 1.18.16h1.19l1.19.23h1.19l1.18.42h1.19l1.19.04h1.19l1.18.16h1.19l1.19.23h1.18l1.19.16h2.38l1.18.65h1.19l1.19.12h2.37l1.19.35h1.19l1.19.15h2.37l1.19.31h3.56l1.19 1.78h2.37l1.19 2.79h3.56l1.19 8.43h3.56l1.19 2.28"/><path stroke="#00BF7D" d="M57.4 210.08l1.18.24 1.19.27 1.19.23 1.19.19 1.18.2 1.19.23 1.19.15 1.19.16 1.18.11 1.19.24 1.19.15 1.19.19 1.18.12 1.19.15 1.19.12 1.18.16 1.19.15 1.19.12 1.19.15 1.18.16 1.19.11 1.19.12 1.19.11 1.18.16 1.19.08 1.19.11 1.19.12 1.18.08 1.19.11 1.19.12 1.18.08 1.19.11 1.19.12 1.19.07 1.18.08 1.19.12 1.19.08 1.19.11 1.18.08 1.19.08 1.19.11 1.19.08 1.18.15 1.19.08 1.19.12 1.18.08 1.19.11 1.19.12 1.19.07 1.18.12 1.19.08 1.19.08 1.19.07 1.18.08 1.19.08 1.19.11 1.19.04 1.18.12 1.19.08 1.19.07 1.18.12 1.19.12 1.19.07 1.19.08 1.18.15 1.19.08 1.19.08 1.19.08 1.18.07 1.19.12 1.19.12 1.19.15 1.18.12 1.19.11 1.19.08 1.18.08 1.19.08 1.19.11 1.19.16 1.18.11 1.19.12 1.19.11 1.19.08 1.18.12 1.19.07 1.19.12 1.19.08 1.18.11 1.19.16 1.19.08 1.18.11 1.19.12 1.19.15 1.19.04 1.18.2 1.19.11 1.19.19 1.19.2 1.18.08 1.19.19 1.19.23 1.19.23 1.18.12 1.19.35 1.19.19 1.18.23 1.19.2 1.19.19 1.19.31 1.18.39 1.19.31 1.19.5 1.19.27 1.18 1.12 1.19.93 1.19 1.43 1.19 2.09 1.18 1.16 1.19 2.63 1.19 1.01 1.18.81 1.19 1.04 1.19 1.59 1.19.5 1.18 1.4 1.19.92 1.19.62 1.19.97 1.18.35 1.19.58 1.19.73 1.19.7 1.18.81 1.19 1.28 1.19.93 1.18.69 1.19.85 1.19.7 1.19.54 1.18 1.32 1.19.77 1.19.74 1.19.69 1.18.93 1.19 1.01 1.19.89 1.19.46 1.18.27 1.19.78 1.19.73 1.18.66 1.19.73 1.19.74 1.19.15 1.18.51 1.19.23 1.19.31 1.19.31 1.18.42 1.19.85 1.19.39 1.19.31 1.18.54 1.19.23 1.19.35 1.18.27 1.19.7 1.19.46 1.19.27 1.18.82 1.19 1.2 1.19.38 1.19.2 1.18.23 1.19.66 1.19.46 1.19.35 1.18.5 1.19.23 1.19.82 1.18.85 1.19.46 1.19.08 1.19.54 1.18.46 1.19.58 1.19 1.63 1.19.27 1.18.7 1.19 2.74 1.19.16 1.19 1 1.18.2 1.19 6.77 1.19.23 1.18 1.39 1.19 1.05 1.19 1.16 1.19 2.94 1.18.69 1.19.24 1.19.73 1.19.08 1.18 2.9 1.19.12 1.19.69 1.19 2.01 1.18.93 1.19.19 1.19.04 1.18 1.01 1.19 2.05 1.19 1.86 1.19 1.16h1.18l1.19 1.51 1.19.42 1.19.7h1.18l1.19.15 1.19.58 1.19.39h1.18l1.19.04 1.19.93h1.18l1.19 4.25h1.19l1.19.81 1.18 3.95h1.19l1.19.62h1.19l1.18 1.47h1.19l1.19 1.35h1.19l1.18.04h1.19l1.19.39h1.18l1.19.39h2.38l1.18 2.67h1.19l1.19 2.32h2.37l1.19.27h1.19l1.19.65h2.37l1.19.47h3.56l1.19.23h2.37l1.19 2.32h3.56l1.19 4.53h3.56l1.19.08"/><path stroke="#00BFC4" d="M57.4 154.03l1.18.54 1.19.47 1.19.58 1.19.54 1.18.54 1.19.62 1.19.58 1.19.54 1.18.73 1.19.74 1.19.89 1.19 1.01 1.18.96 1.19.81 1.19.93 1.18 1.36 1.19 1.31 1.19 1.43 1.19 1.44 1.18 1.54 1.19 1.63 1.19 2.09 1.19 1.93 1.18 2.71 1.19 2.75 1.19 2.35 1.19 2.79 1.18 2.44 1.19 1.85 1.19 2.09 1.18 1.67 1.19 1.39 1.19 1.01 1.19.96 1.18 1.12 1.19.89 1.19.58 1.19.66 1.18.47 1.19.58 1.19.62 1.19.42 1.18.58 1.19.54 1.19.62 1.18.35 1.19.39 1.19.85 1.19.62 1.18.62 1.19.65 1.19.74 1.19.5 1.18.54 1.19.62 1.19.35 1.19.35 1.18.31 1.19.42 1.19.35 1.18.43 1.19.27 1.19.31 1.19.42 1.18.27 1.19.31 1.19.2 1.19.23 1.18.19 1.19.23 1.19.16 1.19.19 1.18.2 1.19.15 1.19.16 1.18.15 1.19.12 1.19.15 1.19.19 1.18.2 1.19.19 1.19.23 1.19.24 1.18.19 1.19.11 1.19.12 1.19.16 1.18.11 1.19.23 1.19.24 1.18.34 1.19.2 1.19.19 1.19.23 1.18.12 1.19.15 1.19.16 1.19.31 1.18.15 1.19.16 1.19.19 1.19.19 1.18.08 1.19.2 1.19.03 1.18.27 1.19.16 1.19.35 1.19.11 1.18.27 1.19.16 1.19.12 1.19.27 1.18.19 1.19.15 1.19.24 1.19.31 1.18.23 1.19.15 1.19.27 1.18.24 1.19.07 1.19.12 1.19.23 1.18.16 1.19.23 1.19.08 1.19.27 1.18.03 1.19.2 1.19.15 1.19.16 1.18.31 1.19.31 1.19.19 1.18.35 1.19.11 1.19.27 1.19.28 1.18.38 1.19.16 1.19.23 1.19.12 1.18.54 1.19.38 1.19.2 1.19.11 1.18.47 1.19.19 1.19.08 1.18.15 1.19.31 1.19.12 1.19.19 1.18.2 1.19.23 1.19.19 1.19.19 1.18.16 1.19.23 1.19.16 1.19.15 1.18.04 1.19.23 1.19.16 1.18.11 1.19.08 1.19.04 1.19.08 1.18.03 1.19.2 1.19.08 1.19.11 1.18.31 1.19.08 1.19.08 1.19.03 1.18.43 1.19.04 1.19.11 1.18.24h1.19l1.19.15 1.19.04 1.18.08 1.19.04 1.19.07h1.19l1.18.08 1.19.04 1.19.08 1.19.31h1.18l1.19.07 1.19.16 1.18.27h1.19l1.19.23 1.19.54 1.18.12 1.19.12 1.19.03 1.19.2 1.18.07 1.19.04 1.19.08 1.19.04 1.18.15 1.19.27 1.19.59 1.18.07 1.19.39 1.19.08 1.19.23h1.18l1.19.39 1.19.19 1.19.19h1.18l1.19.16 1.19.27 1.19.11h1.18l1.19.24 1.19.81h1.18l1.19.54h1.19l1.19.85 1.18.39h1.19l1.19.04h1.19l1.18 1.08h1.19l1.19.04h1.19l1.18.15h1.19l1.19.31h1.18l1.19.12h2.38l1.18.35h1.19l1.19.81h2.37l1.19 1.04h1.19l1.19.35h2.37l1.19.54h3.56l1.19.04h2.37l1.19 3.06h3.56l1.19 1.58h3.56l1.19.7"/><path stroke="#00B0F6" d="M57.4 136.43l1.18.46 1.19.43 1.19.42 1.19.35 1.18.31 1.19.39 1.19.38 1.19.39 1.18.35 1.19.23 1.19.27 1.19.23 1.18.28 1.19.27 1.19.31 1.18.38 1.19.23 1.19.31 1.19.24 1.18.27 1.19.27 1.19.35 1.19.31 1.18.27 1.19.23 1.19.23 1.19.23 1.18.31 1.19.23 1.19.24 1.18.27 1.19.23 1.19.23 1.19.27 1.18.23 1.19.31 1.19.24 1.19.23 1.18.19 1.19.27 1.19.2 1.19.23 1.18.23 1.19.23 1.19.23 1.18.24 1.19.19 1.19.27 1.19.19 1.18.27 1.19.2 1.19.27 1.19.19 1.18.2 1.19.23 1.19.11 1.19.27 1.18.2 1.19.19 1.19.19 1.18.2 1.19.23 1.19.19 1.19.2 1.18.11 1.19.16 1.19.27 1.19.23 1.18.23 1.19.23 1.19.2 1.19.15 1.18.27 1.19.16 1.19.19 1.18.27 1.19.2 1.19.27 1.19.27 1.18.23 1.19.31 1.19.23 1.19.31 1.18.27 1.19.27 1.19.27 1.19.2 1.18.38 1.19.16 1.19.27 1.18.23 1.19.31 1.19.35 1.19.39 1.18.27 1.19.23 1.19.31 1.19.15 1.18.51 1.19.23 1.19.23 1.19.12 1.18.38 1.19.31 1.19.2 1.18.42 1.19.23 1.19.16 1.19.23 1.18.19 1.19.27 1.19.55 1.19.27 1.18.15 1.19.27 1.19.31 1.19.16 1.18.27 1.19.27 1.19.27 1.18.35 1.19.42 1.19.24 1.19.23 1.18.27 1.19.19 1.19.16 1.19.11 1.18.23 1.19.2 1.19.27 1.19.15 1.18.27 1.19.27 1.19.35 1.18.24 1.19.11 1.19.08 1.19.15 1.18.31 1.19.23 1.19.2 1.19.15 1.18.31 1.19.12 1.19.39 1.19.11 1.18.31 1.19.31 1.19.46 1.18.43 1.19.27 1.19.16 1.19.15 1.18.16 1.19.58 1.19.11 1.19.08 1.18.35 1.19.38 1.19.39 1.19.08 1.18.11 1.19.2 1.19.07 1.18.51 1.19.35 1.19.38 1.19.66 1.18.27 1.19.7 1.19.27 1.19.46 1.18.04 1.19.04 1.19.04 1.19.15 1.18.24 1.19.77 1.19.27 1.18.62 1.19.08 1.19.38 1.19.35 1.18.16 1.19.46 1.19.35 1.19.46 1.18.39h1.19l1.19.15 1.19.2 1.18.19 1.19.5 1.19.47 1.18.19 1.19.12 1.19.73 1.19.31 1.18.12 1.19.35 1.19.38 1.19.51 1.18.15 1.19.58 1.19.58 1.19.12 1.18.23 1.19.23 1.19.35 1.18 2.13 1.19.62 1.19.65 1.19.16h1.18l1.19 1.24 1.19.73 1.19.7h1.18l1.19.23 1.19 1.08 1.19 1.59h1.18l1.19.27 1.19.08h1.18l1.19.11h1.19l1.19.04 1.18 1.94h1.19l1.19 4.02h1.19l1.18.97h1.19l1.19.73h1.19l1.18.23h1.19l1.19 2.4h1.18l1.19 1.24h2.38l1.18 1.05h1.19l1.19.3h2.37l1.19 1.05h1.19l1.19.58h2.37l1.19 1.12h3.56l1.19.35h2.37l1.19 1.7h3.56l1.19 7.04h3.56l1.19 3.17"/><path stroke="#9590FF" d="M57.4 122l1.18.15 1.19.12 1.19.11 1.19.12 1.18.08 1.19.11 1.19.12 1.19.08 1.18.08 1.19.07 1.19.12 1.19.11 1.18.08 1.19.12 1.19.08 1.18.07 1.19.12 1.19.12 1.19.07 1.18.12 1.19.08 1.19.07 1.19.12 1.18.12 1.19.11 1.19.08 1.19.11 1.18.12 1.19.16 1.19.15 1.18.16 1.19.15 1.19.23 1.19.23 1.18.27 1.19.28 1.19.23 1.19.23 1.18.35 1.19.23 1.19.35 1.19.39 1.18.3 1.19.35 1.19.39 1.18.39 1.19.42 1.19.27 1.19.51 1.18.34 1.19.43 1.19.27 1.19.35 1.18.42 1.19.47 1.19.31 1.19.38 1.18.47 1.19.31 1.19.35 1.18.34 1.19.51 1.19.46 1.19.39 1.18.31 1.19.31 1.19.27 1.19.39 1.18.34 1.19.31 1.19.31 1.19.54 1.18.35 1.19.27 1.19.31 1.18.31 1.19.27 1.19.27 1.19.31 1.18.27 1.19.27 1.19.43 1.19.39 1.18.38 1.19.31 1.19.35 1.19.54 1.18.43 1.19.46 1.19.23 1.18.28 1.19.23 1.19.31 1.19.27 1.18.31 1.19.15 1.19.54 1.19.31 1.18.24 1.19.38 1.19.35 1.19.39 1.18.42 1.19.31 1.19.27 1.18.39 1.19.27 1.19.43 1.19.31 1.18.31 1.19.58 1.19.5 1.19.39 1.18.3 1.19.31 1.19.43 1.19.43 1.18.34 1.19.43 1.19.46 1.18.7 1.19.35 1.19.27 1.19.85 1.18.5 1.19.58 1.19.47 1.19.85 1.18.5 1.19.81 1.19.58 1.19.51 1.18.38 1.19.7 1.19.54 1.18 1.05 1.19 1.04 1.19.27 1.19.31 1.18.62 1.19.62 1.19.58 1.19.73 1.18.24 1.19.5 1.19 1.16 1.19.93 1.18 1.43 1.19.5 1.19.74 1.18.58 1.19.62 1.19.42 1.19.16 1.18 2.51 1.19.7 1.19.31 1.19.5 1.18 2.13 1.19.54 1.19.93 1.19.62 1.18 1.04 1.19.47 1.19.23 1.18 1.08 1.19.04 1.19 2.05 1.19.81 1.18.47 1.19 1.16 1.19 1.39 1.19.42 1.18.43 1.19.23 1.19.39 1.19.85 1.18.27 1.19.47 1.19.03 1.18.47 1.19.27 1.19.39 1.19.42 1.18.04 1.19.23 1.19 2.05 1.19.54 1.18 1.59 1.19.08h1.19l1.19.89 1.18.04 1.19.54 1.19 1.31 1.18.27 1.19.31 1.19 1.13 1.19.19 1.18.04 1.19.69 1.19.51 1.19.15 1.18.89 1.19.93 1.19 1.93 1.19.51 1.18.07 1.19.35 1.19.04 1.18.5 1.19.7 1.19.54 1.19.04h1.18l1.19.97 1.19.27 1.19.85h1.18l1.19 2.94 1.19.39 1.19.73h1.18l1.19.85 1.19 2.09h1.18l1.19 1.12h1.19l1.19.35 1.18.04h1.19l1.19 1.74h1.19l1.18.97h1.19l1.19.89h1.19l1.18.81h1.19l1.19.43h1.18l1.19 2.47h2.38l1.18 4.68h1.19l1.19 1.74h2.37l1.19 2.09h1.19l1.19 1.47h2.37l1.19.2h3.56l1.19.38h2.37l1.19 5.96h3.56l1.19 3.09h3.56l1.19 3.37"/><path stroke="#E76BF3" d="M57.4 137.98l1.18 3.67 1.19 5.3 1.19 4.14 1.19 3.48 1.18 4.02 1.19 4.41 1.19 4.03 1.19 4.45 1.18 5.03 1.19 2.78 1.19 3.21 1.19 3.44 1.18 2.21 1.19 1.93 1.19 1.74 1.18 1.9 1.19 3.37 1.19 2.32 1.19 1.85 1.18 1.55 1.19 1.97 1.19 1.78 1.19 1.82 1.18 1.59 1.19 2.05 1.19 2.01 1.19 1.86 1.18 2.2 1.19 1.9 1.19 2.32 1.18 2.05 1.19 2.47 1.19 1.82 1.19 1.59 1.18 1.16 1.19 1.08 1.19.97 1.19.97 1.18 1 1.19 1.12 1.19 1.09 1.19.81 1.18 1.04 1.19.93 1.19 1.24 1.18.93 1.19 1.08 1.19 1.36 1.19.89 1.18 1.08 1.19.85 1.19.89 1.19 1.08 1.18.93 1.19.85 1.19 1.05 1.19 1.2 1.18 1.04 1.19.62 1.19.97 1.18.81 1.19.89 1.19 1.16 1.19.93 1.18.97 1.19.92 1.19.97 1.19 1.16 1.18.85 1.19.85 1.19.82 1.19 1.12 1.18 1.7 1.19.74 1.19.65 1.18.74 1.19.81 1.19.93 1.19 1.16 1.18.97 1.19.73 1.19.89 1.19 1.67 1.18 1.08 1.19 1.12 1.19.93 1.19 1.04 1.18 1.01 1.19 1.12 1.19 1.24 1.18 1.35 1.19 1.2 1.19 1.32 1.19 1.35 1.18 1.7 1.19 1.28 1.19.66 1.19 1.12 1.18 1.01 1.19 1.08 1.19 1.31 1.19 1.9 1.18 1.16 1.19 1.93 1.19 1.4 1.18 2.16 1.19.85 1.19.97 1.19 1.74 1.18.54 1.19.78 1.19.31 1.19 2.09 1.18 1 1.19 1.36 1.19 1.04 1.19 1.78 1.18 2.44 1.19 1.93 1.19 2.86 1.18 4.22 1.19 2.44 1.19 2.98 1.19 3.63 1.18 1.55 1.19 1.82 1.19 4.52 1.19 4.07 1.18 5.03 1.19 3.13 1.19 2.78 1.19 3.14 1.18 1.24 1.19 2.2 1.19 1.43 1.18.89 1.19 1.7 1.19 1.71 1.19 1.31 1.18 1.55 1.19 2.47 1.19 1.4 1.19 2.9 1.18 1.2 1.19.19 1.19 1.36 1.19 2.08 1.18 1.63 1.19 1.74 1.19.93 1.18 1.16 1.19 1.31 1.19 1.4 1.19.62 1.18 2.28 1.19.66 1.19.46 1.19.74 1.18.34 1.19.74 1.19 1.24 1.19.15 1.18.31 1.19 1.97 1.19.08 1.18.74 1.19.07 1.19.39 1.19.54 1.18 1.28 1.19 1.51 1.19 1 1.19.43 1.18.31 1.19.77 1.19.93 1.19.7 1.18 1.23 1.19.58 1.19.66 1.18 1.09h1.19l1.19.15 1.19.74 1.18.54 1.19 1.78 1.19.42 1.19.27 1.18 1.05 1.19.15 1.19.2 1.19.92 1.18.7 1.19 1.28h1.19l1.18.27 1.19.42 1.19.51 1.19.31 1.18.34 1.19.24 1.19.54 1.19.11 1.18.08 1.19.93 1.19.66 1.19.35 1.18.88 1.19.51 1.19.11 1.18.2 1.19.31 1.19 1.16 1.19.07h1.18l1.19.24 1.19.19 1.19.35h1.18l1.19 1.16 1.19.19 1.19.85h1.18l1.19.85 1.19.04h1.18l1.19.04h1.19l1.19.27 1.18.54h1.19l1.19.82h1.19l1.18.58h1.19l1.19.5h1.19l1.18 1.59h1.19l1.19.03h1.18l1.19.74h2.38l1.18.46h1.19l1.19.04h2.37l1.19.43h1.19l1.19 1.93h2.37l1.19 1.2h3.56l1.19 2.86h2.37l1.19 1.09h3.56l1.19 2.01h3.56l1.19 5.26"/><path stroke="#FF62BC" d="M57.4 83.66l1.18.19 1.19.24 1.19.23 1.19.23 1.18.27 1.19.23 1.19.27 1.19.35 1.18.39 1.19.35 1.19.38 1.19.35 1.18.35 1.19.43 1.19.31 1.18.34 1.19.35 1.19.31 1.19.39 1.18.31 1.19.23 1.19.35 1.19.35 1.18.27 1.19.19 1.19.27 1.19.2 1.18.19 1.19.23 1.19.16 1.18.23 1.19.19 1.19.27 1.19.2 1.18.27 1.19.27 1.19.42 1.19.31 1.18.39 1.19.35 1.19.34 1.19.39 1.18.31 1.19.31 1.19.31 1.18.27 1.19.23 1.19.27 1.19.27 1.18.24 1.19.23 1.19.27 1.19.15 1.18.12 1.19.12 1.19.23 1.19.15 1.18.16 1.19.15 1.19.12 1.18.11 1.19.12 1.19.12 1.19.07 1.18.08 1.19.12 1.19.15 1.19.12 1.18.08 1.19.03 1.19.08 1.19.08 1.18.12 1.19.07 1.19.08 1.18.08 1.19.08 1.19.07 1.19.12 1.18.08 1.19.11 1.19.08 1.19.08 1.18.07 1.19.08 1.19.08 1.19.08 1.18.11 1.19.08 1.19.12 1.18.07 1.19.08 1.19.12 1.19.04 1.18.07 1.19.08 1.19.04 1.19.11 1.18.08 1.19.08 1.19.08 1.19.11 1.18.12 1.19.11 1.19.16 1.18.08 1.19.07 1.19.12 1.19.08 1.18.15 1.19.12 1.19.11 1.19.04 1.18.12 1.19.15 1.19.08 1.19.19 1.18.08 1.19.12 1.19.04 1.18.15 1.19.2 1.19.15 1.19.15 1.18.12 1.19.19 1.19.24 1.19.07 1.18.08 1.19.19 1.19.08 1.19.12 1.18.15 1.19.12 1.19.04 1.18.07 1.19.12 1.19.08 1.19.08 1.18.15 1.19.12 1.19.19 1.19.31 1.18.08 1.19.15 1.19.16 1.19.07 1.18.16 1.19.11 1.19.2 1.18.23 1.19.19 1.19.2 1.19.11 1.18.31 1.19.08 1.19.04 1.19.15h1.18l1.19.2 1.19.07 1.19.43 1.18.04 1.19.23 1.19.12 1.18.19 1.19.5 1.19.04 1.19.19 1.18.47 1.19.62 1.19.15 1.19.58 1.18.2 1.19.38 1.19.47 1.19.07 1.18.43 1.19.27 1.19.23 1.18.2 1.19.11h1.19l1.19.31 1.18.35 1.19.46 1.19.47 1.19.08 1.18.15 1.19.12 1.19.07 1.19.78 1.18.19 1.19 1.36 1.19 1.74 1.18 1.66 1.19.97 1.19.38 1.19.08 1.18.54 1.19.23 1.19.04 1.19.31 1.18.08 1.19.23 1.19.08 1.19.27 1.18.7 1.19.54 1.19.5 1.18.66 1.19 1.74 1.19 2.51 1.19.16h1.18l1.19 1 1.19.28 1.19.07h1.18l1.19.51 1.19 1.16 1.19.19h1.18l1.19.08 1.19.23h1.18l1.19.04h1.19l1.19.27 1.18.35h1.19l1.19.35h1.19l1.18.58h1.19l1.19.27h1.19l1.18.19h1.19l1.19.31h1.18l1.19.89h4.75l1.19.73h2.37l1.19 1.05h1.19l1.19.42h2.37l1.19.2h3.56l1.19.04h2.37l1.19 1.39h3.56l1.19.77h3.56l1.19.97"/></g></g><g stroke-width=".1" font-size="8.8" stroke="#4D4D4D" text-anchor="end" fill="#4D4D4D" fill-opacity="1"><text transform="matrix(1 0 0 -1 36.44 32.36)"><tspan dy="3.23" x="0">0</tspan></text><text transform="matrix(1 0 0 -1 36.44 148.42)"><tspan dy="3.23" x="0">30</tspan></text><text transform="matrix(1 0 0 -1 36.44 264.48)"><tspan dy="3.23" x="0">60</tspan></text><text transform="matrix(1 0 0 -1 36.44 380.53)"><tspan dy="3.23" x="0">90</tspan></text><text transform="matrix(1 0 0 -1 36.44 496.59)"><tspan dy="3.23" x="0">120</tspan></text></g><g stroke-width=".1" font-size="8.8" stroke="#4D4D4D" text-anchor="middle" fill="#4D4D4D" fill-opacity="1"><text transform="matrix(1 0 0 -1 57.4 25.5)"><tspan dy="6.46" x="0">50</tspan></text><text transform="matrix(1 0 0 -1 140.51 25.5)"><tspan dy="6.46" x="0">90</tspan></text><text transform="matrix(1 0 0 -1 259.24 25.5)"><tspan dy="6.46" x="0">99</tspan></text><text transform="matrix(1 0 0 -1 377.98 25.5)"><tspan dy="6.46" x="0">99.9</tspan></text></g><text text-anchor="middle" fill="#000" fill-opacity="1" transform="matrix(1 0 0 -1 217.69 13.56)" stroke-width=".1" font-size="11"><tspan dy="7.9" x="0">Percentile</tspan></text><text transform="matrix(0 1 1 0 5.48 264.48)" text-anchor="middle" fill="#000" fill-opacity="1" stroke-width=".1" font-size="11"><tspan dy="7.9" x="0">Latency (ms)</tspan></text><text style="line-height:125%;-inkscape-font-specification:'sans-serif, Normal';text-align:start" x="384.942" y="-456" transform="scale(1 -1)" font-weight="400" font-size="15" font-family="sans-serif" letter-spacing="0" word-spacing="0" fill="#e76bf3" fill-opacity="1" stroke="none" stroke-width="1" stroke-linecap="butt" stroke-linejoin="miter" writing-mode="lr"><tspan>st</tspan></text><text style="line-height:125%;-inkscape-font-specification:'sans-serif, Normal';text-align:start" x="385.698" y="-263.182" transform="scale(1 -1)" font-weight="400" font-size="12.5" font-family="sans-serif" letter-spacing="0" word-spacing="0" fill="#00bf7d" fill-opacity="1" stroke="none" stroke-width="1" stroke-linecap="butt" stroke-linejoin="miter"><tspan x="385.698" y="-340">iTerm2</tspan></text><text style="line-height:125%;-inkscape-font-specification:'sans-serif, Normal';text-align:start" transform="scale(1 -1)" font-weight="400" font-size="12.5" font-family="sans-serif" letter-spacing="0" word-spacing="0" fill="#00bfc4" fill-opacity="1" stroke="none" stroke-width="1" stroke-linecap="butt" stroke-linejoin="miter"><tspan x="385" y="-260">linux-alacritty</tspan></text><text style="line-height:125%;-inkscape-font-specification:'sans-serif, Normal';text-align:start" x="384.942" y="-218.562" transform="scale(1 -1)" font-weight="400" font-size="12.5" font-family="sans-serif" letter-spacing="0" word-spacing="0" fill="#39b600" fill-opacity="1" stroke="none" stroke-width="1" stroke-linecap="butt" stroke-linejoin="miter"><tspan x="385" y="-232">hyper</tspan></text><text style="line-height:125%;-inkscape-font-specification:'sans-serif, Normal';text-align:start" x="385.698" y="-164.867" transform="scale(1 -1)" font-weight="400" font-size="12.5" font-family="sans-serif" letter-spacing="0" word-spacing="0" fill="#f8766d" fill-opacity="1" stroke="none" stroke-width="1" stroke-linecap="butt" stroke-linejoin="miter"><tspan x="385" y="-241">alacritty</tspan></text><text style="line-height:125%;-inkscape-font-specification:'sans-serif, Normal';text-align:start" x="384.942" y="-147.473" transform="scale(1 -1)" font-weight="400" font-size="12.5" font-family="sans-serif" letter-spacing="0" word-spacing="0" fill="#00b0f6" fill-opacity="1" stroke="none" stroke-width="1" stroke-linecap="butt" stroke-linejoin="miter"><tspan x="385" y="-222">linux-lxterminal</tspan></text><text style="line-height:125%;-inkscape-font-specification:'sans-serif, Normal';text-align:start" x="384.942" y="-135.373" transform="scale(1 -1)" font-weight="400" font-size="12.5" font-family="sans-serif" letter-spacing="0" word-spacing="0" fill="#a3a500" fill-opacity="1" stroke="none" stroke-width="1" stroke-linecap="butt" stroke-linejoin="miter"><tspan x="385" y="-213">emacs-term</tspan></text><text style="line-height:125%;-inkscape-font-specification:'sans-serif, Normal';text-align:start" x="385.698" y="-122.516" transform="scale(1 -1)" font-weight="400" font-size="12.5" font-family="sans-serif" letter-spacing="0" word-spacing="0" fill="#ff62bc" fill-opacity="1" stroke="none" stroke-width="1" stroke-linecap="butt" stroke-linejoin="miter"><tspan x="385" y="-142">terminal.app</tspan></text><text style="line-height:125%;-inkscape-font-specification:'sans-serif, Normal';text-align:start" x="386.454" y="-107.39" transform="scale(1 -1)" font-weight="400" font-size="12.5" font-family="sans-serif" letter-spacing="0" word-spacing="0" fill="#9590ff" fill-opacity="1" stroke="none" stroke-width="1" stroke-linecap="butt" stroke-linejoin="miter"><tspan x="385" y="-250">linux-st</tspan></text><text style="line-height:125%;-inkscape-font-specification:'sans-serif, Normal';text-align:start" x="385.698" y="-93.021" transform="scale(1 -1)" font-weight="400" font-size="12.5" font-family="sans-serif" letter-spacing="0" word-spacing="0" fill="#d89000" fill-opacity="1" stroke="none" stroke-width="1" stroke-linecap="butt" stroke-linejoin="miter"><tspan x="385" y="-151">emacs-eshell</tspan></text></g></svg>