<?xml version="1.0" encoding="UTF-8" standalone="no"?>
<svg
   xmlns:gridsvg="http://www.stat.auckland.ac.nz/~paul/R/gridSVG/"
   xmlns:dc="http://purl.org/dc/elements/1.1/"
   xmlns:cc="http://creativecommons.org/ns#"
   xmlns:rdf="http://www.w3.org/1999/02/22-rdf-syntax-ns#"
   xmlns:svg="http://www.w3.org/2000/svg"
   xmlns="http://www.w3.org/2000/svg"
   xmlns:sodipodi="http://sodipodi.sourceforge.net/DTD/sodipodi-0.dtd"
   xmlns:inkscape="http://www.inkscape.org/namespaces/inkscape"
   width="504px"
   height="504px"
   viewBox="0 0 504 504"
   version="1.1"
   id="svg3635"
   inkscape:version="0.91 r13725"
   sodipodi:docname="idle-terminal-latency.svg">
  <defs
     id="defs3894" />
  <sodipodi:namedview
     pagecolor="#ffffff"
     bordercolor="#666666"
     borderopacity="1"
     objecttolerance="10"
     gridtolerance="10"
     guidetolerance="10"
     inkscape:pageopacity="0"
     inkscape:pageshadow="2"
     inkscape:window-width="1222"
     inkscape:window-height="719"
     id="namedview3892"
     showgrid="false"
     inkscape:zoom="1.3222775"
     inkscape:cx="271.97746"
     inkscape:cy="112.55158"
     inkscape:window-x="32"
     inkscape:window-y="0"
     inkscape:window-maximized="0"
     inkscape:current-layer="layout.2" />
  <metadata
     id="metadata3637">
    <gridsvg:generator
       name="gridSVG"
       version="1.5-1"
       time="2017-07-17 16:15:23" />
    <gridsvg:argument
       name="name"
       value="idle-terminal-latency.svg" />
    <gridsvg:argument
       name="exportCoords"
       value="none" />
    <gridsvg:argument
       name="exportMappings"
       value="none" />
    <gridsvg:argument
       name="exportJS"
       value="none" />
    <gridsvg:argument
       name="res"
       value="72" />
    <gridsvg:argument
       name="prefix"
       value="" />
    <gridsvg:argument
       name="addClasses"
       value="FALSE" />
    <gridsvg:argument
       name="indent"
       value="TRUE" />
    <gridsvg:argument
       name="htmlWrapper"
       value="FALSE" />
    <gridsvg:argument
       name="usePaths"
       value="vpPaths" />
    <gridsvg:argument
       name="uniqueNames"
       value="TRUE" />
    <gridsvg:separator
       name="id.sep"
       value="." />
    <gridsvg:separator
       name="gPath.sep"
       value="::" />
    <gridsvg:separator
       name="vpPath.sep"
       value="::" />
    <rdf:RDF>
      <cc:Work
         rdf:about="">
        <dc:format>image/svg+xml</dc:format>
        <dc:type
           rdf:resource="http://purl.org/dc/dcmitype/StillImage" />
        <dc:title></dc:title>
      </cc:Work>
    </rdf:RDF>
  </metadata>
  <g
     transform="translate(0, 504) scale(1, -1)"
     id="g3639">
    <g
       id="gridSVG"
       font-size="12"
       stroke-miterlimit="10"
       font-weight="normal"
       font-style="normal"
       font-family="Helvetica, Arial, FreeSans, Liberation Sans, Nimbus Sans L, sans-serif"
       stroke-dasharray="none"
       stroke-opacity="1"
       stroke-linejoin="round"
       stroke-linecap="round"
       stroke-width="0.75"
       stroke="rgb(0,0,0)"
       fill-opacity="0"
       fill="none"
       opacity="1">
      <g
         id="layout.1">
        <g
           id="layout.2">
          <defs
             id="defs3644">
            <clipPath
               id="layout::background.1-9-10-1.1.clipPath">
              <rect
                 x="0"
                 y="0"
                 width="504"
                 height="504"
                 id="rect3647"
                 stroke="none"
                 fill="none" />
            </clipPath>
          </defs>
          <g
             id="layout::background.1-9-10-1.1"
             clip-path="url(#layout::background.1-9-10-1.1.clipPath)" />
          <defs
             id="defs3650">
            <clipPath
               id="layout::panel.6-4-6-4.1.clipPath">
              <rect
                 x="41.37"
                 y="30.43"
                 width="352.64"
                 height="468.09"
                 id="rect3653"
                 stroke="none"
                 fill="none" />
            </clipPath>
          </defs>
          <g
             id="layout::panel.6-4-6-4.1"
             clip-path="url(#layout::panel.6-4-6-4.1.clipPath)">
            <g
               id="panel.6-4-6-4.1">
              <g
                 id="grill.gTree.13.1">
                <g
                   id="panel.grid.minor.y..polyline.6.1">
                  <polyline
                     id="panel.grid.minor.y..polyline.6.1.1"
                     points="41.37,90.39 394.01,90.39"
                     stroke-dasharray="none"
                     stroke-opacity="1"
                     stroke-linecap="butt"
                     stroke-width="0.53"
                     stroke="rgb(235,235,235)"
                     fill="none" />
                  <polyline
                     id="panel.grid.minor.y..polyline.6.1.2"
                     points="41.37,206.45 394.01,206.45"
                     stroke-dasharray="none"
                     stroke-opacity="1"
                     stroke-linecap="butt"
                     stroke-width="0.53"
                     stroke="rgb(235,235,235)"
                     fill="none" />
                  <polyline
                     id="panel.grid.minor.y..polyline.6.1.3"
                     points="41.37,322.5 394.01,322.5"
                     stroke-dasharray="none"
                     stroke-opacity="1"
                     stroke-linecap="butt"
                     stroke-width="0.53"
                     stroke="rgb(235,235,235)"
                     fill="none" />
                  <polyline
                     id="panel.grid.minor.y..polyline.6.1.4"
                     points="41.37,438.56 394.01,438.56"
                     stroke-dasharray="none"
                     stroke-opacity="1"
                     stroke-linecap="butt"
                     stroke-width="0.53"
                     stroke="rgb(235,235,235)"
                     fill="none" />
                </g>
                <g
                   id="panel.grid.minor.x..polyline.8.1">
                  <polyline
                     id="panel.grid.minor.x..polyline.8.1.1"
                     points="98.95,30.43 98.95,498.52"
                     stroke-dasharray="none"
                     stroke-opacity="1"
                     stroke-linecap="butt"
                     stroke-width="0.53"
                     stroke="rgb(235,235,235)"
                     fill="none" />
                  <polyline
                     id="panel.grid.minor.x..polyline.8.1.2"
                     points="199.88,30.43 199.88,498.52"
                     stroke-dasharray="none"
                     stroke-opacity="1"
                     stroke-linecap="butt"
                     stroke-width="0.53"
                     stroke="rgb(235,235,235)"
                     fill="none" />
                  <polyline
                     id="panel.grid.minor.x..polyline.8.1.3"
                     points="318.61,30.43 318.61,498.52"
                     stroke-dasharray="none"
                     stroke-opacity="1"
                     stroke-linecap="butt"
                     stroke-width="0.53"
                     stroke="rgb(235,235,235)"
                     fill="none" />
                </g>
                <g
                   id="panel.grid.major.y..polyline.10.1">
                  <polyline
                     id="panel.grid.major.y..polyline.10.1.1"
                     points="41.37,32.36 394.01,32.36"
                     stroke-dasharray="none"
                     stroke-opacity="1"
                     stroke-linecap="butt"
                     stroke-width="1.07"
                     stroke="rgb(235,235,235)"
                     fill="none" />
                  <polyline
                     id="panel.grid.major.y..polyline.10.1.2"
                     points="41.37,148.42 394.01,148.42"
                     stroke-dasharray="none"
                     stroke-opacity="1"
                     stroke-linecap="butt"
                     stroke-width="1.07"
                     stroke="rgb(235,235,235)"
                     fill="none" />
                  <polyline
                     id="panel.grid.major.y..polyline.10.1.3"
                     points="41.37,264.48 394.01,264.48"
                     stroke-dasharray="none"
                     stroke-opacity="1"
                     stroke-linecap="butt"
                     stroke-width="1.07"
                     stroke="rgb(235,235,235)"
                     fill="none" />
                  <polyline
                     id="panel.grid.major.y..polyline.10.1.4"
                     points="41.37,380.53 394.01,380.53"
                     stroke-dasharray="none"
                     stroke-opacity="1"
                     stroke-linecap="butt"
                     stroke-width="1.07"
                     stroke="rgb(235,235,235)"
                     fill="none" />
                  <polyline
                     id="panel.grid.major.y..polyline.10.1.5"
                     points="41.37,496.59 394.01,496.59"
                     stroke-dasharray="none"
                     stroke-opacity="1"
                     stroke-linecap="butt"
                     stroke-width="1.07"
                     stroke="rgb(235,235,235)"
                     fill="none" />
                </g>
                <g
                   id="panel.grid.major.x..polyline.12.1">
                  <polyline
                     id="panel.grid.major.x..polyline.12.1.1"
                     points="57.4,30.43 57.4,498.52"
                     stroke-dasharray="none"
                     stroke-opacity="1"
                     stroke-linecap="butt"
                     stroke-width="1.07"
                     stroke="rgb(235,235,235)"
                     fill="none" />
                  <polyline
                     id="panel.grid.major.x..polyline.12.1.2"
                     points="140.51,30.43 140.51,498.52"
                     stroke-dasharray="none"
                     stroke-opacity="1"
                     stroke-linecap="butt"
                     stroke-width="1.07"
                     stroke="rgb(235,235,235)"
                     fill="none" />
                  <polyline
                     id="panel.grid.major.x..polyline.12.1.3"
                     points="259.24,30.43 259.24,498.52"
                     stroke-dasharray="none"
                     stroke-opacity="1"
                     stroke-linecap="butt"
                     stroke-width="1.07"
                     stroke="rgb(235,235,235)"
                     fill="none" />
                  <polyline
                     id="panel.grid.major.x..polyline.12.1.4"
                     points="377.98,30.43 377.98,498.52"
                     stroke-dasharray="none"
                     stroke-opacity="1"
                     stroke-linecap="butt"
                     stroke-width="1.07"
                     stroke="rgb(235,235,235)"
                     fill="none" />
                </g>
              </g>
              <g
                 id="GRID.polyline.1.1">
                <polyline
                   id="GRID.polyline.1.1.1"
                   points="57.4,152.33 58.58,152.48 59.77,152.6 60.96,152.71 62.15,152.83 63.33,152.98 64.52,153.06 65.71,153.14 66.9,153.22 68.08,153.29 69.27,153.41 70.46,153.6 71.65,153.76 72.83,153.99 74.02,155.65 75.21,157.32 76.39,157.74 77.58,157.94 78.77,158.09 79.96,158.28 81.14,158.48 82.33,158.63 83.52,158.75 84.71,158.87 85.89,158.94 87.08,158.98 88.27,159.06 89.46,159.1 90.64,159.14 91.83,159.17 93.02,159.21 94.2,159.25 95.39,159.29 96.58,159.29 97.77,159.33 98.95,159.33 100.14,159.37 101.33,159.41 102.52,159.41 103.7,159.45 104.89,159.45 106.08,159.45 107.27,159.48 108.45,159.48 109.64,159.48 110.83,159.52 112.01,159.52 113.2,159.52 114.39,159.56 115.58,159.56 116.76,159.6 117.95,159.6 119.14,159.6 120.33,159.6 121.51,159.64 122.7,159.64 123.89,159.64 125.08,159.64 126.26,159.68 127.45,159.68 128.64,159.68 129.82,159.72 131.01,159.72 132.2,159.72 133.39,159.72 134.57,159.75 135.76,159.75 136.95,159.75 138.14,159.75 139.32,159.75 140.51,159.79 141.7,159.79 142.89,159.79 144.07,159.79 145.26,159.79 146.45,159.79 147.63,159.83 148.82,159.83 150.01,159.83 151.2,159.83 152.38,159.83 153.57,159.83 154.76,159.87 155.95,159.87 157.13,159.87 158.32,159.87 159.51,159.87 160.7,159.87 161.88,159.87 163.07,159.91 164.26,159.91 165.44,159.91 166.63,159.91 167.82,159.91 169.01,159.95 170.19,159.95 171.38,159.95 172.57,159.95 173.76,159.95 174.94,159.95 176.13,159.99 177.32,159.99 178.51,159.99 179.69,159.99 180.88,159.99 182.07,160.03 183.25,160.03 184.44,160.03 185.63,160.03 186.82,160.03 188,160.06 189.19,160.06 190.38,160.06 191.57,160.06 192.75,160.06 193.94,160.06 195.13,160.1 196.32,160.1 197.5,160.1 198.69,160.1 199.88,160.1 201.06,160.14 202.25,160.14 203.44,160.14 204.63,160.14 205.81,160.18 207,160.18 208.19,160.18 209.38,160.18 210.56,160.22 211.75,160.22 212.94,160.22 214.13,160.22 215.31,160.22 216.5,160.26 217.69,160.26 218.87,160.26 220.06,160.26 221.25,160.26 222.44,160.26 223.62,160.3 224.81,160.3 226,160.34 227.19,160.34 228.37,160.34 229.56,160.37 230.75,160.37 231.94,160.41 233.12,160.41 234.31,160.41 235.5,160.45 236.68,160.53 237.87,160.57 239.06,160.61 240.25,160.72 241.43,160.84 242.62,161.07 243.81,161.19 245,161.5 246.18,161.61 247.37,161.77 248.56,161.88 249.75,161.92 250.93,162.08 252.12,162.11 253.31,162.31 254.49,162.39 255.68,162.42 256.87,162.5 258.06,162.58 259.24,162.66 260.43,162.77 261.62,162.81 262.81,162.89 263.99,162.97 265.18,162.97 266.37,163.16 267.56,163.24 268.74,163.31 269.93,163.51 271.12,163.62 272.3,163.82 273.49,163.86 274.68,163.93 275.87,164.01 277.05,164.01 278.24,164.05 279.43,164.4 280.62,165.33 281.8,165.63 282.99,166.68 284.18,167.84 285.37,168.03 286.55,168.27 287.74,168.88 288.93,168.88 290.11,168.96 291.3,168.96 292.49,169.12 293.68,169.16 294.86,169.5 296.05,169.54 297.24,169.58 298.43,169.58 299.61,169.62 300.8,169.62 301.99,169.62 303.18,169.7 304.36,169.74 305.55,169.77 306.74,169.81 307.92,170.01 309.11,170.16 310.3,170.16 311.49,170.16 312.67,170.16 313.86,170.2 315.05,170.24 316.24,170.28 317.42,170.28 318.61,170.32 319.8,170.32 320.99,170.39 322.17,170.39 323.36,170.43 324.55,170.47 325.73,170.47 326.92,170.47 328.11,170.47 329.3,170.59 330.48,170.63 331.67,170.63 332.86,170.7 334.05,170.7 335.23,170.74 336.42,170.74 337.61,170.86 338.8,170.86 339.98,170.86 341.17,170.86 342.36,170.93 343.54,170.93 344.73,170.97 345.92,170.97 347.11,170.97 348.29,170.97 349.48,170.97 350.67,171.01 351.86,171.01 353.04,171.01 354.23,171.01 355.42,171.01 356.61,171.01 357.79,171.01 358.98,171.01 360.17,171.09 361.35,171.09 362.54,171.09 363.73,171.09 364.92,171.09 366.1,171.09 367.29,171.09 368.48,171.09 369.67,171.09 370.85,171.09 372.04,171.09 373.23,171.17 374.42,171.17 375.6,171.17 376.79,171.17 377.98,171.21"
                   stroke-miterlimit="1"
                   stroke-dasharray="none"
                   stroke-opacity="1"
                   stroke-linejoin="round"
                   stroke-linecap="butt"
                   stroke-width="3.2"
                   stroke="rgb(248,118,109)"
                   fill-opacity="1"
                   fill="none" />
                <polyline
                   id="GRID.polyline.1.1.2"
                   points="57.4,52.09 58.58,52.09 59.77,52.09 60.96,52.13 62.15,52.13 63.33,52.13 64.52,52.17 65.71,52.17 66.9,52.17 68.08,52.21 69.27,52.21 70.46,52.21 71.65,52.25 72.83,52.25 74.02,52.25 75.21,52.29 76.39,52.29 77.58,52.29 78.77,52.29 79.96,52.33 81.14,52.33 82.33,52.36 83.52,52.36 84.71,52.36 85.89,52.36 87.08,52.4 88.27,52.4 89.46,52.4 90.64,52.44 91.83,52.44 93.02,52.44 94.2,52.48 95.39,52.48 96.58,52.48 97.77,52.52 98.95,52.52 100.14,52.56 101.33,52.56 102.52,52.56 103.7,52.6 104.89,52.6 106.08,52.6 107.27,52.64 108.45,52.64 109.64,52.64 110.83,52.67 112.01,52.67 113.2,52.71 114.39,52.71 115.58,52.71 116.76,52.71 117.95,52.75 119.14,52.75 120.33,52.75 121.51,52.79 122.7,52.79 123.89,52.79 125.08,52.83 126.26,52.83 127.45,52.83 128.64,52.83 129.82,52.87 131.01,52.87 132.2,52.87 133.39,52.91 134.57,52.91 135.76,52.91 136.95,52.91 138.14,52.95 139.32,52.95 140.51,52.95 141.7,52.95 142.89,52.98 144.07,52.98 145.26,52.98 146.45,52.98 147.63,53.02 148.82,53.02 150.01,53.06 151.2,53.06 152.38,53.06 153.57,53.1 154.76,53.1 155.95,53.14 157.13,53.14 158.32,53.14 159.51,53.18 160.7,53.18 161.88,53.18 163.07,53.22 164.26,53.22 165.44,53.25 166.63,53.25 167.82,53.29 169.01,53.29 170.19,53.33 171.38,53.33 172.57,53.37 173.76,53.41 174.94,53.45 176.13,53.49 177.32,53.53 178.51,53.56 179.69,53.6 180.88,53.6 182.07,53.64 183.25,53.64 184.44,53.68 185.63,53.68 186.82,53.72 188,53.76 189.19,53.76 190.38,53.8 191.57,53.83 192.75,53.87 193.94,53.87 195.13,53.91 196.32,53.91 197.5,53.95 198.69,53.95 199.88,53.99 201.06,54.03 202.25,54.07 203.44,54.07 204.63,54.11 205.81,54.11 207,54.14 208.19,54.14 209.38,54.18 210.56,54.18 211.75,54.22 212.94,54.22 214.13,54.3 215.31,54.34 216.5,54.34 217.69,54.38 218.87,54.38 220.06,54.38 221.25,54.42 222.44,54.42 223.62,54.49 224.81,54.53 226,54.57 227.19,54.61 228.37,54.65 229.56,54.72 230.75,54.76 231.94,54.76 233.12,54.8 234.31,54.84 235.5,54.88 236.68,54.92 237.87,54.96 239.06,55 240.25,55 241.43,55.07 242.62,55.19 243.81,55.27 245,55.3 246.18,55.46 247.37,55.54 248.56,55.73 249.75,55.77 250.93,55.92 252.12,55.96 253.31,56 254.49,56.04 255.68,56.04 256.87,56.12 258.06,56.12 259.24,56.16 260.43,56.19 261.62,56.19 262.81,56.23 263.99,56.35 265.18,56.39 266.37,56.47 267.56,56.47 268.74,56.5 269.93,56.54 271.12,56.58 272.3,56.66 273.49,56.66 274.68,56.7 275.87,56.77 277.05,56.85 278.24,56.93 279.43,57.24 280.62,57.28 281.8,57.47 282.99,57.47 284.18,57.74 285.37,66.72 286.55,73.18 287.74,76.35 288.93,79.72 290.11,81.42 291.3,81.88 292.49,83.82 293.68,96.47 294.86,96.47 296.05,96.5 297.24,96.78 298.43,96.93 299.61,97.01 300.8,97.2 301.99,97.24 303.18,97.28 304.36,97.32 305.55,97.43 306.74,97.59 307.92,97.63 309.11,97.67 310.3,97.7 311.49,97.82 312.67,97.82 313.86,97.86 315.05,97.9 316.24,97.9 317.42,97.9 318.61,98.05 319.8,98.13 320.99,98.25 322.17,98.25 323.36,98.32 324.55,98.44 325.73,98.44 326.92,98.48 328.11,98.48 329.3,98.48 330.48,98.52 331.67,98.52 332.86,98.55 334.05,98.55 335.23,98.59 336.42,98.59 337.61,98.63 338.8,98.63 339.98,98.67 341.17,98.67 342.36,98.67 343.54,98.67 344.73,98.75 345.92,98.75 347.11,98.75 348.29,98.75 349.48,98.75 350.67,98.83 351.86,98.83 353.04,98.83 354.23,98.83 355.42,98.83 356.61,98.98 357.79,98.98 358.98,98.98 360.17,98.98 361.35,98.98 362.54,98.98 363.73,98.98 364.92,99.06 366.1,99.06 367.29,99.06 368.48,99.06 369.67,99.06 370.85,99.06 372.04,99.06 373.23,99.14 374.42,99.14 375.6,99.14 376.79,99.14 377.98,99.14"
                   stroke-miterlimit="1"
                   stroke-dasharray="none"
                   stroke-opacity="1"
                   stroke-linejoin="round"
                   stroke-linecap="butt"
                   stroke-width="3.2"
                   stroke="rgb(216,144,0)"
                   fill-opacity="1"
                   fill="none" />
                <polyline
                   id="GRID.polyline.1.1.3"
                   points="57.4,82 58.58,82.04 59.77,82.04 60.96,82.08 62.15,82.11 63.33,82.15 64.52,82.19 65.71,82.19 66.9,82.23 68.08,82.27 69.27,82.31 70.46,82.35 71.65,82.38 72.83,82.42 74.02,82.46 75.21,82.5 76.39,82.58 77.58,82.62 78.77,82.66 79.96,82.73 81.14,82.81 82.33,82.93 83.52,83.04 84.71,83.16 85.89,83.35 87.08,83.55 88.27,83.78 89.46,84.01 90.64,84.28 91.83,84.47 93.02,84.94 94.2,86.72 95.39,93.33 96.58,94.11 97.77,94.38 98.95,94.65 100.14,94.88 101.33,95.07 102.52,95.42 103.7,95.81 104.89,97.43 106.08,102.08 107.27,103.16 108.45,103.51 109.64,103.78 110.83,104.05 112.01,104.2 113.2,104.32 114.39,104.44 115.58,104.59 116.76,104.71 117.95,104.82 119.14,104.94 120.33,105.05 121.51,105.17 122.7,105.32 123.89,105.56 125.08,105.79 126.26,106.21 127.45,106.95 128.64,108.15 129.82,109.19 131.01,110.08 132.2,111.17 133.39,112.06 134.57,112.75 135.76,113.06 136.95,113.29 138.14,113.45 139.32,113.56 140.51,113.64 141.7,113.76 142.89,113.84 144.07,113.91 145.26,113.99 146.45,114.07 147.63,114.15 148.82,114.22 150.01,114.26 151.2,114.38 152.38,114.45 153.57,114.49 154.76,114.65 155.95,114.73 157.13,114.84 158.32,114.92 159.51,115.03 160.7,115.11 161.88,115.27 163.07,115.38 164.26,115.46 165.44,115.58 166.63,115.69 167.82,115.92 169.01,116 170.19,116.31 171.38,116.54 172.57,117.43 173.76,118.05 174.94,118.83 176.13,119.75 177.32,120.1 178.51,120.26 179.69,120.45 180.88,120.72 182.07,121.19 183.25,121.77 184.44,122.31 185.63,122.54 186.82,122.69 188,122.77 189.19,122.85 190.38,122.97 191.57,123 192.75,123.04 193.94,123.16 195.13,123.16 196.32,123.24 197.5,123.27 198.69,123.27 199.88,123.35 201.06,123.39 202.25,123.43 203.44,123.47 204.63,123.51 205.81,123.55 207,123.55 208.19,123.58 209.38,123.62 210.56,123.66 211.75,123.66 212.94,123.7 214.13,123.7 215.31,123.7 216.5,123.74 217.69,123.78 218.87,123.78 220.06,123.82 221.25,123.86 222.44,123.86 223.62,123.86 224.81,123.89 226,123.89 227.19,123.93 228.37,123.93 229.56,123.97 230.75,124.01 231.94,124.01 233.12,124.05 234.31,124.05 235.5,124.09 236.68,124.09 237.87,124.13 239.06,124.13 240.25,124.13 241.43,124.16 242.62,124.16 243.81,124.16 245,124.2 246.18,124.24 247.37,124.24 248.56,124.24 249.75,124.24 250.93,124.28 252.12,124.28 253.31,124.28 254.49,124.32 255.68,124.32 256.87,124.32 258.06,124.36 259.24,124.36 260.43,124.36 261.62,124.4 262.81,124.4 263.99,124.4 265.18,124.4 266.37,124.44 267.56,124.44 268.74,124.47 269.93,124.51 271.12,124.51 272.3,124.55 273.49,124.55 274.68,124.55 275.87,124.59 277.05,124.59 278.24,124.63 279.43,124.63 280.62,124.63 281.8,124.63 282.99,124.63 284.18,124.67 285.37,124.67 286.55,124.67 287.74,124.71 288.93,124.74 290.11,124.74 291.3,124.74 292.49,124.78 293.68,124.78 294.86,124.82 296.05,124.86 297.24,124.94 298.43,124.94 299.61,124.94 300.8,124.98 301.99,124.98 303.18,124.98 304.36,125.02 305.55,125.02 306.74,125.02 307.92,125.02 309.11,125.05 310.3,125.05 311.49,125.05 312.67,125.05 313.86,125.09 315.05,125.13 316.24,125.21 317.42,125.21 318.61,125.21 319.8,125.25 320.99,125.25 322.17,125.25 323.36,125.29 324.55,125.33 325.73,125.33 326.92,125.36 328.11,125.36 329.3,125.4 330.48,125.48 331.67,125.48 332.86,125.87 334.05,125.87 335.23,128.5 336.42,128.5 337.61,132.56 338.8,132.56 339.98,133.14 341.17,133.14 342.36,134.07 343.54,134.07 344.73,134.88 345.92,134.88 347.11,134.88 348.29,135.04 349.48,135.04 350.67,136.58 351.86,136.58 353.04,136.58 354.23,137.12 355.42,137.12 356.61,137.12 357.79,137.12 358.98,137.12 360.17,137.94 361.35,137.94 362.54,137.94 363.73,137.94 364.92,138.17 366.1,138.17 367.29,138.17 368.48,138.28 369.67,138.28 370.85,138.28 372.04,138.28 373.23,138.67 374.42,138.67 375.6,138.67 376.79,138.67 377.98,141.22"
                   stroke-miterlimit="1"
                   stroke-dasharray="none"
                   stroke-opacity="1"
                   stroke-linejoin="round"
                   stroke-linecap="butt"
                   stroke-width="3.2"
                   stroke="rgb(163,165,0)"
                   fill-opacity="1"
                   fill="none" />
                <polyline
                   id="GRID.polyline.1.1.4"
                   points="57.4,159.64 58.58,160.03 59.77,160.53 60.96,161.11 62.15,161.65 63.33,162.19 64.52,162.58 65.71,163.16 66.9,163.66 68.08,164.78 69.27,166.37 70.46,167.88 71.65,169.04 72.83,170.24 74.02,171.32 75.21,172.1 76.39,172.99 77.58,173.57 78.77,174.07 79.96,174.46 81.14,174.96 82.33,175.46 83.52,176 84.71,176.43 85.89,176.89 87.08,177.36 88.27,177.86 89.46,178.28 90.64,178.83 91.83,179.41 93.02,179.79 94.2,180.18 95.39,180.57 96.58,180.88 97.77,181.19 98.95,181.46 100.14,181.65 101.33,181.88 102.52,182.08 103.7,182.27 104.89,182.46 106.08,182.66 107.27,182.81 108.45,182.97 109.64,183.16 110.83,183.39 112.01,183.55 113.2,183.7 114.39,183.82 115.58,183.97 116.76,184.13 117.95,184.32 119.14,184.44 120.33,184.59 121.51,184.71 122.7,184.86 123.89,185.02 125.08,185.21 126.26,185.4 127.45,185.56 128.64,185.75 129.82,185.94 131.01,186.18 132.2,186.37 133.39,186.56 134.57,186.76 135.76,186.91 136.95,187.22 138.14,187.45 139.32,187.69 140.51,187.99 141.7,188.23 142.89,188.58 144.07,188.77 145.26,189.04 146.45,189.58 147.63,190.01 148.82,190.32 150.01,190.66 151.2,191.21 152.38,191.63 153.57,192.02 154.76,192.41 155.95,192.64 157.13,192.91 158.32,193.22 159.51,193.6 160.7,193.95 161.88,194.26 163.07,194.53 164.26,194.73 165.44,194.96 166.63,195.15 167.82,195.31 169.01,195.5 170.19,195.73 171.38,195.96 172.57,196.16 173.76,196.39 174.94,196.58 176.13,196.7 177.32,196.93 178.51,197.01 179.69,197.2 180.88,197.28 182.07,197.55 183.25,197.7 184.44,198.01 185.63,198.25 186.82,198.44 188,198.71 189.19,198.83 190.38,199.06 191.57,199.25 192.75,199.48 193.94,199.6 195.13,199.76 196.32,199.87 197.5,200.06 198.69,200.18 199.88,200.37 201.06,200.76 202.25,200.84 203.44,201.03 204.63,201.15 205.81,201.3 207,201.46 208.19,201.57 209.38,201.65 210.56,201.84 211.75,202 212.94,202.08 214.13,202.23 215.31,202.27 216.5,202.58 217.69,202.81 218.87,202.93 220.06,203.16 221.25,203.31 222.44,203.39 223.62,203.47 224.81,203.66 226,203.93 227.19,204.05 228.37,204.36 229.56,204.59 230.75,204.71 231.94,204.78 233.12,205.06 234.31,205.13 235.5,205.29 236.68,205.33 237.87,205.52 239.06,205.6 240.25,205.79 241.43,205.83 242.62,205.91 243.81,205.98 245,206.06 246.18,206.1 247.37,206.22 248.56,206.22 249.75,206.25 250.93,206.29 252.12,206.33 253.31,206.37 254.49,206.41 255.68,206.45 256.87,206.53 258.06,206.6 259.24,206.6 260.43,206.76 261.62,206.99 262.81,207.03 263.99,207.14 265.18,207.26 266.37,207.3 267.56,207.41 268.74,207.45 269.93,207.65 271.12,207.69 272.3,207.72 273.49,207.84 274.68,207.88 275.87,208 277.05,208 278.24,208.03 279.43,208.15 280.62,208.19 281.8,208.27 282.99,208.38 284.18,208.46 285.37,208.54 286.55,208.54 287.74,208.65 288.93,208.69 290.11,208.69 291.3,208.81 292.49,208.85 293.68,209 294.86,209 296.05,209.04 297.24,209.04 298.43,209.12 299.61,209.19 300.8,209.23 301.99,209.27 303.18,209.27 304.36,209.35 305.55,209.43 306.74,209.47 307.92,209.5 309.11,209.5 310.3,209.5 311.49,209.66 312.67,209.66 313.86,209.74 315.05,209.74 316.24,209.81 317.42,209.81 318.61,209.93 319.8,210.05 320.99,210.08 322.17,210.08 323.36,210.16 324.55,210.16 325.73,210.16 326.92,210.82 328.11,210.82 329.3,210.86 330.48,210.94 331.67,210.94 332.86,211.05 334.05,211.05 335.23,211.05 336.42,211.05 337.61,211.09 338.8,211.09 339.98,211.17 341.17,211.17 342.36,211.24 343.54,211.24 344.73,211.24 345.92,211.24 347.11,211.24 348.29,211.59 349.48,211.59 350.67,211.67 351.86,211.67 353.04,211.67 354.23,212.21 355.42,212.21 356.61,212.44 357.79,212.44 358.98,212.44 360.17,213.33 361.35,213.33 362.54,213.33 363.73,213.33 364.92,217.98 366.1,217.98 367.29,217.98 368.48,218.01 369.67,218.01 370.85,218.01 372.04,218.01 373.23,222.89 374.42,222.89 375.6,222.89 376.79,222.89 377.98,223.39"
                   stroke-miterlimit="1"
                   stroke-dasharray="none"
                   stroke-opacity="1"
                   stroke-linejoin="round"
                   stroke-linecap="butt"
                   stroke-width="3.2"
                   stroke="rgb(57,182,0)"
                   fill-opacity="1"
                   fill="none" />
                <polyline
                   id="GRID.polyline.1.1.5"
                   points="57.4,203.74 58.58,204.55 59.77,205.56 60.96,206.76 62.15,207.96 63.33,209.27 64.52,210.2 65.71,211.24 66.9,212.06 68.08,212.75 69.27,213.57 70.46,214.3 71.65,215 72.83,215.81 74.02,216.85 75.21,217.71 76.39,218.44 77.58,219.33 78.77,219.99 79.96,220.61 81.14,221.07 82.33,221.53 83.52,221.96 84.71,222.35 85.89,222.81 87.08,223.51 88.27,224.01 89.46,224.51 90.64,225.09 91.83,225.87 93.02,226.45 94.2,226.91 95.39,227.26 96.58,227.8 97.77,228.38 98.95,228.69 100.14,229.12 101.33,229.54 102.52,230.2 103.7,230.74 104.89,231.24 106.08,231.75 107.27,232.13 108.45,232.68 109.64,233.06 110.83,233.68 112.01,234.22 113.2,234.57 114.39,234.96 115.58,235.27 116.76,235.62 117.95,235.93 119.14,236.31 120.33,236.54 121.51,236.89 122.7,237.28 123.89,237.55 125.08,237.82 126.26,238.17 127.45,238.52 128.64,238.71 129.82,238.94 131.01,239.18 132.2,239.33 133.39,239.52 134.57,239.72 135.76,239.83 136.95,239.99 138.14,240.22 139.32,240.37 140.51,240.53 141.7,240.65 142.89,240.76 144.07,240.95 145.26,241.07 146.45,241.23 147.63,241.34 148.82,241.5 150.01,241.57 151.2,241.69 152.38,241.88 153.57,241.96 154.76,242.08 155.95,242.23 157.13,242.42 158.32,242.58 159.51,242.7 160.7,242.89 161.88,242.97 163.07,243.12 164.26,243.28 165.44,243.43 166.63,243.62 167.82,243.7 169.01,243.78 170.19,243.86 171.38,243.97 172.57,244.01 173.76,244.09 174.94,244.2 176.13,244.28 177.32,244.4 178.51,244.51 179.69,244.59 180.88,244.67 182.07,244.75 183.25,244.82 184.44,244.9 185.63,245.02 186.82,245.06 188,245.13 189.19,245.25 190.38,245.29 191.57,245.33 192.75,245.4 193.94,245.44 195.13,245.52 196.32,245.6 197.5,245.71 198.69,245.71 199.88,245.79 201.06,245.87 202.25,245.91 203.44,245.98 204.63,246.1 205.81,246.1 207,246.14 208.19,246.22 209.38,246.29 210.56,246.37 211.75,246.49 212.94,246.53 214.13,246.56 215.31,246.68 216.5,246.72 217.69,246.8 218.87,246.84 220.06,246.84 221.25,246.91 222.44,246.95 223.62,247.03 224.81,247.11 226,247.14 227.19,247.18 228.37,247.22 229.56,247.22 230.75,247.3 231.94,247.38 233.12,247.42 234.31,247.45 235.5,247.53 236.68,247.53 237.87,247.65 239.06,247.76 240.25,247.8 241.43,247.96 242.62,248 243.81,248.03 245,248.15 246.18,248.19 247.37,248.19 248.56,248.23 249.75,248.23 250.93,248.23 252.12,248.34 253.31,248.38 254.49,248.42 255.68,248.46 256.87,248.54 258.06,248.61 259.24,248.65 260.43,248.73 261.62,248.73 262.81,248.81 263.99,248.81 265.18,248.85 266.37,248.92 267.56,249 268.74,249.04 269.93,249.08 271.12,249.16 272.3,249.19 273.49,249.23 274.68,249.27 275.87,249.27 277.05,249.27 278.24,249.31 279.43,249.35 280.62,249.39 281.8,249.43 282.99,249.43 284.18,249.5 285.37,249.54 286.55,249.54 287.74,249.54 288.93,249.54 290.11,249.62 291.3,249.66 292.49,249.74 293.68,249.74 294.86,249.74 296.05,249.78 297.24,249.85 298.43,249.89 299.61,249.93 300.8,249.93 301.99,249.97 303.18,250.08 304.36,250.12 305.55,250.2 306.74,250.2 307.92,250.24 309.11,250.28 310.3,250.39 311.49,250.51 312.67,250.51 313.86,250.55 315.05,250.59 316.24,250.66 317.42,250.66 318.61,250.74 319.8,250.82 320.99,251.28 322.17,251.28 323.36,251.48 324.55,251.52 325.73,251.52 326.92,251.55 328.11,251.55 329.3,251.98 330.48,252.56 331.67,252.56 332.86,253.02 334.05,253.02 335.23,253.02 336.42,253.02 337.61,253.22 338.8,253.22 339.98,253.53 341.17,253.53 342.36,254.26 343.54,254.26 344.73,256.04 345.92,256.04 347.11,256.04 348.29,256.43 349.48,256.43 350.67,257.43 351.86,257.43 353.04,257.43 354.23,258.71 355.42,258.71 356.61,258.87 357.79,258.87 358.98,258.87 360.17,260.72 361.35,260.72 362.54,260.72 363.73,260.72 364.92,262.19 366.1,262.19 367.29,262.19 368.48,263.51 369.67,263.51 370.85,263.51 372.04,263.51 373.23,264.13 374.42,264.13 375.6,264.13 376.79,264.13 377.98,264.13"
                   stroke-miterlimit="1"
                   stroke-dasharray="none"
                   stroke-opacity="1"
                   stroke-linejoin="round"
                   stroke-linecap="butt"
                   stroke-width="3.2"
                   stroke="rgb(0,191,125)"
                   fill-opacity="1"
                   fill="none" />
                <polyline
                   id="GRID.polyline.1.1.6"
                   points="57.4,99.68 58.58,100.84 59.77,101.38 60.96,101.77 62.15,102.19 63.33,102.58 64.52,103 65.71,103.58 66.9,104.32 68.08,105.17 69.27,106.06 70.46,106.83 71.65,107.53 72.83,107.96 74.02,108.26 75.21,108.61 76.39,108.96 77.58,109.23 78.77,109.62 79.96,110.08 81.14,110.74 82.33,111.48 83.52,112.09 84.71,112.6 85.89,113.18 87.08,113.8 88.27,114.18 89.46,114.53 90.64,114.8 91.83,115.03 93.02,115.34 94.2,115.62 95.39,115.92 96.58,116.16 97.77,116.43 98.95,116.74 100.14,116.97 101.33,117.47 102.52,117.94 103.7,118.44 104.89,118.86 106.08,119.1 107.27,119.44 108.45,119.87 109.64,120.3 110.83,120.57 112.01,120.8 113.2,120.99 114.39,121.19 115.58,121.34 116.76,121.53 117.95,121.69 119.14,121.84 120.33,122 121.51,122.19 122.7,122.35 123.89,122.5 125.08,122.69 126.26,122.85 127.45,122.97 128.64,123.31 129.82,123.58 131.01,123.82 132.2,124.05 133.39,124.4 134.57,124.67 135.76,124.9 136.95,125.13 138.14,125.29 139.32,125.4 140.51,125.6 141.7,125.87 142.89,126.14 144.07,126.33 145.26,126.56 146.45,126.76 147.63,126.91 148.82,127.03 150.01,127.14 151.2,127.34 152.38,127.49 153.57,127.57 154.76,127.68 155.95,127.8 157.13,127.92 158.32,127.99 159.51,128.07 160.7,128.19 161.88,128.23 163.07,128.3 164.26,128.38 165.44,128.5 166.63,128.61 167.82,128.69 169.01,128.85 170.19,128.92 171.38,129 172.57,129.12 173.76,129.27 174.94,129.39 176.13,129.54 177.32,129.74 178.51,129.81 179.69,129.97 180.88,130.04 182.07,130.2 183.25,130.39 184.44,130.55 185.63,130.78 186.82,131.01 188,131.24 189.19,131.44 190.38,131.63 191.57,131.86 192.75,132.13 193.94,132.44 195.13,132.56 196.32,132.95 197.5,133.18 198.69,133.26 199.88,133.49 201.06,133.76 202.25,133.99 203.44,134.18 204.63,134.45 205.81,134.53 207,134.65 208.19,134.76 209.38,134.84 210.56,135 211.75,135.27 212.94,135.5 214.13,135.73 215.31,136.04 216.5,136.31 217.69,136.43 218.87,136.58 220.06,136.7 221.25,136.85 222.44,136.97 223.62,137.98 224.81,138.4 226,138.86 227.19,139.25 228.37,139.72 229.56,139.91 230.75,140.14 231.94,140.3 233.12,140.49 234.31,140.76 235.5,140.92 236.68,141.07 237.87,141.69 239.06,141.96 240.25,142.08 241.43,142.77 242.62,143.24 243.81,145.05 245,145.13 246.18,145.83 247.37,146.49 248.56,146.87 249.75,147.14 250.93,147.53 252.12,147.99 253.31,147.99 254.49,148.27 255.68,149.04 256.87,150.47 258.06,150.86 259.24,151.01 260.43,151.9 261.62,152.02 262.81,152.17 263.99,152.83 265.18,153.22 266.37,153.68 267.56,153.95 268.74,154.26 269.93,154.57 271.12,154.8 272.3,155.23 273.49,155.69 274.68,155.85 275.87,157.16 277.05,157.55 278.24,157.59 279.43,157.98 280.62,158.09 281.8,158.67 282.99,158.75 284.18,158.98 285.37,159.21 286.55,159.52 287.74,159.79 288.93,159.95 290.11,160.14 291.3,160.22 292.49,160.22 293.68,160.26 294.86,160.26 296.05,160.26 297.24,160.3 298.43,160.53 299.61,160.61 300.8,160.76 301.99,160.8 303.18,160.88 304.36,160.88 305.55,161.11 306.74,161.38 307.92,161.38 309.11,161.46 310.3,161.5 311.49,161.53 312.67,161.53 313.86,161.77 315.05,161.88 316.24,161.88 317.42,161.88 318.61,161.96 319.8,162.23 320.99,162.35 322.17,162.35 323.36,162.46 324.55,162.62 325.73,162.62 326.92,163 328.11,163 329.3,163.47 330.48,164.09 331.67,164.09 332.86,164.4 334.05,164.4 335.23,164.47 336.42,164.47 337.61,164.9 338.8,164.9 339.98,165.33 341.17,165.33 342.36,165.87 343.54,165.87 344.73,166.06 345.92,166.06 347.11,166.06 348.29,166.52 349.48,166.52 350.67,166.56 351.86,166.56 353.04,166.56 354.23,166.6 355.42,166.6 356.61,169.81 357.79,169.81 358.98,169.81 360.17,170.05 361.35,170.05 362.54,170.05 363.73,170.05 364.92,172.91 366.1,172.91 367.29,172.91 368.48,173.29 369.67,173.29 370.85,173.29 372.04,173.29 373.23,173.49 374.42,173.49 375.6,173.49 376.79,173.49 377.98,173.84"
                   stroke-miterlimit="1"
                   stroke-dasharray="none"
                   stroke-opacity="1"
                   stroke-linejoin="round"
                   stroke-linecap="butt"
                   stroke-width="3.2"
                   stroke="rgb(0,191,196)"
                   fill-opacity="1"
                   fill="none" />
                <polyline
                   id="GRID.polyline.1.1.7"
                   points="58.58,137.86 59.77,138.21 60.96,138.48 62.15,138.71 63.33,138.98 64.52,139.37 65.71,139.72 66.9,139.95 68.08,140.18 69.27,140.45 70.46,140.68 71.65,140.84 72.83,140.95 74.02,141.11 75.21,141.3 76.39,141.46 77.58,141.69 78.77,142 79.96,142.35 81.14,142.58 82.33,142.77 83.52,142.89 84.71,143 85.89,143.08 87.08,143.16 88.27,143.24 89.46,143.31 90.64,143.39 91.83,143.47 93.02,143.51 94.2,143.55 95.39,143.58 96.58,143.62 97.77,143.7 98.95,143.74 100.14,143.82 101.33,143.86 102.52,143.89 103.7,143.93 104.89,143.97 106.08,144.01 107.27,144.09 108.45,144.13 109.64,144.16 110.83,144.2 112.01,144.24 113.2,144.24 114.39,144.32 115.58,144.36 116.76,144.36 117.95,144.4 119.14,144.44 120.33,144.47 121.51,144.51 122.7,144.55 123.89,144.59 125.08,144.63 126.26,144.63 127.45,144.67 128.64,144.71 129.82,144.74 131.01,144.78 132.2,144.78 133.39,144.82 134.57,144.82 135.76,144.86 136.95,144.9 138.14,144.9 139.32,144.94 140.51,144.98 141.7,144.98 142.89,145.02 144.07,145.05 145.26,145.09 146.45,145.13 147.63,145.13 148.82,145.17 150.01,145.21 151.2,145.21 152.38,145.25 153.57,145.25 154.76,145.29 155.95,145.29 157.13,145.33 158.32,145.33 159.51,145.36 160.7,145.4 161.88,145.4 163.07,145.44 164.26,145.44 165.44,145.48 166.63,145.48 167.82,145.52 169.01,145.52 170.19,145.56 171.38,145.56 172.57,145.6 173.76,145.6 174.94,145.63 176.13,145.67 177.32,145.71 178.51,145.71 179.69,145.75 180.88,145.75 182.07,145.79 183.25,145.79 184.44,145.79 185.63,145.83 186.82,145.87 188,145.87 189.19,145.91 190.38,145.91 191.57,145.94 192.75,145.94 193.94,145.98 195.13,145.98 196.32,146.02 197.5,146.06 198.69,146.06 199.88,146.06 201.06,146.1 202.25,146.1 203.44,146.14 204.63,146.18 205.81,146.18 207,146.22 208.19,146.22 209.38,146.22 210.56,146.25 211.75,146.25 212.94,146.29 214.13,146.29 215.31,146.33 216.5,146.33 217.69,146.37 218.87,146.37 220.06,146.41 221.25,146.41 222.44,146.45 223.62,146.45 224.81,146.45 226,146.45 227.19,146.49 228.37,146.49 229.56,146.52 230.75,146.56 231.94,146.56 233.12,146.6 234.31,146.6 235.5,146.6 236.68,146.64 237.87,146.68 239.06,146.68 240.25,146.68 241.43,146.72 242.62,146.72 243.81,146.72 245,146.76 246.18,146.76 247.37,146.8 248.56,146.8 249.75,146.8 250.93,146.83 252.12,146.87 253.31,146.87 254.49,146.87 255.68,146.87 256.87,146.91 258.06,146.95 259.24,146.95 260.43,146.95 261.62,146.99 262.81,147.03 263.99,147.03 265.18,147.07 266.37,147.1 267.56,147.1 268.74,147.14 269.93,147.14 271.12,147.18 272.3,147.18 273.49,147.18 274.68,147.22 275.87,147.22 277.05,147.22 278.24,147.26 279.43,147.26 280.62,147.26 281.8,147.3 282.99,147.3 284.18,147.3 285.37,147.34 286.55,147.34 287.74,147.34 288.93,147.34 290.11,147.34 291.3,147.34 292.49,147.38 293.68,147.38 294.86,147.38 296.05,147.41 297.24,147.41 298.43,147.45 299.61,147.45 300.8,147.45 301.99,147.45 303.18,147.49 304.36,147.49 305.55,147.53 306.74,147.57 307.92,147.57 309.11,147.61 310.3,147.61 311.49,147.65 312.67,147.65 313.86,147.69 315.05,147.72 316.24,147.84 317.42,147.84 318.61,148.03 319.8,148.03 320.99,148.07 322.17,148.07 323.36,148.11 324.55,148.15 325.73,148.15 326.92,148.42 328.11,148.42 329.3,148.42 330.48,148.5 331.67,148.5 332.86,148.5 334.05,148.5 335.23,148.61 336.42,148.61 337.61,148.69 338.8,148.69 339.98,148.69 341.17,148.69 342.36,148.85 343.54,148.85 344.73,148.88 345.92,148.88 347.11,148.88 348.29,149 349.48,149 350.67,149.35 351.86,149.35 353.04,149.35 354.23,149.46 355.42,149.46 356.61,149.46 357.79,149.46 358.98,149.46 360.17,149.5 361.35,149.5 362.54,149.5 363.73,149.5 364.92,149.5 366.1,149.5 367.29,149.5 368.48,149.58 369.67,149.58 370.85,149.58 372.04,149.58 373.23,149.7 374.42,149.7 375.6,149.7 376.79,149.7 377.98,149.74"
                   stroke-miterlimit="1"
                   stroke-dasharray="none"
                   stroke-opacity="1"
                   stroke-linejoin="round"
                   stroke-linecap="butt"
                   stroke-width="3.2"
                   stroke="rgb(0,176,246)"
                   fill-opacity="1"
                   fill="none" />
                <polyline
                   id="GRID.polyline.1.1.8"
                   points="57.4,107.99 58.58,108.19 59.77,108.38 60.96,108.61 62.15,108.77 63.33,108.92 64.52,109.15 65.71,109.35 66.9,109.5 68.08,109.66 69.27,109.85 70.46,110.01 71.65,110.12 72.83,110.32 74.02,110.47 75.21,110.59 76.39,110.7 77.58,110.78 78.77,110.86 79.96,110.9 81.14,110.93 82.33,111.01 83.52,111.05 84.71,111.09 85.89,111.13 87.08,111.13 88.27,111.17 89.46,111.2 90.64,111.24 91.83,111.24 93.02,111.28 94.2,111.28 95.39,111.32 96.58,111.32 97.77,111.36 98.95,111.36 100.14,111.4 101.33,111.4 102.52,111.44 103.7,111.44 104.89,111.48 106.08,111.48 107.27,111.51 108.45,111.51 109.64,111.55 110.83,111.55 112.01,111.59 113.2,111.59 114.39,111.63 115.58,111.63 116.76,111.67 117.95,111.67 119.14,111.67 120.33,111.71 121.51,111.71 122.7,111.75 123.89,111.75 125.08,111.75 126.26,111.79 127.45,111.79 128.64,111.79 129.82,111.82 131.01,111.82 132.2,111.82 133.39,111.86 134.57,111.86 135.76,111.86 136.95,111.9 138.14,111.9 139.32,111.9 140.51,111.9 141.7,111.94 142.89,111.94 144.07,111.94 145.26,111.98 146.45,111.98 147.63,111.98 148.82,111.98 150.01,112.02 151.2,112.02 152.38,112.02 153.57,112.06 154.76,112.06 155.95,112.06 157.13,112.09 158.32,112.09 159.51,112.09 160.7,112.13 161.88,112.13 163.07,112.13 164.26,112.17 165.44,112.17 166.63,112.17 167.82,112.21 169.01,112.21 170.19,112.21 171.38,112.25 172.57,112.25 173.76,112.25 174.94,112.29 176.13,112.29 177.32,112.29 178.51,112.33 179.69,112.33 180.88,112.33 182.07,112.37 183.25,112.37 184.44,112.37 185.63,112.37 186.82,112.4 188,112.4 189.19,112.4 190.38,112.44 191.57,112.44 192.75,112.44 193.94,112.48 195.13,112.48 196.32,112.48 197.5,112.52 198.69,112.52 199.88,112.52 201.06,112.56 202.25,112.56 203.44,112.6 204.63,112.6 205.81,112.6 207,112.6 208.19,112.64 209.38,112.64 210.56,112.64 211.75,112.64 212.94,112.68 214.13,112.68 215.31,112.71 216.5,112.71 217.69,112.71 218.87,112.75 220.06,112.75 221.25,112.75 222.44,112.75 223.62,112.75 224.81,112.79 226,112.79 227.19,112.79 228.37,112.83 229.56,112.83 230.75,112.83 231.94,112.87 233.12,112.87 234.31,112.91 235.5,112.91 236.68,112.91 237.87,112.95 239.06,112.95 240.25,112.98 241.43,112.98 242.62,113.02 243.81,113.02 245,113.02 246.18,113.06 247.37,113.1 248.56,113.14 249.75,113.14 250.93,113.14 252.12,113.18 253.31,113.22 254.49,113.26 255.68,113.26 256.87,113.26 258.06,113.29 259.24,113.29 260.43,113.33 261.62,113.37 262.81,113.37 263.99,113.45 265.18,113.49 266.37,113.53 267.56,113.56 268.74,113.64 269.93,113.64 271.12,113.68 272.3,113.68 273.49,113.72 274.68,113.76 275.87,113.84 277.05,113.84 278.24,113.91 279.43,113.91 280.62,113.95 281.8,113.99 282.99,114.03 284.18,114.03 285.37,114.18 286.55,114.18 287.74,114.18 288.93,114.22 290.11,114.22 291.3,114.34 292.49,114.38 293.68,114.42 294.86,114.42 296.05,114.61 297.24,114.73 298.43,114.76 299.61,115.03 300.8,115.31 301.99,115.34 303.18,115.46 304.36,115.73 305.55,115.92 306.74,115.92 307.92,115.96 309.11,116 310.3,116.12 311.49,116.2 312.67,116.2 313.86,116.27 315.05,116.27 316.24,116.27 317.42,116.27 318.61,116.27 319.8,116.39 320.99,116.43 322.17,116.43 323.36,116.47 324.55,116.47 325.73,116.47 326.92,116.47 328.11,116.47 329.3,116.5 330.48,116.54 331.67,116.54 332.86,116.54 334.05,116.54 335.23,116.54 336.42,116.54 337.61,116.54 338.8,116.54 339.98,116.62 341.17,116.62 342.36,116.62 343.54,116.62 344.73,116.7 345.92,116.7 347.11,116.7 348.29,116.74 349.48,116.74 350.67,116.81 351.86,116.81 353.04,116.81 354.23,116.81 355.42,116.81 356.61,116.89 357.79,116.89 358.98,116.89 360.17,117.12 361.35,117.12 362.54,117.12 363.73,117.12 364.92,117.16 366.1,117.16 367.29,117.16 368.48,117.2 369.67,117.2 370.85,117.2 372.04,117.2 373.23,117.36 374.42,117.36 375.6,117.36 376.79,117.36 377.98,117.94"
                   stroke-miterlimit="1"
                   stroke-dasharray="none"
                   stroke-opacity="1"
                   stroke-linejoin="round"
                   stroke-linecap="butt"
                   stroke-width="3.2"
                   stroke="rgb(149,144,255)"
                   fill-opacity="1"
                   fill="none" />
                <polyline
                   id="GRID.polyline.1.1.9"
                   points="57.4,129.43 58.58,133.91 59.77,136.74 60.96,142.11 62.15,153.45 63.33,158.52 64.52,161.3 65.71,162.89 66.9,164.94 68.08,166.25 69.27,167.61 70.46,169.46 71.65,170.82 72.83,172.64 74.02,173.49 75.21,174.03 76.39,174.49 77.58,174.92 78.77,175.38 79.96,175.73 81.14,176.16 82.33,176.62 83.52,177.09 84.71,177.63 85.89,178.25 87.08,178.9 88.27,179.68 89.46,180.34 90.64,180.84 91.83,181.15 93.02,181.46 94.2,181.69 95.39,181.92 96.58,182.15 97.77,182.39 98.95,182.54 100.14,182.73 101.33,182.89 102.52,183.04 103.7,183.2 104.89,183.31 106.08,183.43 107.27,183.58 108.45,183.74 109.64,183.89 110.83,184.01 112.01,184.13 113.2,184.28 114.39,184.4 115.58,184.51 116.76,184.63 117.95,184.78 119.14,185.02 120.33,185.13 121.51,185.4 122.7,185.71 123.89,186.02 125.08,186.45 126.26,187.07 127.45,187.96 128.64,188.96 129.82,190.28 131.01,191.44 132.2,191.86 133.39,192.33 134.57,192.79 135.76,193.14 136.95,193.53 138.14,193.8 139.32,193.99 140.51,194.42 141.7,194.76 142.89,195.11 144.07,195.5 145.26,195.85 146.45,196.39 147.63,197.16 148.82,197.98 150.01,198.63 151.2,199.29 152.38,200.3 153.57,200.88 154.76,201.65 155.95,202.19 157.13,202.66 158.32,203.24 159.51,203.74 160.7,204.82 161.88,205.36 163.07,206.02 164.26,206.95 165.44,207.38 166.63,208.11 167.82,209.31 169.01,210.39 170.19,211.09 171.38,211.94 172.57,212.75 173.76,213.3 174.94,213.6 176.13,214.11 177.32,214.88 178.51,215.5 179.69,216.51 180.88,217.24 182.07,217.9 183.25,218.59 184.44,219.33 185.63,219.95 186.82,220.53 188,221.26 189.19,222.12 190.38,223.12 191.57,223.89 192.75,224.75 193.94,225.4 195.13,225.83 196.32,226.06 197.5,226.45 198.69,226.83 199.88,227.03 201.06,227.57 202.25,227.84 203.44,228.65 204.63,229.12 205.81,229.39 207,229.77 208.19,229.93 209.38,230.32 210.56,230.63 211.75,230.9 212.94,231.17 214.13,231.59 215.31,232.52 216.5,232.95 217.69,234.07 218.87,235 220.06,236.93 221.25,238.29 222.44,238.6 223.62,239.29 224.81,240.1 226,240.88 227.19,241.26 228.37,241.57 229.56,242.19 230.75,242.58 231.94,242.66 233.12,243.16 234.31,243.35 235.5,243.51 236.68,243.59 237.87,244.01 239.06,244.05 240.25,244.17 241.43,244.28 242.62,244.36 243.81,244.44 245,244.48 246.18,244.67 247.37,244.82 248.56,244.94 249.75,244.98 250.93,245.17 252.12,245.44 253.31,245.48 254.49,245.75 255.68,245.79 256.87,246.02 258.06,246.18 259.24,246.49 260.43,246.68 261.62,247.34 262.81,247.8 263.99,248.07 265.18,248.65 266.37,250.39 267.56,250.43 268.74,250.94 269.93,250.97 271.12,251.01 272.3,251.17 273.49,251.71 274.68,252.1 275.87,252.44 277.05,252.64 278.24,252.72 279.43,254.19 280.62,254.3 281.8,254.65 282.99,254.96 284.18,255.04 285.37,255.07 286.55,255.23 287.74,255.89 288.93,256.62 290.11,257.74 291.3,259.02 292.49,259.91 293.68,260.53 294.86,261.11 296.05,261.77 297.24,261.81 298.43,261.84 299.61,262 300.8,262.12 301.99,262.15 303.18,262.54 304.36,262.73 305.55,262.81 306.74,263.01 307.92,263.16 309.11,263.28 310.3,263.55 311.49,264.94 312.67,264.94 313.86,265.67 315.05,267.84 316.24,267.84 317.42,267.84 318.61,268.96 319.8,269.43 320.99,270.16 322.17,270.16 323.36,270.78 324.55,271.44 325.73,271.44 326.92,271.79 328.11,271.79 329.3,271.86 330.48,272.29 331.67,272.29 332.86,272.33 334.05,272.33 335.23,272.41 336.42,272.41 337.61,272.87 338.8,272.87 339.98,273.26 341.17,273.26 342.36,273.45 343.54,273.45 344.73,274.15 345.92,274.15 347.11,274.15 348.29,274.26 349.48,274.26 350.67,274.46 351.86,274.46 353.04,274.46 354.23,274.73 355.42,274.73 356.61,275 357.79,275 358.98,275 360.17,275.08 361.35,275.08 362.54,275.08 363.73,275.08 364.92,275.23 366.1,275.23 367.29,275.23 368.48,275.42 369.67,275.42 370.85,275.42 372.04,275.42 373.23,275.93 374.42,275.93 375.6,275.93 376.79,275.93 377.98,277.16"
                   stroke-miterlimit="1"
                   stroke-dasharray="none"
                   stroke-opacity="1"
                   stroke-linejoin="round"
                   stroke-linecap="butt"
                   stroke-width="3.2"
                   stroke="rgb(231,107,243)"
                   fill-opacity="1"
                   fill="none" />
                <polyline
                   id="GRID.polyline.1.1.10"
                   points="57.4,53.95 58.58,53.95 59.77,53.99 60.96,53.99 62.15,54.03 63.33,54.03 64.52,54.07 65.71,54.07 66.9,54.11 68.08,54.11 69.27,54.14 70.46,54.14 71.65,54.18 72.83,54.18 74.02,54.22 75.21,54.26 76.39,54.3 77.58,54.34 78.77,54.38 79.96,54.38 81.14,54.42 82.33,54.45 83.52,54.49 84.71,54.49 85.89,54.53 87.08,54.57 88.27,54.57 89.46,54.61 90.64,54.61 91.83,54.65 93.02,54.65 94.2,54.65 95.39,54.69 96.58,54.69 97.77,54.69 98.95,54.72 100.14,54.72 101.33,54.72 102.52,54.72 103.7,54.76 104.89,54.76 106.08,54.76 107.27,54.76 108.45,54.8 109.64,54.8 110.83,54.8 112.01,54.8 113.2,54.84 114.39,54.84 115.58,54.84 116.76,54.84 117.95,54.84 119.14,54.88 120.33,54.88 121.51,54.88 122.7,54.88 123.89,54.88 125.08,54.88 126.26,54.92 127.45,54.92 128.64,54.92 129.82,54.92 131.01,54.92 132.2,54.92 133.39,54.96 134.57,54.96 135.76,54.96 136.95,54.96 138.14,54.96 139.32,55 140.51,55 141.7,55 142.89,55 144.07,55 145.26,55 146.45,55.03 147.63,55.03 148.82,55.03 150.01,55.03 151.2,55.03 152.38,55.03 153.57,55.03 154.76,55.07 155.95,55.07 157.13,55.07 158.32,55.07 159.51,55.07 160.7,55.07 161.88,55.07 163.07,55.11 164.26,55.11 165.44,55.11 166.63,55.11 167.82,55.11 169.01,55.11 170.19,55.15 171.38,55.15 172.57,55.15 173.76,55.15 174.94,55.15 176.13,55.15 177.32,55.19 178.51,55.19 179.69,55.19 180.88,55.19 182.07,55.19 183.25,55.19 184.44,55.19 185.63,55.23 186.82,55.23 188,55.23 189.19,55.23 190.38,55.23 191.57,55.23 192.75,55.23 193.94,55.27 195.13,55.27 196.32,55.27 197.5,55.27 198.69,55.3 199.88,55.3 201.06,55.3 202.25,55.3 203.44,55.3 204.63,55.34 205.81,55.34 207,55.34 208.19,55.34 209.38,55.34 210.56,55.34 211.75,55.38 212.94,55.38 214.13,55.38 215.31,55.38 216.5,55.42 217.69,55.42 218.87,55.42 220.06,55.46 221.25,55.5 222.44,55.5 223.62,55.54 224.81,55.54 226,55.54 227.19,55.58 228.37,55.58 229.56,55.61 230.75,55.61 231.94,55.61 233.12,55.65 234.31,55.69 235.5,55.69 236.68,55.73 237.87,55.77 239.06,55.81 240.25,55.89 241.43,55.89 242.62,56 243.81,56.16 245,56.31 246.18,56.43 247.37,56.77 248.56,56.93 249.75,57.01 250.93,57.16 252.12,57.36 253.31,57.39 254.49,57.39 255.68,57.63 256.87,57.74 258.06,57.82 259.24,57.9 260.43,58.21 261.62,58.36 262.81,58.44 263.99,58.83 265.18,58.9 266.37,59.06 267.56,59.6 268.74,60.88 269.93,61.22 271.12,61.49 272.3,61.77 273.49,61.96 274.68,66.83 275.87,69.15 277.05,69.43 278.24,69.58 279.43,70.01 280.62,70.12 281.8,71.51 282.99,71.86 284.18,72.56 285.37,73.25 286.55,73.53 287.74,74.38 288.93,74.65 290.11,74.72 291.3,76.08 292.49,76.66 293.68,76.7 294.86,77.39 296.05,77.97 297.24,78.13 298.43,78.44 299.61,79.68 300.8,80.37 301.99,81.22 303.18,81.8 304.36,81.8 305.55,82.31 306.74,82.31 307.92,87.53 309.11,88.03 310.3,89.58 311.49,91.86 312.67,91.86 313.86,97.7 315.05,99.25 316.24,103.31 317.42,103.31 318.61,103.35 319.8,103.66 320.99,103.66 322.17,103.66 323.36,103.82 324.55,107.65 325.73,107.65 326.92,110.55 328.11,110.55 329.3,111.05 330.48,111.36 331.67,111.36 332.86,111.55 334.05,111.55 335.23,111.82 336.42,111.82 337.61,112.64 338.8,112.64 339.98,115.23 341.17,115.23 342.36,115.5 343.54,115.5 344.73,115.69 345.92,115.69 347.11,115.69 348.29,117.67 349.48,117.67 350.67,119.52 351.86,119.52 353.04,119.52 354.23,121.3 355.42,121.3 356.61,121.34 357.79,121.34 358.98,121.34 360.17,122.58 361.35,122.58 362.54,122.58 363.73,122.58 364.92,122.93 366.1,122.93 367.29,122.93 368.48,126.72 369.67,126.72 370.85,126.72 372.04,126.72 373.23,126.91 374.42,126.91 375.6,126.91 376.79,126.91 377.98,127.14"
                   stroke-miterlimit="1"
                   stroke-dasharray="none"
                   stroke-opacity="1"
                   stroke-linejoin="round"
                   stroke-linecap="butt"
                   stroke-width="3.2"
                   stroke="rgb(255,98,188)"
                   fill-opacity="1"
                   fill="none" />
              </g>
            </g>
          </g>
          <g
             id="layout::spacer.7-5-7-5.1" />
          <g
             id="layout::spacer.7-3-7-3.1" />
          <g
             id="layout::spacer.5-5-5-5.1" />
          <g
             id="layout::spacer.5-3-5-3.1" />
          <g
             id="layout::axis-t.5-4-5-4.1" />
          <g
             id="layout::axis-l.6-3-6-3.1">
            <g
               id="layout::axis-l.6-3-6-3::GRID.VP.10.1">
              <g
                 id="axis-l.6-3-6-3.1">
                <g
                   id="layout::axis-l.6-3-6-3::GRID.VP.10::axis.1">
                  <g
                     id="axis.1">
                    <g
                       id="layout::axis-l.6-3-6-3::GRID.VP.10::axis::axis.1-1-1-1.1">
                      <g
                         id="layout::axis-l.6-3-6-3::GRID.VP.10::axis::axis.1-1-1-1::GRID.VP.8.1"
                         font-size="8.8"
                         font-weight="normal"
                         font-style="normal"
                         font-family="Helvetica, Arial, FreeSans, Liberation Sans, Nimbus Sans L, sans-serif"
                         stroke-opacity="1"
                         stroke="rgb(77,77,77)">
                        <g
                           id="layout::axis-l.6-3-6-3::GRID.VP.10::axis::axis.1-1-1-1::GRID.VP.8::GRID.VP.9.1">
                          <g
                             id="axis.1-1-1-1.1">
                            <g
                               id="GRID.text.28.1">
                              <g
                                 id="GRID.text.28.1.1"
                                 transform="translate(36.44, 32.36)"
                                 stroke-width="0.1">
                                <g
                                   id="GRID.text.28.1.1.scale"
                                   transform="scale(1, -1)">
                                <text
                                   x="0"
                                   y="0"
                                   id="GRID.text.28.1.1.text"
                                   font-size="8.8"
                                   font-weight="normal"
                                   font-style="normal"
                                   text-anchor="end"
                                   font-family="Helvetica, Arial, FreeSans, Liberation Sans, Nimbus Sans L, sans-serif"
                                   stroke-opacity="1"
                                   stroke="rgb(77,77,77)"
                                   fill-opacity="1"
                                   fill="rgb(77,77,77)">
                                <tspan
                                   id="GRID.text.28.1.1.tspan.1"
                                   dy="3.23"
                                   x="0">0</tspan>
                                </text>
                                </g>
                              </g>
                              <g
                                 id="GRID.text.28.1.2"
                                 transform="translate(36.44, 148.42)"
                                 stroke-width="0.1">
                                <g
                                   id="GRID.text.28.1.2.scale"
                                   transform="scale(1, -1)">
                                <text
                                   x="0"
                                   y="0"
                                   id="GRID.text.28.1.2.text"
                                   font-size="8.8"
                                   font-weight="normal"
                                   font-style="normal"
                                   text-anchor="end"
                                   font-family="Helvetica, Arial, FreeSans, Liberation Sans, Nimbus Sans L, sans-serif"
                                   stroke-opacity="1"
                                   stroke="rgb(77,77,77)"
                                   fill-opacity="1"
                                   fill="rgb(77,77,77)">
                                <tspan
                                   id="GRID.text.28.1.2.tspan.1"
                                   dy="3.23"
                                   x="0">30</tspan>
                                </text>
                                </g>
                              </g>
                              <g
                                 id="GRID.text.28.1.3"
                                 transform="translate(36.44, 264.48)"
                                 stroke-width="0.1">
                                <g
                                   id="GRID.text.28.1.3.scale"
                                   transform="scale(1, -1)">
                                <text
                                   x="0"
                                   y="0"
                                   id="GRID.text.28.1.3.text"
                                   font-size="8.8"
                                   font-weight="normal"
                                   font-style="normal"
                                   text-anchor="end"
                                   font-family="Helvetica, Arial, FreeSans, Liberation Sans, Nimbus Sans L, sans-serif"
                                   stroke-opacity="1"
                                   stroke="rgb(77,77,77)"
                                   fill-opacity="1"
                                   fill="rgb(77,77,77)">
                                <tspan
                                   id="GRID.text.28.1.3.tspan.1"
                                   dy="3.23"
                                   x="0">60</tspan>
                                </text>
                                </g>
                              </g>
                              <g
                                 id="GRID.text.28.1.4"
                                 transform="translate(36.44, 380.53)"
                                 stroke-width="0.1">
                                <g
                                   id="GRID.text.28.1.4.scale"
                                   transform="scale(1, -1)">
                                <text
                                   x="0"
                                   y="0"
                                   id="GRID.text.28.1.4.text"
                                   font-size="8.8"
                                   font-weight="normal"
                                   font-style="normal"
                                   text-anchor="end"
                                   font-family="Helvetica, Arial, FreeSans, Liberation Sans, Nimbus Sans L, sans-serif"
                                   stroke-opacity="1"
                                   stroke="rgb(77,77,77)"
                                   fill-opacity="1"
                                   fill="rgb(77,77,77)">
                                <tspan
                                   id="GRID.text.28.1.4.tspan.1"
                                   dy="3.23"
                                   x="0">90</tspan>
                                </text>
                                </g>
                              </g>
                              <g
                                 id="GRID.text.28.1.5"
                                 transform="translate(36.44, 496.59)"
                                 stroke-width="0.1">
                                <g
                                   id="GRID.text.28.1.5.scale"
                                   transform="scale(1, -1)">
                                <text
                                   x="0"
                                   y="0"
                                   id="GRID.text.28.1.5.text"
                                   font-size="8.8"
                                   font-weight="normal"
                                   font-style="normal"
                                   text-anchor="end"
                                   font-family="Helvetica, Arial, FreeSans, Liberation Sans, Nimbus Sans L, sans-serif"
                                   stroke-opacity="1"
                                   stroke="rgb(77,77,77)"
                                   fill-opacity="1"
                                   fill="rgb(77,77,77)">
                                <tspan
                                   id="GRID.text.28.1.5.tspan.1"
                                   dy="3.23"
                                   x="0">120</tspan>
                                </text>
                                </g>
                              </g>
                            </g>
                          </g>
                        </g>
                      </g>
                    </g>
                    <g
                       id="layout::axis-l.6-3-6-3::GRID.VP.10::axis::axis.1-2-1-2.1" />
                  </g>
                </g>
              </g>
            </g>
          </g>
          <g
             id="layout::axis-r.6-5-6-5.1" />
          <g
             id="layout::axis-b.7-4-7-4.1">
            <g
               id="layout::axis-b.7-4-7-4::GRID.VP.7.1">
              <g
                 id="axis-b.7-4-7-4.1">
                <g
                   id="layout::axis-b.7-4-7-4::GRID.VP.7::axis.1">
                  <g
                     id="axis.2">
                    <g
                       id="layout::axis-b.7-4-7-4::GRID.VP.7::axis::axis.1-1-1-1.1" />
                    <g
                       id="layout::axis-b.7-4-7-4::GRID.VP.7::axis::axis.2-1-2-1.1">
                      <g
                         id="layout::axis-b.7-4-7-4::GRID.VP.7::axis::axis.2-1-2-1::GRID.VP.5.1"
                         font-size="8.8"
                         font-weight="normal"
                         font-style="normal"
                         font-family="Helvetica, Arial, FreeSans, Liberation Sans, Nimbus Sans L, sans-serif"
                         stroke-opacity="1"
                         stroke="rgb(77,77,77)">
                        <g
                           id="layout::axis-b.7-4-7-4::GRID.VP.7::axis::axis.2-1-2-1::GRID.VP.5::GRID.VP.6.1">
                          <g
                             id="axis.2-1-2-1.1">
                            <g
                               id="GRID.text.22.1">
                              <g
                                 id="GRID.text.22.1.1"
                                 transform="translate(57.4, 25.5)"
                                 stroke-width="0.1">
                                <g
                                   id="GRID.text.22.1.1.scale"
                                   transform="scale(1, -1)">
                                <text
                                   x="0"
                                   y="0"
                                   id="GRID.text.22.1.1.text"
                                   font-size="8.8"
                                   font-weight="normal"
                                   font-style="normal"
                                   text-anchor="middle"
                                   font-family="Helvetica, Arial, FreeSans, Liberation Sans, Nimbus Sans L, sans-serif"
                                   stroke-opacity="1"
                                   stroke="rgb(77,77,77)"
                                   fill-opacity="1"
                                   fill="rgb(77,77,77)">
                                <tspan
                                   id="GRID.text.22.1.1.tspan.1"
                                   dy="6.46"
                                   x="0">50</tspan>
                                </text>
                                </g>
                              </g>
                              <g
                                 id="GRID.text.22.1.2"
                                 transform="translate(140.51, 25.5)"
                                 stroke-width="0.1">
                                <g
                                   id="GRID.text.22.1.2.scale"
                                   transform="scale(1, -1)">
                                <text
                                   x="0"
                                   y="0"
                                   id="GRID.text.22.1.2.text"
                                   font-size="8.8"
                                   font-weight="normal"
                                   font-style="normal"
                                   text-anchor="middle"
                                   font-family="Helvetica, Arial, FreeSans, Liberation Sans, Nimbus Sans L, sans-serif"
                                   stroke-opacity="1"
                                   stroke="rgb(77,77,77)"
                                   fill-opacity="1"
                                   fill="rgb(77,77,77)">
                                <tspan
                                   id="GRID.text.22.1.2.tspan.1"
                                   dy="6.46"
                                   x="0">90</tspan>
                                </text>
                                </g>
                              </g>
                              <g
                                 id="GRID.text.22.1.3"
                                 transform="translate(259.24, 25.5)"
                                 stroke-width="0.1">
                                <g
                                   id="GRID.text.22.1.3.scale"
                                   transform="scale(1, -1)">
                                <text
                                   x="0"
                                   y="0"
                                   id="GRID.text.22.1.3.text"
                                   font-size="8.8"
                                   font-weight="normal"
                                   font-style="normal"
                                   text-anchor="middle"
                                   font-family="Helvetica, Arial, FreeSans, Liberation Sans, Nimbus Sans L, sans-serif"
                                   stroke-opacity="1"
                                   stroke="rgb(77,77,77)"
                                   fill-opacity="1"
                                   fill="rgb(77,77,77)">
                                <tspan
                                   id="GRID.text.22.1.3.tspan.1"
                                   dy="6.46"
                                   x="0">99</tspan>
                                </text>
                                </g>
                              </g>
                              <g
                                 id="GRID.text.22.1.4"
                                 transform="translate(377.98, 25.5)"
                                 stroke-width="0.1">
                                <g
                                   id="GRID.text.22.1.4.scale"
                                   transform="scale(1, -1)">
                                <text
                                   x="0"
                                   y="0"
                                   id="GRID.text.22.1.4.text"
                                   font-size="8.8"
                                   font-weight="normal"
                                   font-style="normal"
                                   text-anchor="middle"
                                   font-family="Helvetica, Arial, FreeSans, Liberation Sans, Nimbus Sans L, sans-serif"
                                   stroke-opacity="1"
                                   stroke="rgb(77,77,77)"
                                   fill-opacity="1"
                                   fill="rgb(77,77,77)">
                                <tspan
                                   id="GRID.text.22.1.4.tspan.1"
                                   dy="6.46"
                                   x="0">99.9</tspan>
                                </text>
                                </g>
                              </g>
                            </g>
                          </g>
                        </g>
                      </g>
                    </g>
                  </g>
                </g>
              </g>
            </g>
          </g>
          <g
             id="layout::xlab-t.4-4-4-4.1" />
          <g
             id="layout::xlab-b.8-4-8-4.1">
            <g
               id="layout::xlab-b.8-4-8-4::GRID.VP.1.1"
               font-size="11"
               font-weight="normal"
               font-style="normal"
               font-family="Helvetica, Arial, FreeSans, Liberation Sans, Nimbus Sans L, sans-serif"
               stroke-opacity="1"
               stroke="rgb(0,0,0)">
              <g
                 id="layout::xlab-b.8-4-8-4::GRID.VP.1::GRID.VP.2.1">
                <g
                   id="xlab-b.8-4-8-4.1">
                  <g
                     id="GRID.text.16.1">
                    <g
                       id="GRID.text.16.1.1"
                       transform="translate(217.69, 13.56)"
                       stroke-width="0.1">
                      <g
                         id="GRID.text.16.1.1.scale"
                         transform="scale(1, -1)">
                        <text
                           x="0"
                           y="0"
                           id="GRID.text.16.1.1.text"
                           font-size="11"
                           font-weight="normal"
                           font-style="normal"
                           text-anchor="middle"
                           font-family="Helvetica, Arial, FreeSans, Liberation Sans, Nimbus Sans L, sans-serif"
                           stroke-opacity="1"
                           stroke="rgb(0,0,0)"
                           fill-opacity="1"
                           fill="rgb(0,0,0)">
                          <tspan
                             id="GRID.text.16.1.1.tspan.1"
                             dy="7.9"
                             x="0">Percentile</tspan>
                        </text>
                      </g>
                    </g>
                  </g>
                </g>
              </g>
            </g>
          </g>
          <g
             id="layout::ylab-l.6-2-6-2.1">
            <g
               id="layout::ylab-l.6-2-6-2::GRID.VP.3.1"
               font-size="11"
               font-weight="normal"
               font-style="normal"
               font-family="Helvetica, Arial, FreeSans, Liberation Sans, Nimbus Sans L, sans-serif"
               stroke-opacity="1"
               stroke="rgb(0,0,0)">
              <g
                 id="layout::ylab-l.6-2-6-2::GRID.VP.3::GRID.VP.4.1">
                <g
                   id="ylab-l.6-2-6-2.1">
                  <g
                     id="GRID.text.19.1">
                    <g
                       id="GRID.text.19.1.1"
                       transform="translate(5.48, 264.48)"
                       stroke-width="0.1">
                      <g
                         id="GRID.text.19.1.1.scale"
                         transform="scale(1, -1)">
                        <text
                           x="0"
                           y="0"
                           id="GRID.text.19.1.1.text"
                           transform="rotate(-90)"
                           font-size="11"
                           font-weight="normal"
                           font-style="normal"
                           text-anchor="middle"
                           font-family="Helvetica, Arial, FreeSans, Liberation Sans, Nimbus Sans L, sans-serif"
                           stroke-opacity="1"
                           stroke="rgb(0,0,0)"
                           fill-opacity="1"
                           fill="rgb(0,0,0)">
                          <tspan
                             id="GRID.text.19.1.1.tspan.1"
                             dy="7.9"
                             x="0">Latency (ms)</tspan>
                        </text>
                      </g>
                    </g>
                  </g>
                </g>
              </g>
            </g>
          </g>
          <g
             id="layout::ylab-r.6-6-6-6.1" />
          <g
             id="layout::subtitle.3-4-3-4.1" />
          <g
             id="layout::title.2-4-2-4.1" />
          <g
             id="layout::caption.9-4-9-4.1" />
          <text
             xml:space="preserve"
             style="font-style:normal;font-weight:normal;font-size:15px;line-height:125%;font-family:Helvetica, Arial, FreeSans, 'Liberation Sans', 'Nimbus Sans L', sans-serif;letter-spacing:0px;word-spacing:0px;fill:#000000;fill-opacity:1;stroke:none;stroke-width:1px;stroke-linecap:butt;stroke-linejoin:miter;stroke-opacity:1;-inkscape-font-specification:'Helvetica, Arial, FreeSans, Liberation Sans, Nimbus Sans L, sans-serif, Normal';font-stretch:normal;font-variant:normal;text-anchor:start;text-align:start;writing-mode:lr;"
             x="384.94189"
             y="-275.28259"
             id="text3898"
             sodipodi:linespacing="125%"
             transform="scale(1,-1)"><tspan
               sodipodi:role="line"
               id="tspan3902"></tspan></text>
          <text
             xml:space="preserve"
             style="font-style:normal;font-weight:normal;font-size:40px;line-height:125%;font-family:sans-serif;letter-spacing:0px;word-spacing:0px;fill:#000000;fill-opacity:1;stroke:none;stroke-width:1px;stroke-linecap:butt;stroke-linejoin:miter;stroke-opacity:1"
             x="384.18561"
             y="-276.79514"
             id="text3904"
             sodipodi:linespacing="125%"
             transform="scale(1,-1)"><tspan
               sodipodi:role="line"
               id="tspan3906"
               x="384.18561"
               y="-276.79514" /></text>
          <text
             xml:space="preserve"
             style="font-style:normal;font-weight:normal;font-size:15px;line-height:125%;font-family:sans-serif;letter-spacing:0px;word-spacing:0px;fill:#e76bf3;fill-opacity:1;stroke:none;stroke-width:1px;stroke-linecap:butt;stroke-linejoin:miter;stroke-opacity:1;-inkscape-font-specification:'sans-serif, Normal';font-stretch:normal;font-variant:normal;text-anchor:start;text-align:start;writing-mode:lr;"
             x="384.94189"
             y="-277.55142"
             id="text3908"
             sodipodi:linespacing="125%"
             transform="scale(1,-1)"><tspan
               sodipodi:role="line"
               id="tspan3971">st</tspan></text>
          <text
             xml:space="preserve"
             style="font-style:normal;font-variant:normal;font-weight:normal;font-stretch:normal;font-size:12.5px;line-height:125%;font-family:sans-serif;-inkscape-font-specification:'sans-serif, Normal';text-align:start;letter-spacing:0px;word-spacing:0px;writing-mode:lr-tb;text-anchor:start;fill:#000000;fill-opacity:1;stroke:none;stroke-width:1px;stroke-linecap:butt;stroke-linejoin:miter;stroke-opacity:1"
             x="384.18561"
             y="-263.93854"
             id="text3912"
             sodipodi:linespacing="125%"
             transform="scale(1,-1)"><tspan
               sodipodi:role="line"
               id="tspan3914"
               x="384.18561"
               y="-263.93854" /></text>
          <text
             xml:space="preserve"
             style="font-style:normal;font-variant:normal;font-weight:normal;font-stretch:normal;font-size:12.5px;line-height:125%;font-family:sans-serif;-inkscape-font-specification:'sans-serif, Normal';text-align:start;letter-spacing:0px;word-spacing:0px;writing-mode:lr-tb;text-anchor:start;fill:#00bf7d;fill-opacity:1;stroke:none;stroke-width:1px;stroke-linecap:butt;stroke-linejoin:miter;stroke-opacity:1;"
             x="385.69815"
             y="-263.18225"
             id="text3916"
             sodipodi:linespacing="125%"
             transform="scale(1,-1)"><tspan
               sodipodi:role="line"
               id="tspan3918"
               x="385.69815"
               y="-263.18225">iTerm2</tspan></text>
          <text
             xml:space="preserve"
             style="font-style:normal;font-variant:normal;font-weight:normal;font-stretch:normal;font-size:12.5px;line-height:125%;font-family:sans-serif;-inkscape-font-specification:'sans-serif, Normal';text-align:start;letter-spacing:0px;word-spacing:0px;writing-mode:lr-tb;text-anchor:start;fill:#39b600;fill-opacity:1;stroke:none;stroke-width:1px;stroke-linecap:butt;stroke-linejoin:miter;stroke-opacity:1;"
             x="384.94189"
             y="-218.56229"
             id="text3920"
             sodipodi:linespacing="125%"
             transform="scale(1,-1)"><tspan
               sodipodi:role="line"
               id="tspan3922"
               x="384.94189"
               y="-218.56229">Hyper</tspan></text>
          <text
             xml:space="preserve"
             style="font-style:normal;font-variant:normal;font-weight:normal;font-stretch:normal;font-size:12.5px;line-height:125%;font-family:sans-serif;-inkscape-font-specification:'sans-serif, Normal';text-align:start;letter-spacing:0px;word-spacing:0px;writing-mode:lr-tb;text-anchor:start;fill:#00bfc4;fill-opacity:1;stroke:none;stroke-width:1px;stroke-linecap:butt;stroke-linejoin:miter;stroke-opacity:1;"
             x="385.69815"
             y="-179.23621"
             id="text3924"
             sodipodi:linespacing="125%"
             transform="scale(1,-1)"><tspan
               sodipodi:role="line"
               id="tspan3926"
               x="385.69815"
               y="-179.23621">Linux alacritty</tspan></text>
          <text
             xml:space="preserve"
             style="font-style:normal;font-variant:normal;font-weight:normal;font-stretch:normal;font-size:12.5px;line-height:125%;font-family:sans-serif;-inkscape-font-specification:'sans-serif, Normal';text-align:start;letter-spacing:0px;word-spacing:0px;writing-mode:lr-tb;text-anchor:start;fill:#f8766d;fill-opacity:1;stroke:none;stroke-width:1px;stroke-linecap:butt;stroke-linejoin:miter;stroke-opacity:1;"
             x="385.69815"
             y="-164.86703"
             id="text3928"
             sodipodi:linespacing="125%"
             transform="scale(1,-1)"><tspan
               sodipodi:role="line"
               id="tspan3930"
               x="385.69815"
               y="-164.86703">alacritty</tspan></text>
          <text
             xml:space="preserve"
             style="font-style:normal;font-variant:normal;font-weight:normal;font-stretch:normal;font-size:12.5px;line-height:125%;font-family:sans-serif;-inkscape-font-specification:'sans-serif, Normal';text-align:start;letter-spacing:0px;word-spacing:0px;writing-mode:lr-tb;text-anchor:start;fill:#00b0f6;fill-opacity:1;stroke:none;stroke-width:1px;stroke-linecap:butt;stroke-linejoin:miter;stroke-opacity:1;"
             x="384.94189"
             y="-147.47281"
             id="text3932"
             sodipodi:linespacing="125%"
             transform="scale(1,-1)"><tspan
               sodipodi:role="line"
               id="tspan3934"
               x="384.94189"
               y="-147.47281">Linux st</tspan></text>
          <text
             xml:space="preserve"
             style="font-style:normal;font-variant:normal;font-weight:normal;font-stretch:normal;font-size:12.5px;line-height:125%;font-family:sans-serif;-inkscape-font-specification:'sans-serif, Normal';text-align:start;letter-spacing:0px;word-spacing:0px;writing-mode:lr-tb;text-anchor:start;fill:#a3a500;fill-opacity:1;stroke:none;stroke-width:1px;stroke-linecap:butt;stroke-linejoin:miter;stroke-opacity:1;"
             x="384.94189"
             y="-135.3725"
             id="text3955"
             sodipodi:linespacing="125%"
             transform="scale(1,-1)"><tspan
               sodipodi:role="line"
               id="tspan3957"
               x="384.94189"
               y="-135.3725">emacs-term</tspan></text>
          <text
             xml:space="preserve"
             style="font-style:normal;font-variant:normal;font-weight:normal;font-stretch:normal;font-size:12.5px;line-height:125%;font-family:sans-serif;-inkscape-font-specification:'sans-serif, Normal';text-align:start;letter-spacing:0px;word-spacing:0px;writing-mode:lr-tb;text-anchor:start;fill:#ff62bc;fill-opacity:1;stroke:none;stroke-width:1px;stroke-linecap:butt;stroke-linejoin:miter;stroke-opacity:1;"
             x="385.69815"
             y="-122.51587"
             id="text3959"
             sodipodi:linespacing="125%"
             transform="scale(1,-1)"><tspan
               sodipodi:role="line"
               id="tspan3961"
               x="385.69815"
               y="-122.51587">terminal.app</tspan></text>
          <text
             xml:space="preserve"
             style="font-style:normal;font-variant:normal;font-weight:normal;font-stretch:normal;font-size:12.5px;line-height:125%;font-family:sans-serif;-inkscape-font-specification:'sans-serif, Normal';text-align:start;letter-spacing:0px;word-spacing:0px;writing-mode:lr-tb;text-anchor:start;fill:#9590ff;fill-opacity:1;stroke:none;stroke-width:1px;stroke-linecap:butt;stroke-linejoin:miter;stroke-opacity:1;"
             x="386.45441"
             y="-107.39047"
             id="text3963"
             sodipodi:linespacing="125%"
             transform="scale(1,-1)"><tspan
               sodipodi:role="line"
               id="tspan3965"
               x="386.45441"
               y="-107.39047">Linux st</tspan></text>
          <text
             xml:space="preserve"
             style="font-style:normal;font-variant:normal;font-weight:normal;font-stretch:normal;font-size:12.5px;line-height:125%;font-family:sans-serif;-inkscape-font-specification:'sans-serif, Normal';text-align:start;letter-spacing:0px;word-spacing:0px;writing-mode:lr-tb;text-anchor:start;fill:#d89000;fill-opacity:1;stroke:none;stroke-width:1px;stroke-linecap:butt;stroke-linejoin:miter;stroke-opacity:1;"
             x="385.69815"
             y="-93.021332"
             id="text3967"
             sodipodi:linespacing="125%"
             transform="scale(1,-1)"><tspan
               sodipodi:role="line"
               id="tspan3969"
               x="385.69815"
               y="-93.021332">emacs-eshell</tspan></text>
        </g>
      </g>
    </g>
  </g>
</svg>
