<?xml version="1.0" encoding="UTF-8" standalone="no"?>
<svg
   xmlns:gridsvg="http://www.stat.auckland.ac.nz/~paul/R/gridSVG/"
   xmlns:dc="http://purl.org/dc/elements/1.1/"
   xmlns:cc="http://creativecommons.org/ns#"
   xmlns:rdf="http://www.w3.org/1999/02/22-rdf-syntax-ns#"
   xmlns:svg="http://www.w3.org/2000/svg"
   xmlns="http://www.w3.org/2000/svg"
   xmlns:sodipodi="http://sodipodi.sourceforge.net/DTD/sodipodi-0.dtd"
   xmlns:inkscape="http://www.inkscape.org/namespaces/inkscape"
   width="504px"
   height="504px"
   viewBox="0 0 504 504"
   version="1.1"
   id="svg5949"
   inkscape:version="0.91 r13725"
   sodipodi:docname="loaded-terminal-latency.svg">
  <defs
     id="defs6208" />
  <sodipodi:namedview
     pagecolor="#ffffff"
     bordercolor="#666666"
     borderopacity="1"
     objecttolerance="10"
     gridtolerance="10"
     guidetolerance="10"
     inkscape:pageopacity="0"
     inkscape:pageshadow="2"
     inkscape:window-width="640"
     inkscape:window-height="480"
     id="namedview6206"
     showgrid="false"
     inkscape:zoom="1.3244222"
     inkscape:cx="554.01849"
     inkscape:cy="252"
     inkscape:window-x="0"
     inkscape:window-y="0"
     inkscape:window-maximized="0"
     inkscape:current-layer="layout::guide-box.6-8-6-8.1" />
  <metadata
     id="metadata5951">
    <gridsvg:generator
       name="gridSVG"
       version="1.5-1"
       time="2017-07-17 18:33:54" />
    <gridsvg:argument
       name="name"
       value="loaded-terminal-latency.svg" />
    <gridsvg:argument
       name="exportCoords"
       value="none" />
    <gridsvg:argument
       name="exportMappings"
       value="none" />
    <gridsvg:argument
       name="exportJS"
       value="none" />
    <gridsvg:argument
       name="res"
       value="72" />
    <gridsvg:argument
       name="prefix"
       value="" />
    <gridsvg:argument
       name="addClasses"
       value="FALSE" />
    <gridsvg:argument
       name="indent"
       value="TRUE" />
    <gridsvg:argument
       name="htmlWrapper"
       value="FALSE" />
    <gridsvg:argument
       name="usePaths"
       value="vpPaths" />
    <gridsvg:argument
       name="uniqueNames"
       value="TRUE" />
    <gridsvg:separator
       name="id.sep"
       value="." />
    <gridsvg:separator
       name="gPath.sep"
       value="::" />
    <gridsvg:separator
       name="vpPath.sep"
       value="::" />
    <rdf:RDF>
      <cc:Work
         rdf:about="">
        <dc:format>image/svg+xml</dc:format>
        <dc:type
           rdf:resource="http://purl.org/dc/dcmitype/StillImage" />
      </cc:Work>
    </rdf:RDF>
  </metadata>
  <g
     transform="translate(0, 504) scale(1, -1)"
     id="g5953">
    <g
       id="gridSVG"
       fill="none"
       stroke="rgb(0,0,0)"
       stroke-dasharray="none"
       stroke-width="0.75"
       font-size="12"
       font-family="Helvetica, Arial, FreeSans, Liberation Sans, Nimbus Sans L, sans-serif"
       opacity="1"
       stroke-linecap="round"
       stroke-linejoin="round"
       stroke-miterlimit="10"
       stroke-opacity="1"
       fill-opacity="0"
       font-weight="normal"
       font-style="normal">
      <g
         id="layout.1">
        <g
           id="layout.2">
          <defs
             id="defs5958">
            <clipPath
               id="layout::background.1-9-10-1.1.clipPath">
              <rect
                 x="0"
                 y="0"
                 width="504"
                 height="504"
                 fill="none"
                 stroke="none"
                 id="rect5961" />
            </clipPath>
          </defs>
          <g
             id="layout::background.1-9-10-1.1"
             clip-path="url(#layout::background.1-9-10-1.1.clipPath)" />
          <defs
             id="defs5964">
            <clipPath
               id="layout::panel.6-4-6-4.1.clipPath">
              <rect
                 x="41.37"
                 y="30.43"
                 width="352.64"
                 height="468.09"
                 fill="none"
                 stroke="none"
                 id="rect5967" />
            </clipPath>
          </defs>
          <g
             id="layout::panel.6-4-6-4.1"
             clip-path="url(#layout::panel.6-4-6-4.1.clipPath)">
            <g
               id="panel.6-4-6-4.1">
              <g
                 id="grill.gTree.130.1">
                <g
                   id="panel.grid.minor.y..polyline.123.1">
                  <polyline
                     id="panel.grid.minor.y..polyline.123.1.1"
                     points="41.37,90.39 394.01,90.39"
                     stroke-width="0.53"
                     stroke="rgb(235,235,235)"
                     stroke-dasharray="none"
                     stroke-linecap="butt"
                     stroke-opacity="1"
                     fill="none" />
                  <polyline
                     id="panel.grid.minor.y..polyline.123.1.2"
                     points="41.37,206.45 394.01,206.45"
                     stroke-width="0.53"
                     stroke="rgb(235,235,235)"
                     stroke-dasharray="none"
                     stroke-linecap="butt"
                     stroke-opacity="1"
                     fill="none" />
                  <polyline
                     id="panel.grid.minor.y..polyline.123.1.3"
                     points="41.37,322.5 394.01,322.5"
                     stroke-width="0.53"
                     stroke="rgb(235,235,235)"
                     stroke-dasharray="none"
                     stroke-linecap="butt"
                     stroke-opacity="1"
                     fill="none" />
                  <polyline
                     id="panel.grid.minor.y..polyline.123.1.4"
                     points="41.37,438.56 394.01,438.56"
                     stroke-width="0.53"
                     stroke="rgb(235,235,235)"
                     stroke-dasharray="none"
                     stroke-linecap="butt"
                     stroke-opacity="1"
                     fill="none" />
                </g>
                <g
                   id="panel.grid.minor.x..polyline.125.1">
                  <polyline
                     id="panel.grid.minor.x..polyline.125.1.1"
                     points="98.95,30.43 98.95,498.52"
                     stroke-width="0.53"
                     stroke="rgb(235,235,235)"
                     stroke-dasharray="none"
                     stroke-linecap="butt"
                     stroke-opacity="1"
                     fill="none" />
                  <polyline
                     id="panel.grid.minor.x..polyline.125.1.2"
                     points="199.88,30.43 199.88,498.52"
                     stroke-width="0.53"
                     stroke="rgb(235,235,235)"
                     stroke-dasharray="none"
                     stroke-linecap="butt"
                     stroke-opacity="1"
                     fill="none" />
                  <polyline
                     id="panel.grid.minor.x..polyline.125.1.3"
                     points="318.61,30.43 318.61,498.52"
                     stroke-width="0.53"
                     stroke="rgb(235,235,235)"
                     stroke-dasharray="none"
                     stroke-linecap="butt"
                     stroke-opacity="1"
                     fill="none" />
                </g>
                <g
                   id="panel.grid.major.y..polyline.127.1">
                  <polyline
                     id="panel.grid.major.y..polyline.127.1.1"
                     points="41.37,32.36 394.01,32.36"
                     stroke-width="1.07"
                     stroke="rgb(235,235,235)"
                     stroke-dasharray="none"
                     stroke-linecap="butt"
                     stroke-opacity="1"
                     fill="none" />
                  <polyline
                     id="panel.grid.major.y..polyline.127.1.2"
                     points="41.37,148.42 394.01,148.42"
                     stroke-width="1.07"
                     stroke="rgb(235,235,235)"
                     stroke-dasharray="none"
                     stroke-linecap="butt"
                     stroke-opacity="1"
                     fill="none" />
                  <polyline
                     id="panel.grid.major.y..polyline.127.1.3"
                     points="41.37,264.48 394.01,264.48"
                     stroke-width="1.07"
                     stroke="rgb(235,235,235)"
                     stroke-dasharray="none"
                     stroke-linecap="butt"
                     stroke-opacity="1"
                     fill="none" />
                  <polyline
                     id="panel.grid.major.y..polyline.127.1.4"
                     points="41.37,380.53 394.01,380.53"
                     stroke-width="1.07"
                     stroke="rgb(235,235,235)"
                     stroke-dasharray="none"
                     stroke-linecap="butt"
                     stroke-opacity="1"
                     fill="none" />
                  <polyline
                     id="panel.grid.major.y..polyline.127.1.5"
                     points="41.37,496.59 394.01,496.59"
                     stroke-width="1.07"
                     stroke="rgb(235,235,235)"
                     stroke-dasharray="none"
                     stroke-linecap="butt"
                     stroke-opacity="1"
                     fill="none" />
                </g>
                <g
                   id="panel.grid.major.x..polyline.129.1">
                  <polyline
                     id="panel.grid.major.x..polyline.129.1.1"
                     points="57.4,30.43 57.4,498.52"
                     stroke-width="1.07"
                     stroke="rgb(235,235,235)"
                     stroke-dasharray="none"
                     stroke-linecap="butt"
                     stroke-opacity="1"
                     fill="none" />
                  <polyline
                     id="panel.grid.major.x..polyline.129.1.2"
                     points="140.51,30.43 140.51,498.52"
                     stroke-width="1.07"
                     stroke="rgb(235,235,235)"
                     stroke-dasharray="none"
                     stroke-linecap="butt"
                     stroke-opacity="1"
                     fill="none" />
                  <polyline
                     id="panel.grid.major.x..polyline.129.1.3"
                     points="259.24,30.43 259.24,498.52"
                     stroke-width="1.07"
                     stroke="rgb(235,235,235)"
                     stroke-dasharray="none"
                     stroke-linecap="butt"
                     stroke-opacity="1"
                     fill="none" />
                  <polyline
                     id="panel.grid.major.x..polyline.129.1.4"
                     points="377.98,30.43 377.98,498.52"
                     stroke-width="1.07"
                     stroke="rgb(235,235,235)"
                     stroke-dasharray="none"
                     stroke-linecap="butt"
                     stroke-opacity="1"
                     fill="none" />
                </g>
              </g>
              <g
                 id="GRID.polyline.118.1">
                <polyline
                   id="GRID.polyline.118.1.1"
                   points="57.4,134.69 58.58,134.92 59.77,135.11 60.96,135.34 62.15,135.5 63.33,135.69 64.52,135.92 65.71,136.12 66.9,136.31 68.08,136.58 69.27,136.81 70.46,137.12 71.65,137.51 72.83,138.05 74.02,138.71 75.21,139.6 76.39,141.07 77.58,142.93 78.77,146.45 79.96,149.74 81.14,153.02 82.33,155.58 83.52,157.74 84.71,159.6 85.89,162.19 87.08,164.28 88.27,166.06 89.46,166.83 90.64,167.34 91.83,167.69 93.02,167.99 94.2,168.23 95.39,168.38 96.58,168.54 97.77,168.69 98.95,168.85 100.14,169 101.33,169.16 102.52,169.31 103.7,169.43 104.89,169.58 106.08,169.7 107.27,169.85 108.45,169.97 109.64,170.12 110.83,170.2 112.01,170.35 113.2,170.47 114.39,170.59 115.58,170.74 116.76,170.82 117.95,170.97 119.14,171.05 120.33,171.21 121.51,171.32 122.7,171.48 123.89,171.63 125.08,171.79 126.26,171.94 127.45,172.1 128.64,172.21 129.82,172.4 131.01,172.6 132.2,172.71 133.39,172.87 134.57,173.1 135.76,173.29 136.95,173.49 138.14,173.72 139.32,173.87 140.51,174.11 141.7,174.34 142.89,174.57 144.07,174.8 145.26,175.07 146.45,175.31 147.63,175.62 148.82,175.85 150.01,176.08 151.2,176.39 152.38,176.58 153.57,177.01 154.76,177.4 155.95,177.7 157.13,178.01 158.32,178.28 159.51,178.75 160.7,178.98 161.88,179.21 163.07,179.64 164.26,179.99 165.44,180.14 166.63,180.49 167.82,180.88 169.01,181.15 170.19,181.57 171.38,182.04 172.57,182.35 173.76,182.73 174.94,183.31 176.13,183.58 177.32,184.17 178.51,184.55 179.69,184.94 180.88,185.52 182.07,185.79 183.25,186.56 184.44,186.87 185.63,187.34 186.82,187.69 188,188.38 189.19,188.88 190.38,189.47 191.57,190.35 192.75,191.59 193.94,192.33 195.13,193.02 196.32,194.22 197.5,195.19 198.69,196.12 199.88,197.24 201.06,198.48 202.25,198.98 203.44,200.18 204.63,201.42 205.81,201.77 207,202.66 208.19,203.74 209.38,204.55 210.56,205.33 211.75,206.25 212.94,206.83 214.13,207.45 215.31,208.42 216.5,209.19 217.69,210.16 218.87,210.47 220.06,210.94 221.25,211.44 222.44,211.9 223.62,212.17 224.81,212.75 226,213.26 227.19,213.91 228.37,214.07 229.56,214.77 230.75,215.07 231.94,215.69 233.12,216.31 234.31,216.66 235.5,217.09 236.68,217.9 237.87,218.17 239.06,218.48 240.25,219.18 241.43,219.52 242.62,219.99 243.81,220.57 245,221.11 246.18,221.73 247.37,222.08 248.56,222.42 249.75,222.7 250.93,222.89 252.12,223.93 253.31,224.44 254.49,224.94 255.68,225.06 256.87,225.4 258.06,225.48 259.24,225.71 260.43,225.87 261.62,227.07 262.81,227.61 263.99,227.8 265.18,228.54 266.37,228.92 267.56,229.12 268.74,229.89 269.93,230.12 271.12,230.47 272.3,230.9 273.49,231.32 274.68,231.63 275.87,232.02 277.05,232.06 278.24,232.1 279.43,232.52 280.62,232.56 281.8,233.1 282.99,233.37 284.18,233.53 285.37,233.91 286.55,233.95 287.74,235.5 288.93,235.54 290.11,235.73 291.3,235.93 292.49,236.51 293.68,236.54 294.86,236.58 296.05,236.58 297.24,236.7 298.43,236.74 299.61,236.85 300.8,237.01 301.99,237.05 303.18,237.24 304.36,237.4 305.55,237.67 306.74,237.74 307.92,238.13 309.11,238.6 310.3,238.79 311.49,238.87 312.67,238.87 313.86,238.94 315.05,239.72 316.24,240.99 317.42,240.99 318.61,241.03 319.8,241.11 320.99,241.34 322.17,241.34 323.36,241.34 324.55,241.88 325.73,241.88 326.92,241.96 328.11,241.96 329.3,242.23 330.48,243.62 331.67,243.62 332.86,243.89 334.05,243.89 335.23,243.89 336.42,243.89 337.61,244.28 338.8,244.28 339.98,244.28 341.17,244.28 342.36,244.44 343.54,244.44 344.73,244.67 345.92,244.67 347.11,244.67 348.29,245.48 349.48,245.48 350.67,245.87 351.86,245.87 353.04,245.87 354.23,246.02 355.42,246.02 356.61,246.29 357.79,246.29 358.98,246.29 360.17,246.87 361.35,246.87 362.54,246.87 363.73,246.87 364.92,247.22 366.1,247.22 367.29,247.22 368.48,247.61 369.67,247.61 370.85,247.61 372.04,247.61 373.23,247.84 374.42,247.84 375.6,247.84 376.79,247.84 377.98,248.58"
                   stroke="rgb(248,118,109)"
                   fill="none"
                   stroke-width="3.2"
                   stroke-dasharray="none"
                   stroke-linecap="butt"
                   stroke-linejoin="round"
                   stroke-miterlimit="1"
                   stroke-opacity="1"
                   fill-opacity="1" />
                <polyline
                   id="GRID.polyline.118.1.2"
                   points="57.4,84.05 58.58,84.24 59.77,84.4 60.96,84.55 62.15,84.71 63.33,84.9 64.52,85.02 65.71,85.13 66.9,85.29 68.08,85.48 69.27,85.63 70.46,85.83 71.65,85.98 72.83,86.18 74.02,86.33 75.21,86.52 76.39,86.72 77.58,86.83 78.77,86.99 79.96,87.18 81.14,87.37 82.33,87.61 83.52,87.8 84.71,87.96 85.89,88.11 87.08,88.26 88.27,88.38 89.46,88.5 90.64,88.61 91.83,88.73 93.02,88.84 94.2,88.96 95.39,89.12 96.58,89.19 97.77,89.27 98.95,89.39 100.14,89.46 101.33,89.58 102.52,89.66 103.7,89.73 104.89,89.85 106.08,89.89 107.27,90.01 108.45,90.08 109.64,90.16 110.83,90.2 112.01,90.28 113.2,90.35 114.39,90.43 115.58,90.51 116.76,90.59 117.95,90.62 119.14,90.7 120.33,90.78 121.51,90.82 122.7,90.9 123.89,90.97 125.08,91.05 126.26,91.09 127.45,91.17 128.64,91.24 129.82,91.28 131.01,91.36 132.2,91.44 133.39,91.51 134.57,91.59 135.76,91.67 136.95,91.75 138.14,91.82 139.32,91.9 140.51,91.98 141.7,92.02 142.89,92.13 144.07,92.17 145.26,92.25 146.45,92.29 147.63,92.37 148.82,92.44 150.01,92.52 151.2,92.6 152.38,92.67 153.57,92.71 154.76,92.79 155.95,92.87 157.13,92.98 158.32,93.06 159.51,93.18 160.7,93.29 161.88,93.37 163.07,93.56 164.26,93.6 165.44,93.68 166.63,93.84 167.82,93.91 169.01,93.99 170.19,94.07 171.38,94.14 172.57,94.26 173.76,94.42 174.94,94.57 176.13,94.61 177.32,94.8 178.51,94.92 179.69,95.11 180.88,95.31 182.07,95.42 183.25,95.69 184.44,96.04 185.63,96.23 186.82,96.5 188,96.85 189.19,97.08 190.38,97.7 191.57,97.97 192.75,98.59 193.94,99.17 195.13,99.91 196.32,100.41 197.5,101.8 198.69,104.24 199.88,105.79 201.06,109.08 202.25,112.91 203.44,114.49 204.63,119.75 205.81,122 207,124.63 208.19,127.53 209.38,134.84 210.56,136.81 211.75,138.28 212.94,139.06 214.13,139.52 215.31,140.64 216.5,141.15 217.69,141.5 218.87,141.88 220.06,142.27 221.25,142.66 222.44,142.77 223.62,143.27 224.81,143.51 226,143.7 227.19,143.97 228.37,144.28 229.56,144.44 230.75,144.67 231.94,145.09 233.12,145.29 234.31,145.4 235.5,145.56 236.68,145.67 237.87,145.98 239.06,146.45 240.25,146.8 241.43,147.07 242.62,147.38 243.81,147.61 245,147.76 246.18,147.99 247.37,148.34 248.56,148.61 249.75,148.69 250.93,149.04 252.12,149.27 253.31,149.62 254.49,149.7 255.68,149.81 256.87,149.89 258.06,150.01 259.24,150.28 260.43,150.7 261.62,150.7 262.81,150.74 263.99,150.78 265.18,151.09 266.37,151.17 267.56,151.21 268.74,151.24 269.93,151.48 271.12,151.59 272.3,151.63 273.49,151.67 274.68,151.71 275.87,151.75 277.05,151.79 278.24,151.86 279.43,152.06 280.62,152.06 281.8,152.1 282.99,152.25 284.18,152.25 285.37,152.37 286.55,152.44 287.74,152.56 288.93,152.6 290.11,152.68 291.3,152.71 292.49,152.95 293.68,152.98 294.86,153.02 296.05,153.06 297.24,153.1 298.43,153.1 299.61,153.14 300.8,153.18 301.99,153.22 303.18,153.26 304.36,153.37 305.55,153.37 306.74,153.41 307.92,153.45 309.11,153.53 310.3,153.6 311.49,153.64 312.67,153.64 313.86,153.72 315.05,153.8 316.24,153.84 317.42,153.84 318.61,153.87 319.8,153.87 320.99,153.99 322.17,153.99 323.36,154.07 324.55,154.11 325.73,154.11 326.92,154.18 328.11,154.18 329.3,154.22 330.48,154.26 331.67,154.26 332.86,154.34 334.05,154.34 335.23,154.38 336.42,154.38 337.61,154.42 338.8,154.42 339.98,154.42 341.17,154.42 342.36,154.42 343.54,154.42 344.73,154.49 345.92,154.49 347.11,154.49 348.29,154.53 349.48,154.53 350.67,154.61 351.86,154.61 353.04,154.61 354.23,154.61 355.42,154.61 356.61,154.65 357.79,154.65 358.98,154.65 360.17,154.76 361.35,154.76 362.54,154.76 363.73,154.76 364.92,154.96 366.1,154.96 367.29,154.96 368.48,154.96 369.67,154.96 370.85,154.96 372.04,154.96 373.23,155.23 374.42,155.23 375.6,155.23 376.79,155.23 377.98,155.5"
                   stroke="rgb(216,144,0)"
                   fill="none"
                   stroke-width="3.2"
                   stroke-dasharray="none"
                   stroke-linecap="butt"
                   stroke-linejoin="round"
                   stroke-miterlimit="1"
                   stroke-opacity="1"
                   fill-opacity="1" />
                <polyline
                   id="GRID.polyline.118.1.3"
                   points="57.4,148.19 58.58,148.38 59.77,148.57 60.96,148.77 62.15,148.92 63.33,149.12 64.52,149.27 65.71,149.43 66.9,149.58 68.08,149.77 69.27,149.93 70.46,150.08 71.65,150.2 72.83,150.35 74.02,150.47 75.21,150.59 76.39,150.74 77.58,150.82 78.77,150.93 79.96,151.05 81.14,151.21 82.33,151.32 83.52,151.44 84.71,151.55 85.89,151.67 87.08,151.79 88.27,151.9 89.46,151.98 90.64,152.1 91.83,152.17 93.02,152.29 94.2,152.37 95.39,152.48 96.58,152.56 97.77,152.68 98.95,152.75 100.14,152.87 101.33,152.95 102.52,153.06 103.7,153.14 104.89,153.22 106.08,153.33 107.27,153.41 108.45,153.53 109.64,153.6 110.83,153.68 112.01,153.76 113.2,153.84 114.39,153.91 115.58,153.99 116.76,154.07 117.95,154.18 119.14,154.26 120.33,154.34 121.51,154.42 122.7,154.49 123.89,154.57 125.08,154.61 126.26,154.69 127.45,154.76 128.64,154.84 129.82,154.96 131.01,155 132.2,155.07 133.39,155.15 134.57,155.19 135.76,155.31 136.95,155.38 138.14,155.42 139.32,155.46 140.51,155.54 141.7,155.62 142.89,155.65 144.07,155.73 145.26,155.81 146.45,155.89 147.63,155.92 148.82,156 150.01,156.04 151.2,156.08 152.38,156.16 153.57,156.23 154.76,156.27 155.95,156.35 157.13,156.43 158.32,156.47 159.51,156.51 160.7,156.58 161.88,156.62 163.07,156.7 164.26,156.74 165.44,156.81 166.63,156.89 167.82,156.93 169.01,157.01 170.19,157.05 171.38,157.09 172.57,157.2 173.76,157.24 174.94,157.32 176.13,157.36 177.32,157.4 178.51,157.47 179.69,157.51 180.88,157.59 182.07,157.63 183.25,157.7 184.44,157.78 185.63,157.86 186.82,157.94 188,158.01 189.19,158.09 190.38,158.17 191.57,158.21 192.75,158.28 193.94,158.36 195.13,158.4 196.32,158.48 197.5,158.56 198.69,158.59 199.88,158.67 201.06,158.75 202.25,158.87 203.44,158.9 204.63,158.98 205.81,159.06 207,159.17 208.19,159.25 209.38,159.33 210.56,159.41 211.75,159.48 212.94,159.56 214.13,159.64 215.31,159.75 216.5,159.91 217.69,160.06 218.87,160.14 220.06,160.26 221.25,160.34 222.44,160.45 223.62,160.53 224.81,160.57 226,160.68 227.19,160.8 228.37,161.03 229.56,161.19 230.75,161.34 231.94,161.46 233.12,161.57 234.31,161.96 235.5,162.66 236.68,163 237.87,163.62 239.06,163.74 240.25,164.59 241.43,165.17 242.62,165.48 243.81,166.29 245,167.76 246.18,168.61 247.37,170.01 248.56,170.66 249.75,171.09 250.93,172.25 252.12,174.61 253.31,174.84 254.49,179.48 255.68,184.01 256.87,199.02 258.06,199.99 259.24,200.84 260.43,202.5 261.62,204.44 262.81,204.59 263.99,205.02 265.18,206.1 266.37,206.29 267.56,206.37 268.74,206.56 269.93,206.64 271.12,206.76 272.3,206.91 273.49,206.99 274.68,207.11 275.87,207.38 277.05,207.69 278.24,207.69 279.43,208 280.62,208.03 281.8,208.3 282.99,208.42 284.18,208.42 285.37,208.96 286.55,209 287.74,209.12 288.93,209.27 290.11,209.35 291.3,209.58 292.49,209.7 293.68,209.74 294.86,209.74 296.05,209.85 297.24,210.24 298.43,210.39 299.61,210.43 300.8,210.66 301.99,210.78 303.18,210.78 304.36,210.82 305.55,210.94 306.74,211.01 307.92,211.13 309.11,211.28 310.3,211.48 311.49,211.59 312.67,211.59 313.86,211.71 315.05,211.75 316.24,211.83 317.42,211.83 318.61,211.83 319.8,211.83 320.99,211.9 322.17,211.9 323.36,212.06 324.55,212.06 325.73,212.06 326.92,212.17 328.11,212.17 329.3,212.44 330.48,212.48 331.67,212.48 332.86,213.02 334.05,213.02 335.23,213.14 336.42,213.14 337.61,213.14 338.8,213.14 339.98,213.26 341.17,213.26 342.36,213.53 343.54,213.53 344.73,213.88 345.92,213.88 347.11,213.88 348.29,214.07 349.48,214.07 350.67,214.34 351.86,214.34 353.04,214.34 354.23,214.53 355.42,214.53 356.61,215.54 357.79,215.54 358.98,215.54 360.17,216.7 361.35,216.7 362.54,216.7 363.73,216.7 364.92,217.09 366.1,217.09 367.29,217.09 368.48,218.13 369.67,218.13 370.85,218.13 372.04,218.13 373.23,218.36 374.42,218.36 375.6,218.36 376.79,218.36 377.98,220.68"
                   stroke="rgb(163,165,0)"
                   fill="none"
                   stroke-width="3.2"
                   stroke-dasharray="none"
                   stroke-linecap="butt"
                   stroke-linejoin="round"
                   stroke-miterlimit="1"
                   stroke-opacity="1"
                   fill-opacity="1" />
                <polyline
                   id="GRID.polyline.118.1.4"
                   points="57.4,150.7 58.58,150.97 59.77,151.21 60.96,151.44 62.15,151.71 63.33,151.94 64.52,152.21 65.71,152.48 66.9,152.75 68.08,152.98 69.27,153.18 70.46,153.41 71.65,153.68 72.83,153.91 74.02,154.11 75.21,154.34 76.39,154.65 77.58,154.96 78.77,155.19 79.96,155.5 81.14,155.77 82.33,156.04 83.52,156.31 84.71,156.58 85.89,156.85 87.08,157.12 88.27,157.4 89.46,157.7 90.64,157.98 91.83,158.28 93.02,158.67 94.2,159.02 95.39,159.37 96.58,159.79 97.77,160.3 98.95,160.84 100.14,161.5 101.33,162.27 102.52,163.04 103.7,163.93 104.89,165.4 106.08,166.95 107.27,169.43 108.45,171.63 109.64,173.95 110.83,176.12 112.01,178.36 113.2,179.99 114.39,182.08 115.58,183.35 116.76,184.4 117.95,185.4 119.14,186.6 120.33,188.73 121.51,191.09 122.7,193.14 123.89,194.92 125.08,195.89 126.26,197.09 127.45,198.4 128.64,199.1 129.82,199.83 131.01,200.45 132.2,200.95 133.39,201.57 134.57,201.96 135.76,202.5 136.95,202.85 138.14,203.2 139.32,203.47 140.51,203.89 141.7,204.28 142.89,204.55 144.07,204.86 145.26,205.17 146.45,205.4 147.63,205.75 148.82,206.22 150.01,206.41 151.2,206.6 152.38,206.76 153.57,207.03 154.76,207.26 155.95,207.41 157.13,207.65 158.32,207.84 159.51,208.07 160.7,208.23 161.88,208.42 163.07,208.54 164.26,208.65 165.44,208.85 166.63,208.96 167.82,209.04 169.01,209.19 170.19,209.31 171.38,209.43 172.57,209.54 173.76,209.62 174.94,209.77 176.13,209.89 177.32,209.97 178.51,210.12 179.69,210.2 180.88,210.32 182.07,210.39 183.25,210.51 184.44,210.59 185.63,210.74 186.82,210.94 188,211.01 189.19,211.13 190.38,211.24 191.57,211.36 192.75,211.48 193.94,211.52 195.13,211.59 196.32,211.67 197.5,211.75 198.69,211.83 199.88,211.94 201.06,212.06 202.25,212.13 203.44,212.21 204.63,212.25 205.81,212.29 207,212.41 208.19,212.48 209.38,212.52 210.56,212.56 211.75,212.68 212.94,212.71 214.13,212.79 215.31,212.91 216.5,212.99 217.69,213.1 218.87,213.14 220.06,213.26 221.25,213.33 222.44,213.41 223.62,213.49 224.81,213.64 226,213.72 227.19,213.76 228.37,213.8 229.56,213.88 230.75,213.95 231.94,213.99 233.12,214.11 234.31,214.15 235.5,214.26 236.68,214.3 237.87,214.34 239.06,214.42 240.25,214.53 241.43,214.57 242.62,214.73 243.81,214.77 245,214.8 246.18,214.88 247.37,214.92 248.56,215 249.75,215.04 250.93,215.04 252.12,215.19 253.31,215.23 254.49,215.35 255.68,215.38 256.87,215.42 258.06,215.5 259.24,215.62 260.43,215.77 261.62,215.81 262.81,215.89 263.99,215.93 265.18,215.96 266.37,216.04 267.56,216.12 268.74,216.2 269.93,216.2 271.12,216.27 272.3,216.35 273.49,216.35 274.68,216.47 275.87,216.66 277.05,216.74 278.24,216.74 279.43,216.97 280.62,217.01 281.8,217.09 282.99,217.16 284.18,217.36 285.37,217.55 286.55,217.55 287.74,217.63 288.93,217.63 290.11,217.71 291.3,217.78 292.49,217.9 293.68,217.94 294.86,217.94 296.05,217.98 297.24,217.98 298.43,218.09 299.61,218.13 300.8,218.32 301.99,218.32 303.18,218.36 304.36,218.4 305.55,218.44 306.74,218.48 307.92,218.67 309.11,218.71 310.3,218.75 311.49,218.87 312.67,218.87 313.86,218.87 315.05,218.94 316.24,219.25 317.42,219.25 318.61,219.37 319.8,220.03 320.99,220.03 322.17,220.03 323.36,220.3 324.55,220.34 325.73,220.34 326.92,220.45 328.11,220.45 329.3,220.72 330.48,220.88 331.67,220.88 332.86,221.11 334.05,221.11 335.23,221.53 336.42,221.53 337.61,221.57 338.8,221.57 339.98,221.73 341.17,221.73 342.36,221.96 343.54,221.96 344.73,222.12 345.92,222.12 347.11,222.12 348.29,222.77 349.48,222.77 350.67,222.89 351.86,222.89 353.04,222.89 354.23,223.24 355.42,223.24 356.61,223.39 357.79,223.39 358.98,223.39 360.17,223.7 361.35,223.7 362.54,223.7 363.73,223.7 364.92,225.48 366.1,225.48 367.29,225.48 368.48,228.27 369.67,228.27 370.85,228.27 372.04,228.27 373.23,236.7 374.42,236.7 375.6,236.7 376.79,236.7 377.98,238.98"
                   stroke="rgb(57,182,0)"
                   fill="none"
                   stroke-width="3.2"
                   stroke-dasharray="none"
                   stroke-linecap="butt"
                   stroke-linejoin="round"
                   stroke-miterlimit="1"
                   stroke-opacity="1"
                   fill-opacity="1" />
                <polyline
                   id="GRID.polyline.118.1.5"
                   points="57.4,210.08 58.58,210.32 59.77,210.59 60.96,210.82 62.15,211.01 63.33,211.21 64.52,211.44 65.71,211.59 66.9,211.75 68.08,211.86 69.27,212.1 70.46,212.25 71.65,212.44 72.83,212.56 74.02,212.71 75.21,212.83 76.39,212.99 77.58,213.14 78.77,213.26 79.96,213.41 81.14,213.57 82.33,213.68 83.52,213.8 84.71,213.91 85.89,214.07 87.08,214.15 88.27,214.26 89.46,214.38 90.64,214.46 91.83,214.57 93.02,214.69 94.2,214.77 95.39,214.88 96.58,215 97.77,215.07 98.95,215.15 100.14,215.27 101.33,215.35 102.52,215.46 103.7,215.54 104.89,215.62 106.08,215.73 107.27,215.81 108.45,215.96 109.64,216.04 110.83,216.16 112.01,216.24 113.2,216.35 114.39,216.47 115.58,216.54 116.76,216.66 117.95,216.74 119.14,216.82 120.33,216.89 121.51,216.97 122.7,217.05 123.89,217.16 125.08,217.2 126.26,217.32 127.45,217.4 128.64,217.47 129.82,217.59 131.01,217.71 132.2,217.78 133.39,217.86 134.57,218.01 135.76,218.09 136.95,218.17 138.14,218.25 139.32,218.32 140.51,218.44 141.7,218.56 142.89,218.71 144.07,218.83 145.26,218.94 146.45,219.02 147.63,219.1 148.82,219.18 150.01,219.29 151.2,219.45 152.38,219.56 153.57,219.68 154.76,219.79 155.95,219.87 157.13,219.99 158.32,220.06 159.51,220.18 160.7,220.26 161.88,220.37 163.07,220.53 164.26,220.61 165.44,220.72 166.63,220.84 167.82,220.99 169.01,221.03 170.19,221.23 171.38,221.34 172.57,221.53 173.76,221.73 174.94,221.81 176.13,222 177.32,222.23 178.51,222.46 179.69,222.58 180.88,222.93 182.07,223.12 183.25,223.35 184.44,223.55 185.63,223.74 186.82,224.05 188,224.44 189.19,224.75 190.38,225.25 191.57,225.52 192.75,226.64 193.94,227.57 195.13,229 196.32,231.09 197.5,232.25 198.69,234.88 199.88,235.89 201.06,236.7 202.25,237.74 203.44,239.33 204.63,239.83 205.81,241.23 207,242.15 208.19,242.77 209.38,243.74 210.56,244.09 211.75,244.67 212.94,245.4 214.13,246.1 215.31,246.91 216.5,248.19 217.69,249.12 218.87,249.81 220.06,250.66 221.25,251.36 222.44,251.9 223.62,253.22 224.81,253.99 226,254.73 227.19,255.42 228.37,256.35 229.56,257.36 230.75,258.25 231.94,258.71 233.12,258.98 234.31,259.76 235.5,260.49 236.68,261.15 237.87,261.88 239.06,262.62 240.25,262.77 241.43,263.28 242.62,263.51 243.81,263.82 245,264.13 246.18,264.55 247.37,265.4 248.56,265.79 249.75,266.1 250.93,266.64 252.12,266.87 253.31,267.22 254.49,267.49 255.68,268.19 256.87,268.65 258.06,268.92 259.24,269.74 260.43,270.94 261.62,271.32 262.81,271.52 263.99,271.75 265.18,272.41 266.37,272.87 267.56,273.22 268.74,273.72 269.93,273.95 271.12,274.77 272.3,275.62 273.49,276.08 274.68,276.16 275.87,276.7 277.05,277.16 278.24,277.74 279.43,279.37 280.62,279.64 281.8,280.34 282.99,283.08 284.18,283.24 285.37,284.24 286.55,284.44 287.74,291.21 288.93,291.44 290.11,292.83 291.3,293.88 292.49,295.04 293.68,297.98 294.86,298.67 296.05,298.91 297.24,299.64 298.43,299.72 299.61,302.62 300.8,302.74 301.99,303.43 303.18,305.44 304.36,306.37 305.55,306.56 306.74,306.6 307.92,307.61 309.11,309.66 310.3,311.52 311.49,312.68 312.67,312.68 313.86,314.19 315.05,314.61 316.24,315.31 317.42,315.31 318.61,315.46 319.8,316.04 320.99,316.43 322.17,316.43 323.36,316.47 324.55,317.4 325.73,317.4 326.92,321.65 328.11,321.65 329.3,322.46 330.48,326.41 331.67,326.41 332.86,327.03 334.05,327.03 335.23,328.5 336.42,328.5 337.61,329.85 338.8,329.85 339.98,329.89 341.17,329.89 342.36,330.28 343.54,330.28 344.73,330.67 345.92,330.67 347.11,330.67 348.29,333.34 349.48,333.34 350.67,335.66 351.86,335.66 353.04,335.66 354.23,335.93 355.42,335.93 356.61,336.58 357.79,336.58 358.98,336.58 360.17,337.05 361.35,337.05 362.54,337.05 363.73,337.05 364.92,337.28 366.1,337.28 367.29,337.28 368.48,339.6 369.67,339.6 370.85,339.6 372.04,339.6 373.23,344.13 374.42,344.13 375.6,344.13 376.79,344.13 377.98,344.21"
                   stroke="rgb(0,191,125)"
                   fill="none"
                   stroke-width="3.2"
                   stroke-dasharray="none"
                   stroke-linecap="butt"
                   stroke-linejoin="round"
                   stroke-miterlimit="1"
                   stroke-opacity="1"
                   fill-opacity="1" />
                <polyline
                   id="GRID.polyline.118.1.6"
                   points="57.4,154.03 58.58,154.57 59.77,155.04 60.96,155.62 62.15,156.16 63.33,156.7 64.52,157.32 65.71,157.9 66.9,158.44 68.08,159.17 69.27,159.91 70.46,160.8 71.65,161.81 72.83,162.77 74.02,163.58 75.21,164.51 76.39,165.87 77.58,167.18 78.77,168.61 79.96,170.05 81.14,171.59 82.33,173.22 83.52,175.31 84.71,177.24 85.89,179.95 87.08,182.7 88.27,185.05 89.46,187.84 90.64,190.28 91.83,192.13 93.02,194.22 94.2,195.89 95.39,197.28 96.58,198.29 97.77,199.25 98.95,200.37 100.14,201.26 101.33,201.84 102.52,202.5 103.7,202.97 104.89,203.55 106.08,204.17 107.27,204.59 108.45,205.17 109.64,205.71 110.83,206.33 112.01,206.68 113.2,207.07 114.39,207.92 115.58,208.54 116.76,209.16 117.95,209.81 119.14,210.55 120.33,211.05 121.51,211.59 122.7,212.21 123.89,212.56 125.08,212.91 126.26,213.22 127.45,213.64 128.64,213.99 129.82,214.42 131.01,214.69 132.2,215 133.39,215.42 134.57,215.69 135.76,216 136.95,216.2 138.14,216.43 139.32,216.62 140.51,216.85 141.7,217.01 142.89,217.2 144.07,217.4 145.26,217.55 146.45,217.71 147.63,217.86 148.82,217.98 150.01,218.13 151.2,218.32 152.38,218.52 153.57,218.71 154.76,218.94 155.95,219.18 157.13,219.37 158.32,219.48 159.51,219.6 160.7,219.76 161.88,219.87 163.07,220.1 164.26,220.34 165.44,220.68 166.63,220.88 167.82,221.07 169.01,221.3 170.19,221.42 171.38,221.57 172.57,221.73 173.76,222.04 174.94,222.19 176.13,222.35 177.32,222.54 178.51,222.73 179.69,222.81 180.88,223.01 182.07,223.04 183.25,223.31 184.44,223.47 185.63,223.82 186.82,223.93 188,224.2 189.19,224.36 190.38,224.48 191.57,224.75 192.75,224.94 193.94,225.09 195.13,225.33 196.32,225.64 197.5,225.87 198.69,226.02 199.88,226.29 201.06,226.53 202.25,226.6 203.44,226.72 204.63,226.95 205.81,227.11 207,227.34 208.19,227.42 209.38,227.69 210.56,227.72 211.75,227.92 212.94,228.07 214.13,228.23 215.31,228.54 216.5,228.85 217.69,229.04 218.87,229.39 220.06,229.5 221.25,229.77 222.44,230.05 223.62,230.43 224.81,230.59 226,230.82 227.19,230.94 228.37,231.48 229.56,231.86 230.75,232.06 231.94,232.17 233.12,232.64 234.31,232.83 235.5,232.91 236.68,233.06 237.87,233.37 239.06,233.49 240.25,233.68 241.43,233.88 242.62,234.11 243.81,234.3 245,234.49 246.18,234.65 247.37,234.88 248.56,235.04 249.75,235.19 250.93,235.23 252.12,235.46 253.31,235.62 254.49,235.73 255.68,235.81 256.87,235.85 258.06,235.93 259.24,235.96 260.43,236.16 261.62,236.24 262.81,236.35 263.99,236.66 265.18,236.74 266.37,236.82 267.56,236.85 268.74,237.28 269.93,237.32 271.12,237.43 272.3,237.67 273.49,237.67 274.68,237.82 275.87,237.86 277.05,237.94 278.24,237.98 279.43,238.05 280.62,238.05 281.8,238.13 282.99,238.17 284.18,238.25 285.37,238.56 286.55,238.56 287.74,238.63 288.93,238.79 290.11,239.06 291.3,239.06 292.49,239.29 293.68,239.83 294.86,239.95 296.05,240.07 297.24,240.1 298.43,240.3 299.61,240.37 300.8,240.41 301.99,240.49 303.18,240.53 304.36,240.68 305.55,240.95 306.74,241.54 307.92,241.61 309.11,242 310.3,242.08 311.49,242.31 312.67,242.31 313.86,242.7 315.05,242.89 316.24,243.08 317.42,243.08 318.61,243.24 319.8,243.51 320.99,243.62 322.17,243.62 323.36,243.86 324.55,244.67 325.73,244.67 326.92,245.21 328.11,245.21 329.3,246.06 330.48,246.45 331.67,246.45 332.86,246.49 334.05,246.49 335.23,247.57 336.42,247.57 337.61,247.61 338.8,247.61 339.98,247.76 341.17,247.76 342.36,248.07 343.54,248.07 344.73,248.19 345.92,248.19 347.11,248.19 348.29,248.54 349.48,248.54 350.67,249.35 351.86,249.35 353.04,249.35 354.23,250.39 355.42,250.39 356.61,250.74 357.79,250.74 358.98,250.74 360.17,251.28 361.35,251.28 362.54,251.28 363.73,251.28 364.92,251.32 366.1,251.32 367.29,251.32 368.48,254.38 369.67,254.38 370.85,254.38 372.04,254.38 373.23,255.96 374.42,255.96 375.6,255.96 376.79,255.96 377.98,256.66"
                   stroke="rgb(0,191,196)"
                   fill="none"
                   stroke-width="3.2"
                   stroke-dasharray="none"
                   stroke-linecap="butt"
                   stroke-linejoin="round"
                   stroke-miterlimit="1"
                   stroke-opacity="1"
                   fill-opacity="1" />
                <polyline
                   id="GRID.polyline.118.1.7"
                   points="57.4,136.43 58.58,136.89 59.77,137.32 60.96,137.74 62.15,138.09 63.33,138.4 64.52,138.79 65.71,139.17 66.9,139.56 68.08,139.91 69.27,140.14 70.46,140.41 71.65,140.64 72.83,140.92 74.02,141.19 75.21,141.5 76.39,141.88 77.58,142.11 78.77,142.42 79.96,142.66 81.14,142.93 82.33,143.2 83.52,143.55 84.71,143.86 85.89,144.13 87.08,144.36 88.27,144.59 89.46,144.82 90.64,145.13 91.83,145.36 93.02,145.6 94.2,145.87 95.39,146.1 96.58,146.33 97.77,146.6 98.95,146.83 100.14,147.14 101.33,147.38 102.52,147.61 103.7,147.8 104.89,148.07 106.08,148.27 107.27,148.5 108.45,148.73 109.64,148.96 110.83,149.19 112.01,149.43 113.2,149.62 114.39,149.89 115.58,150.08 116.76,150.35 117.95,150.55 119.14,150.82 120.33,151.01 121.51,151.21 122.7,151.44 123.89,151.55 125.08,151.82 126.26,152.02 127.45,152.21 128.64,152.4 129.82,152.6 131.01,152.83 132.2,153.02 133.39,153.22 134.57,153.33 135.76,153.49 136.95,153.76 138.14,153.99 139.32,154.22 140.51,154.45 141.7,154.65 142.89,154.8 144.07,155.07 145.26,155.23 146.45,155.42 147.63,155.69 148.82,155.89 150.01,156.16 151.2,156.43 152.38,156.66 153.57,156.97 154.76,157.2 155.95,157.51 157.13,157.78 158.32,158.05 159.51,158.32 160.7,158.52 161.88,158.9 163.07,159.06 164.26,159.33 165.44,159.56 166.63,159.87 167.82,160.22 169.01,160.61 170.19,160.88 171.38,161.11 172.57,161.42 173.76,161.57 174.94,162.08 176.13,162.31 177.32,162.54 178.51,162.66 179.69,163.04 180.88,163.35 182.07,163.55 183.25,163.97 184.44,164.2 185.63,164.36 186.82,164.59 188,164.78 189.19,165.05 190.38,165.6 191.57,165.87 192.75,166.02 193.94,166.29 195.13,166.6 196.32,166.76 197.5,167.03 198.69,167.3 199.88,167.57 201.06,167.92 202.25,168.34 203.44,168.58 204.63,168.81 205.81,169.08 207,169.27 208.19,169.43 209.38,169.54 210.56,169.77 211.75,169.97 212.94,170.24 214.13,170.39 215.31,170.66 216.5,170.93 217.69,171.28 218.87,171.52 220.06,171.63 221.25,171.71 222.44,171.86 223.62,172.17 224.81,172.4 226,172.6 227.19,172.75 228.37,173.06 229.56,173.18 230.75,173.57 231.94,173.68 233.12,173.99 234.31,174.3 235.5,174.76 236.68,175.19 237.87,175.46 239.06,175.62 240.25,175.77 241.43,175.93 242.62,176.51 243.81,176.62 245,176.7 246.18,177.05 247.37,177.43 248.56,177.82 249.75,177.9 250.93,178.01 252.12,178.21 253.31,178.28 254.49,178.79 255.68,179.14 256.87,179.52 258.06,180.18 259.24,180.45 260.43,181.15 261.62,181.42 262.81,181.88 263.99,181.92 265.18,181.96 266.37,182 267.56,182.15 268.74,182.39 269.93,183.16 271.12,183.43 272.3,184.05 273.49,184.13 274.68,184.51 275.87,184.86 277.05,185.02 278.24,185.48 279.43,185.83 280.62,186.29 281.8,186.68 282.99,186.68 284.18,186.83 285.37,187.03 286.55,187.22 287.74,187.72 288.93,188.19 290.11,188.38 291.3,188.5 292.49,189.23 293.68,189.54 294.86,189.66 296.05,190.01 297.24,190.39 298.43,190.9 299.61,191.05 300.8,191.63 301.99,192.21 303.18,192.33 304.36,192.56 305.55,192.79 306.74,193.14 307.92,195.27 309.11,195.89 310.3,196.54 311.49,196.7 312.67,196.7 313.86,197.94 315.05,198.67 316.24,199.37 317.42,199.37 318.61,199.6 319.8,200.68 320.99,202.27 322.17,202.27 323.36,202.54 324.55,202.62 325.73,202.62 326.92,202.73 328.11,202.73 329.3,202.77 330.48,204.71 331.67,204.71 332.86,208.73 334.05,208.73 335.23,209.7 336.42,209.7 337.61,210.43 338.8,210.43 339.98,210.66 341.17,210.66 342.36,213.06 343.54,213.06 344.73,214.3 345.92,214.3 347.11,214.3 348.29,215.35 349.48,215.35 350.67,215.65 351.86,215.65 353.04,215.65 354.23,216.7 355.42,216.7 356.61,217.28 357.79,217.28 358.98,217.28 360.17,218.4 361.35,218.4 362.54,218.4 363.73,218.4 364.92,218.75 366.1,218.75 367.29,218.75 368.48,220.45 369.67,220.45 370.85,220.45 372.04,220.45 373.23,227.49 374.42,227.49 375.6,227.49 376.79,227.49 377.98,230.66"
                   stroke="rgb(0,176,246)"
                   fill="none"
                   stroke-width="3.2"
                   stroke-dasharray="none"
                   stroke-linecap="butt"
                   stroke-linejoin="round"
                   stroke-miterlimit="1"
                   stroke-opacity="1"
                   fill-opacity="1" />
                <polyline
                   id="GRID.polyline.118.1.8"
                   points="57.4,122 58.58,122.15 59.77,122.27 60.96,122.38 62.15,122.5 63.33,122.58 64.52,122.69 65.71,122.81 66.9,122.89 68.08,122.97 69.27,123.04 70.46,123.16 71.65,123.27 72.83,123.35 74.02,123.47 75.21,123.55 76.39,123.62 77.58,123.74 78.77,123.86 79.96,123.93 81.14,124.05 82.33,124.13 83.52,124.2 84.71,124.32 85.89,124.44 87.08,124.55 88.27,124.63 89.46,124.74 90.64,124.86 91.83,125.02 93.02,125.17 94.2,125.33 95.39,125.48 96.58,125.71 97.77,125.94 98.95,126.21 100.14,126.49 101.33,126.72 102.52,126.95 103.7,127.3 104.89,127.53 106.08,127.88 107.27,128.27 108.45,128.57 109.64,128.92 110.83,129.31 112.01,129.7 113.2,130.12 114.39,130.39 115.58,130.9 116.76,131.24 117.95,131.67 119.14,131.94 120.33,132.29 121.51,132.71 122.7,133.18 123.89,133.49 125.08,133.87 126.26,134.34 127.45,134.65 128.64,135 129.82,135.34 131.01,135.85 132.2,136.31 133.39,136.7 134.57,137.01 135.76,137.32 136.95,137.59 138.14,137.98 139.32,138.32 140.51,138.63 141.7,138.94 142.89,139.48 144.07,139.83 145.26,140.1 146.45,140.41 147.63,140.72 148.82,140.99 150.01,141.26 151.2,141.57 152.38,141.84 153.57,142.11 154.76,142.54 155.95,142.93 157.13,143.31 158.32,143.62 159.51,143.97 160.7,144.51 161.88,144.94 163.07,145.4 164.26,145.63 165.44,145.91 166.63,146.14 167.82,146.45 169.01,146.72 170.19,147.03 171.38,147.18 172.57,147.72 173.76,148.03 174.94,148.27 176.13,148.65 177.32,149 178.51,149.39 179.69,149.81 180.88,150.12 182.07,150.39 183.25,150.78 184.44,151.05 185.63,151.48 186.82,151.79 188,152.1 189.19,152.68 190.38,153.18 191.57,153.57 192.75,153.87 193.94,154.18 195.13,154.61 196.32,155.04 197.5,155.38 198.69,155.81 199.88,156.27 201.06,156.97 202.25,157.32 203.44,157.59 204.63,158.44 205.81,158.94 207,159.52 208.19,159.99 209.38,160.84 210.56,161.34 211.75,162.15 212.94,162.73 214.13,163.24 215.31,163.62 216.5,164.32 217.69,164.86 218.87,165.91 220.06,166.95 221.25,167.22 222.44,167.53 223.62,168.15 224.81,168.77 226,169.35 227.19,170.08 228.37,170.32 229.56,170.82 230.75,171.98 231.94,172.91 233.12,174.34 234.31,174.84 235.5,175.58 236.68,176.16 237.87,176.78 239.06,177.2 240.25,177.36 241.43,179.87 242.62,180.57 243.81,180.88 245,181.38 246.18,183.51 247.37,184.05 248.56,184.98 249.75,185.6 250.93,186.64 252.12,187.11 253.31,187.34 254.49,188.42 255.68,188.46 256.87,190.51 258.06,191.32 259.24,191.79 260.43,192.95 261.62,194.34 262.81,194.76 263.99,195.19 265.18,195.42 266.37,195.81 267.56,196.66 268.74,196.93 269.93,197.4 271.12,197.43 272.3,197.9 273.49,198.17 274.68,198.56 275.87,198.98 277.05,199.02 278.24,199.25 279.43,201.3 280.62,201.84 281.8,203.43 282.99,203.51 284.18,203.51 285.37,204.4 286.55,204.44 287.74,204.98 288.93,206.29 290.11,206.56 291.3,206.87 292.49,208 293.68,208.19 294.86,208.23 296.05,208.92 297.24,209.43 298.43,209.58 299.61,210.47 300.8,211.4 301.99,213.33 303.18,213.84 304.36,213.91 305.55,214.26 306.74,214.3 307.92,214.8 309.11,215.5 310.3,216.04 311.49,216.08 312.67,216.08 313.86,217.05 315.05,217.32 316.24,218.17 317.42,218.17 318.61,221.11 319.8,221.5 320.99,222.23 322.17,222.23 323.36,223.08 324.55,225.17 325.73,225.17 326.92,226.29 328.11,226.29 329.3,226.64 330.48,226.68 331.67,226.68 332.86,228.42 334.05,228.42 335.23,229.39 336.42,229.39 337.61,230.28 338.8,230.28 339.98,231.09 341.17,231.09 342.36,231.52 343.54,231.52 344.73,233.99 345.92,233.99 347.11,233.99 348.29,238.67 349.48,238.67 350.67,240.41 351.86,240.41 353.04,240.41 354.23,242.5 355.42,242.5 356.61,243.97 357.79,243.97 358.98,243.97 360.17,244.17 361.35,244.17 362.54,244.17 363.73,244.17 364.92,244.55 366.1,244.55 367.29,244.55 368.48,250.51 369.67,250.51 370.85,250.51 372.04,250.51 373.23,253.6 374.42,253.6 375.6,253.6 376.79,253.6 377.98,256.97"
                   stroke="rgb(149,144,255)"
                   fill="none"
                   stroke-width="3.2"
                   stroke-dasharray="none"
                   stroke-linecap="butt"
                   stroke-linejoin="round"
                   stroke-miterlimit="1"
                   stroke-opacity="1"
                   fill-opacity="1" />
                <polyline
                   id="GRID.polyline.118.1.9"
                   points="57.4,137.98 58.58,141.65 59.77,146.95 60.96,151.09 62.15,154.57 63.33,158.59 64.52,163 65.71,167.03 66.9,171.48 68.08,176.51 69.27,179.29 70.46,182.5 71.65,185.94 72.83,188.15 74.02,190.08 75.21,191.82 76.39,193.72 77.58,197.09 78.77,199.41 79.96,201.26 81.14,202.81 82.33,204.78 83.52,206.56 84.71,208.38 85.89,209.97 87.08,212.02 88.27,214.03 89.46,215.89 90.64,218.09 91.83,219.99 93.02,222.31 94.2,224.36 95.39,226.83 96.58,228.65 97.77,230.24 98.95,231.4 100.14,232.48 101.33,233.45 102.52,234.42 103.7,235.42 104.89,236.54 106.08,237.63 107.27,238.44 108.45,239.48 109.64,240.41 110.83,241.65 112.01,242.58 113.2,243.66 114.39,245.02 115.58,245.91 116.76,246.99 117.95,247.84 119.14,248.73 120.33,249.81 121.51,250.74 122.7,251.59 123.89,252.64 125.08,253.84 126.26,254.88 127.45,255.5 128.64,256.47 129.82,257.28 131.01,258.17 132.2,259.33 133.39,260.26 134.57,261.23 135.76,262.15 136.95,263.12 138.14,264.28 139.32,265.13 140.51,265.98 141.7,266.8 142.89,267.92 144.07,269.62 145.26,270.36 146.45,271.01 147.63,271.75 148.82,272.56 150.01,273.49 151.2,274.65 152.38,275.62 153.57,276.35 154.76,277.24 155.95,278.91 157.13,279.99 158.32,281.11 159.51,282.04 160.7,283.08 161.88,284.09 163.07,285.21 164.26,286.45 165.44,287.8 166.63,289 167.82,290.32 169.01,291.67 170.19,293.37 171.38,294.65 172.57,295.31 173.76,296.43 174.94,297.44 176.13,298.52 177.32,299.83 178.51,301.73 179.69,302.89 180.88,304.82 182.07,306.22 183.25,308.38 184.44,309.23 185.63,310.2 186.82,311.94 188,312.48 189.19,313.26 190.38,313.57 191.57,315.66 192.75,316.66 193.94,318.02 195.13,319.06 196.32,320.84 197.5,323.28 198.69,325.21 199.88,328.07 201.06,332.29 202.25,334.73 203.44,337.71 204.63,341.34 205.81,342.89 207,344.71 208.19,349.23 209.38,353.3 210.56,358.33 211.75,361.46 212.94,364.24 214.13,367.38 215.31,368.62 216.5,370.82 217.69,372.25 218.87,373.14 220.06,374.84 221.25,376.55 222.44,377.86 223.62,379.41 224.81,381.88 226,383.28 227.19,386.18 228.37,387.38 229.56,387.57 230.75,388.93 231.94,391.01 233.12,392.64 234.31,394.38 235.5,395.31 236.68,396.47 237.87,397.78 239.06,399.18 240.25,399.8 241.43,402.08 242.62,402.74 243.81,403.2 245,403.94 246.18,404.28 247.37,405.02 248.56,406.26 249.75,406.41 250.93,406.72 252.12,408.69 253.31,408.77 254.49,409.51 255.68,409.58 256.87,409.97 258.06,410.51 259.24,411.79 260.43,413.3 261.62,414.3 262.81,414.73 263.99,415.04 265.18,415.81 266.37,416.74 267.56,417.44 268.74,418.67 269.93,419.25 271.12,419.91 272.3,421 273.49,421 274.68,421.15 275.87,421.89 277.05,422.43 278.24,424.21 279.43,424.63 280.62,424.9 281.8,425.95 282.99,426.1 284.18,426.3 285.37,427.22 286.55,427.92 287.74,429.2 288.93,429.2 290.11,429.47 291.3,429.89 292.49,430.4 293.68,430.71 294.86,431.05 296.05,431.29 297.24,431.83 298.43,431.94 299.61,432.02 300.8,432.95 301.99,433.61 303.18,433.96 304.36,434.84 305.55,435.35 306.74,435.46 307.92,435.66 309.11,435.97 310.3,437.13 311.49,437.2 312.67,437.2 313.86,437.44 315.05,437.63 316.24,437.98 317.42,437.98 318.61,439.14 319.8,439.33 320.99,440.18 322.17,440.18 323.36,441.03 324.55,441.07 325.73,441.07 326.92,441.11 328.11,441.11 329.3,441.38 330.48,441.92 331.67,441.92 332.86,442.74 334.05,442.74 335.23,443.32 336.42,443.32 337.61,443.82 338.8,443.82 339.98,445.41 341.17,445.41 342.36,445.44 343.54,445.44 344.73,446.18 345.92,446.18 347.11,446.18 348.29,446.64 349.48,446.64 350.67,446.68 351.86,446.68 353.04,446.68 354.23,447.11 355.42,447.11 356.61,449.04 357.79,449.04 358.98,449.04 360.17,450.24 361.35,450.24 362.54,450.24 363.73,450.24 364.92,453.1 366.1,453.1 367.29,453.1 368.48,454.19 369.67,454.19 370.85,454.19 372.04,454.19 373.23,456.2 374.42,456.2 375.6,456.2 376.79,456.2 377.98,461.46"
                   stroke="rgb(231,107,243)"
                   fill="none"
                   stroke-width="3.2"
                   stroke-dasharray="none"
                   stroke-linecap="butt"
                   stroke-linejoin="round"
                   stroke-miterlimit="1"
                   stroke-opacity="1"
                   fill-opacity="1" />
                <polyline
                   id="GRID.polyline.118.1.10"
                   points="57.4,83.66 58.58,83.85 59.77,84.09 60.96,84.32 62.15,84.55 63.33,84.82 64.52,85.05 65.71,85.32 66.9,85.67 68.08,86.06 69.27,86.41 70.46,86.79 71.65,87.14 72.83,87.49 74.02,87.92 75.21,88.23 76.39,88.57 77.58,88.92 78.77,89.23 79.96,89.62 81.14,89.93 82.33,90.16 83.52,90.51 84.71,90.86 85.89,91.13 87.08,91.32 88.27,91.59 89.46,91.79 90.64,91.98 91.83,92.21 93.02,92.37 94.2,92.6 95.39,92.79 96.58,93.06 97.77,93.26 98.95,93.53 100.14,93.8 101.33,94.22 102.52,94.53 103.7,94.92 104.89,95.27 106.08,95.61 107.27,96 108.45,96.31 109.64,96.62 110.83,96.93 112.01,97.2 113.2,97.43 114.39,97.7 115.58,97.97 116.76,98.21 117.95,98.44 119.14,98.71 120.33,98.86 121.51,98.98 122.7,99.1 123.89,99.33 125.08,99.48 126.26,99.64 127.45,99.79 128.64,99.91 129.82,100.02 131.01,100.14 132.2,100.26 133.39,100.33 134.57,100.41 135.76,100.53 136.95,100.68 138.14,100.8 139.32,100.88 140.51,100.91 141.7,100.99 142.89,101.07 144.07,101.19 145.26,101.26 146.45,101.34 147.63,101.42 148.82,101.5 150.01,101.57 151.2,101.69 152.38,101.77 153.57,101.88 154.76,101.96 155.95,102.04 157.13,102.11 158.32,102.19 159.51,102.27 160.7,102.35 161.88,102.46 163.07,102.54 164.26,102.66 165.44,102.73 166.63,102.81 167.82,102.93 169.01,102.97 170.19,103.04 171.38,103.12 172.57,103.16 173.76,103.27 174.94,103.35 176.13,103.43 177.32,103.51 178.51,103.62 179.69,103.74 180.88,103.85 182.07,104.01 183.25,104.09 184.44,104.16 185.63,104.28 186.82,104.36 188,104.51 189.19,104.63 190.38,104.74 191.57,104.78 192.75,104.9 193.94,105.05 195.13,105.13 196.32,105.32 197.5,105.4 198.69,105.52 199.88,105.56 201.06,105.71 202.25,105.91 203.44,106.06 204.63,106.21 205.81,106.33 207,106.52 208.19,106.76 209.38,106.83 210.56,106.91 211.75,107.1 212.94,107.18 214.13,107.3 215.31,107.45 216.5,107.57 217.69,107.61 218.87,107.68 220.06,107.8 221.25,107.88 222.44,107.96 223.62,108.11 224.81,108.23 226,108.42 227.19,108.73 228.37,108.81 229.56,108.96 230.75,109.12 231.94,109.19 233.12,109.35 234.31,109.46 235.5,109.66 236.68,109.89 237.87,110.08 239.06,110.28 240.25,110.39 241.43,110.7 242.62,110.78 243.81,110.82 245,110.97 246.18,110.97 247.37,111.17 248.56,111.24 249.75,111.67 250.93,111.71 252.12,111.94 253.31,112.06 254.49,112.25 255.68,112.75 256.87,112.79 258.06,112.98 259.24,113.45 260.43,114.07 261.62,114.22 262.81,114.8 263.99,115 265.18,115.38 266.37,115.85 267.56,115.92 268.74,116.35 269.93,116.62 271.12,116.85 272.3,117.05 273.49,117.16 274.68,117.16 275.87,117.47 277.05,117.82 278.24,118.28 279.43,118.75 280.62,118.83 281.8,118.98 282.99,119.1 284.18,119.17 285.37,119.95 286.55,120.14 287.74,121.5 288.93,123.24 290.11,124.9 291.3,125.87 292.49,126.25 293.68,126.33 294.86,126.87 296.05,127.1 297.24,127.14 298.43,127.45 299.61,127.53 300.8,127.76 301.99,127.84 303.18,128.11 304.36,128.81 305.55,129.35 306.74,129.85 307.92,130.51 309.11,132.25 310.3,134.76 311.49,134.92 312.67,134.92 313.86,135.92 315.05,136.2 316.24,136.27 317.42,136.27 318.61,136.78 319.8,137.94 320.99,138.13 322.17,138.13 323.36,138.21 324.55,138.44 325.73,138.44 326.92,138.48 328.11,138.48 329.3,138.75 330.48,139.1 331.67,139.1 332.86,139.45 334.05,139.45 335.23,140.03 336.42,140.03 337.61,140.3 338.8,140.3 339.98,140.49 341.17,140.49 342.36,140.8 343.54,140.8 344.73,141.69 345.92,141.69 347.11,141.69 348.29,141.69 349.48,141.69 350.67,142.42 351.86,142.42 353.04,142.42 354.23,143.47 355.42,143.47 356.61,143.89 357.79,143.89 358.98,143.89 360.17,144.09 361.35,144.09 362.54,144.09 363.73,144.09 364.92,144.13 366.1,144.13 367.29,144.13 368.48,145.52 369.67,145.52 370.85,145.52 372.04,145.52 373.23,146.29 374.42,146.29 375.6,146.29 376.79,146.29 377.98,147.26"
                   stroke="rgb(255,98,188)"
                   fill="none"
                   stroke-width="3.2"
                   stroke-dasharray="none"
                   stroke-linecap="butt"
                   stroke-linejoin="round"
                   stroke-miterlimit="1"
                   stroke-opacity="1"
                   fill-opacity="1" />
              </g>
            </g>
          </g>
          <g
             id="layout::spacer.7-5-7-5.1" />
          <g
             id="layout::spacer.7-3-7-3.1" />
          <g
             id="layout::spacer.5-5-5-5.1" />
          <g
             id="layout::spacer.5-3-5-3.1" />
          <g
             id="layout::axis-t.5-4-5-4.1" />
          <g
             id="layout::axis-l.6-3-6-3.1">
            <g
               id="layout::axis-l.6-3-6-3::GRID.VP.22.1">
              <g
                 id="axis-l.6-3-6-3.1">
                <g
                   id="layout::axis-l.6-3-6-3::GRID.VP.22::axis.1">
                  <g
                     id="axis.1">
                    <g
                       id="layout::axis-l.6-3-6-3::GRID.VP.22::axis::axis.1-1-1-1.1">
                      <g
                         id="layout::axis-l.6-3-6-3::GRID.VP.22::axis::axis.1-1-1-1::GRID.VP.20.1"
                         font-size="8.8"
                         stroke="rgb(77,77,77)"
                         font-family="Helvetica, Arial, FreeSans, Liberation Sans, Nimbus Sans L, sans-serif"
                         stroke-opacity="1"
                         font-weight="normal"
                         font-style="normal">
                        <g
                           id="layout::axis-l.6-3-6-3::GRID.VP.22::axis::axis.1-1-1-1::GRID.VP.20::GRID.VP.21.1">
                          <g
                             id="axis.1-1-1-1.1">
                            <g
                               id="GRID.text.145.1">
                              <g
                                 id="GRID.text.145.1.1"
                                 transform="translate(36.44, 32.36)"
                                 stroke-width="0.1">
                                <g
                                   id="GRID.text.145.1.1.scale"
                                   transform="scale(1, -1)">
                                <text
                                   x="0"
                                   y="0"
                                   id="GRID.text.145.1.1.text"
                                   text-anchor="end"
                                   font-size="8.8"
                                   stroke="rgb(77,77,77)"
                                   font-family="Helvetica, Arial, FreeSans, Liberation Sans, Nimbus Sans L, sans-serif"
                                   fill="rgb(77,77,77)"
                                   stroke-opacity="1"
                                   fill-opacity="1"
                                   font-weight="normal"
                                   font-style="normal">
                                <tspan
                                   id="GRID.text.145.1.1.tspan.1"
                                   dy="3.23"
                                   x="0">0</tspan>
                                </text>
                                </g>
                              </g>
                              <g
                                 id="GRID.text.145.1.2"
                                 transform="translate(36.44, 148.42)"
                                 stroke-width="0.1">
                                <g
                                   id="GRID.text.145.1.2.scale"
                                   transform="scale(1, -1)">
                                <text
                                   x="0"
                                   y="0"
                                   id="GRID.text.145.1.2.text"
                                   text-anchor="end"
                                   font-size="8.8"
                                   stroke="rgb(77,77,77)"
                                   font-family="Helvetica, Arial, FreeSans, Liberation Sans, Nimbus Sans L, sans-serif"
                                   fill="rgb(77,77,77)"
                                   stroke-opacity="1"
                                   fill-opacity="1"
                                   font-weight="normal"
                                   font-style="normal">
                                <tspan
                                   id="GRID.text.145.1.2.tspan.1"
                                   dy="3.23"
                                   x="0">30</tspan>
                                </text>
                                </g>
                              </g>
                              <g
                                 id="GRID.text.145.1.3"
                                 transform="translate(36.44, 264.48)"
                                 stroke-width="0.1">
                                <g
                                   id="GRID.text.145.1.3.scale"
                                   transform="scale(1, -1)">
                                <text
                                   x="0"
                                   y="0"
                                   id="GRID.text.145.1.3.text"
                                   text-anchor="end"
                                   font-size="8.8"
                                   stroke="rgb(77,77,77)"
                                   font-family="Helvetica, Arial, FreeSans, Liberation Sans, Nimbus Sans L, sans-serif"
                                   fill="rgb(77,77,77)"
                                   stroke-opacity="1"
                                   fill-opacity="1"
                                   font-weight="normal"
                                   font-style="normal">
                                <tspan
                                   id="GRID.text.145.1.3.tspan.1"
                                   dy="3.23"
                                   x="0">60</tspan>
                                </text>
                                </g>
                              </g>
                              <g
                                 id="GRID.text.145.1.4"
                                 transform="translate(36.44, 380.53)"
                                 stroke-width="0.1">
                                <g
                                   id="GRID.text.145.1.4.scale"
                                   transform="scale(1, -1)">
                                <text
                                   x="0"
                                   y="0"
                                   id="GRID.text.145.1.4.text"
                                   text-anchor="end"
                                   font-size="8.8"
                                   stroke="rgb(77,77,77)"
                                   font-family="Helvetica, Arial, FreeSans, Liberation Sans, Nimbus Sans L, sans-serif"
                                   fill="rgb(77,77,77)"
                                   stroke-opacity="1"
                                   fill-opacity="1"
                                   font-weight="normal"
                                   font-style="normal">
                                <tspan
                                   id="GRID.text.145.1.4.tspan.1"
                                   dy="3.23"
                                   x="0">90</tspan>
                                </text>
                                </g>
                              </g>
                              <g
                                 id="GRID.text.145.1.5"
                                 transform="translate(36.44, 496.59)"
                                 stroke-width="0.1">
                                <g
                                   id="GRID.text.145.1.5.scale"
                                   transform="scale(1, -1)">
                                <text
                                   x="0"
                                   y="0"
                                   id="GRID.text.145.1.5.text"
                                   text-anchor="end"
                                   font-size="8.8"
                                   stroke="rgb(77,77,77)"
                                   font-family="Helvetica, Arial, FreeSans, Liberation Sans, Nimbus Sans L, sans-serif"
                                   fill="rgb(77,77,77)"
                                   stroke-opacity="1"
                                   fill-opacity="1"
                                   font-weight="normal"
                                   font-style="normal">
                                <tspan
                                   id="GRID.text.145.1.5.tspan.1"
                                   dy="3.23"
                                   x="0">120</tspan>
                                </text>
                                </g>
                              </g>
                            </g>
                          </g>
                        </g>
                      </g>
                    </g>
                    <g
                       id="layout::axis-l.6-3-6-3::GRID.VP.22::axis::axis.1-2-1-2.1" />
                  </g>
                </g>
              </g>
            </g>
          </g>
          <g
             id="layout::axis-r.6-5-6-5.1" />
          <g
             id="layout::axis-b.7-4-7-4.1">
            <g
               id="layout::axis-b.7-4-7-4::GRID.VP.19.1">
              <g
                 id="axis-b.7-4-7-4.1">
                <g
                   id="layout::axis-b.7-4-7-4::GRID.VP.19::axis.1">
                  <g
                     id="axis.2">
                    <g
                       id="layout::axis-b.7-4-7-4::GRID.VP.19::axis::axis.1-1-1-1.1" />
                    <g
                       id="layout::axis-b.7-4-7-4::GRID.VP.19::axis::axis.2-1-2-1.1">
                      <g
                         id="layout::axis-b.7-4-7-4::GRID.VP.19::axis::axis.2-1-2-1::GRID.VP.17.1"
                         font-size="8.8"
                         stroke="rgb(77,77,77)"
                         font-family="Helvetica, Arial, FreeSans, Liberation Sans, Nimbus Sans L, sans-serif"
                         stroke-opacity="1"
                         font-weight="normal"
                         font-style="normal">
                        <g
                           id="layout::axis-b.7-4-7-4::GRID.VP.19::axis::axis.2-1-2-1::GRID.VP.17::GRID.VP.18.1">
                          <g
                             id="axis.2-1-2-1.1">
                            <g
                               id="GRID.text.139.1">
                              <g
                                 id="GRID.text.139.1.1"
                                 transform="translate(57.4, 25.5)"
                                 stroke-width="0.1">
                                <g
                                   id="GRID.text.139.1.1.scale"
                                   transform="scale(1, -1)">
                                <text
                                   x="0"
                                   y="0"
                                   id="GRID.text.139.1.1.text"
                                   text-anchor="middle"
                                   font-size="8.8"
                                   stroke="rgb(77,77,77)"
                                   font-family="Helvetica, Arial, FreeSans, Liberation Sans, Nimbus Sans L, sans-serif"
                                   fill="rgb(77,77,77)"
                                   stroke-opacity="1"
                                   fill-opacity="1"
                                   font-weight="normal"
                                   font-style="normal">
                                <tspan
                                   id="GRID.text.139.1.1.tspan.1"
                                   dy="6.46"
                                   x="0">50</tspan>
                                </text>
                                </g>
                              </g>
                              <g
                                 id="GRID.text.139.1.2"
                                 transform="translate(140.51, 25.5)"
                                 stroke-width="0.1">
                                <g
                                   id="GRID.text.139.1.2.scale"
                                   transform="scale(1, -1)">
                                <text
                                   x="0"
                                   y="0"
                                   id="GRID.text.139.1.2.text"
                                   text-anchor="middle"
                                   font-size="8.8"
                                   stroke="rgb(77,77,77)"
                                   font-family="Helvetica, Arial, FreeSans, Liberation Sans, Nimbus Sans L, sans-serif"
                                   fill="rgb(77,77,77)"
                                   stroke-opacity="1"
                                   fill-opacity="1"
                                   font-weight="normal"
                                   font-style="normal">
                                <tspan
                                   id="GRID.text.139.1.2.tspan.1"
                                   dy="6.46"
                                   x="0">90</tspan>
                                </text>
                                </g>
                              </g>
                              <g
                                 id="GRID.text.139.1.3"
                                 transform="translate(259.24, 25.5)"
                                 stroke-width="0.1">
                                <g
                                   id="GRID.text.139.1.3.scale"
                                   transform="scale(1, -1)">
                                <text
                                   x="0"
                                   y="0"
                                   id="GRID.text.139.1.3.text"
                                   text-anchor="middle"
                                   font-size="8.8"
                                   stroke="rgb(77,77,77)"
                                   font-family="Helvetica, Arial, FreeSans, Liberation Sans, Nimbus Sans L, sans-serif"
                                   fill="rgb(77,77,77)"
                                   stroke-opacity="1"
                                   fill-opacity="1"
                                   font-weight="normal"
                                   font-style="normal">
                                <tspan
                                   id="GRID.text.139.1.3.tspan.1"
                                   dy="6.46"
                                   x="0">99</tspan>
                                </text>
                                </g>
                              </g>
                              <g
                                 id="GRID.text.139.1.4"
                                 transform="translate(377.98, 25.5)"
                                 stroke-width="0.1">
                                <g
                                   id="GRID.text.139.1.4.scale"
                                   transform="scale(1, -1)">
                                <text
                                   x="0"
                                   y="0"
                                   id="GRID.text.139.1.4.text"
                                   text-anchor="middle"
                                   font-size="8.8"
                                   stroke="rgb(77,77,77)"
                                   font-family="Helvetica, Arial, FreeSans, Liberation Sans, Nimbus Sans L, sans-serif"
                                   fill="rgb(77,77,77)"
                                   stroke-opacity="1"
                                   fill-opacity="1"
                                   font-weight="normal"
                                   font-style="normal">
                                <tspan
                                   id="GRID.text.139.1.4.tspan.1"
                                   dy="6.46"
                                   x="0">99.9</tspan>
                                </text>
                                </g>
                              </g>
                            </g>
                          </g>
                        </g>
                      </g>
                    </g>
                  </g>
                </g>
              </g>
            </g>
          </g>
          <g
             id="layout::xlab-t.4-4-4-4.1" />
          <g
             id="layout::xlab-b.8-4-8-4.1">
            <g
               id="layout::xlab-b.8-4-8-4::GRID.VP.13.1"
               font-size="11"
               stroke="rgb(0,0,0)"
               font-family="Helvetica, Arial, FreeSans, Liberation Sans, Nimbus Sans L, sans-serif"
               stroke-opacity="1"
               font-weight="normal"
               font-style="normal">
              <g
                 id="layout::xlab-b.8-4-8-4::GRID.VP.13::GRID.VP.14.1">
                <g
                   id="xlab-b.8-4-8-4.1">
                  <g
                     id="GRID.text.133.1">
                    <g
                       id="GRID.text.133.1.1"
                       transform="translate(217.69, 13.56)"
                       stroke-width="0.1">
                      <g
                         id="GRID.text.133.1.1.scale"
                         transform="scale(1, -1)">
                        <text
                           x="0"
                           y="0"
                           id="GRID.text.133.1.1.text"
                           text-anchor="middle"
                           font-size="11"
                           stroke="rgb(0,0,0)"
                           font-family="Helvetica, Arial, FreeSans, Liberation Sans, Nimbus Sans L, sans-serif"
                           fill="rgb(0,0,0)"
                           stroke-opacity="1"
                           fill-opacity="1"
                           font-weight="normal"
                           font-style="normal">
                          <tspan
                             id="GRID.text.133.1.1.tspan.1"
                             dy="7.9"
                             x="0">Percentile</tspan>
                        </text>
                      </g>
                    </g>
                  </g>
                </g>
              </g>
            </g>
          </g>
          <g
             id="layout::ylab-l.6-2-6-2.1">
            <g
               id="layout::ylab-l.6-2-6-2::GRID.VP.15.1"
               font-size="11"
               stroke="rgb(0,0,0)"
               font-family="Helvetica, Arial, FreeSans, Liberation Sans, Nimbus Sans L, sans-serif"
               stroke-opacity="1"
               font-weight="normal"
               font-style="normal">
              <g
                 id="layout::ylab-l.6-2-6-2::GRID.VP.15::GRID.VP.16.1">
                <g
                   id="ylab-l.6-2-6-2.1">
                  <g
                     id="GRID.text.136.1">
                    <g
                       id="GRID.text.136.1.1"
                       transform="translate(5.48, 264.48)"
                       stroke-width="0.1">
                      <g
                         id="GRID.text.136.1.1.scale"
                         transform="scale(1, -1)">
                        <text
                           x="0"
                           y="0"
                           id="GRID.text.136.1.1.text"
                           transform="rotate(-90)"
                           text-anchor="middle"
                           font-size="11"
                           stroke="rgb(0,0,0)"
                           font-family="Helvetica, Arial, FreeSans, Liberation Sans, Nimbus Sans L, sans-serif"
                           fill="rgb(0,0,0)"
                           stroke-opacity="1"
                           fill-opacity="1"
                           font-weight="normal"
                           font-style="normal">
                          <tspan
                             id="GRID.text.136.1.1.tspan.1"
                             dy="7.9"
                             x="0">Latency (ms)</tspan>
                        </text>
                      </g>
                    </g>
                  </g>
                </g>
              </g>
            </g>
          </g>
          <text
             xml:space="preserve"
             style="font-style:normal;font-weight:normal;font-size:12.5px;line-height:125%;font-family:sans-serif;letter-spacing:0px;word-spacing:0px;fill:#e76bf3;fill-opacity:1;stroke:none;stroke-width:1px;stroke-linecap:butt;stroke-linejoin:miter;stroke-opacity:1;-inkscape-font-specification:'sans-serif, Normal';font-stretch:normal;font-variant:normal;text-anchor:start;text-align:start;writing-mode:lr;"
             x="384.94189"
             y="-456"
             id="text3908"
             sodipodi:linespacing="125%"
             transform="scale(1,-1)"><tspan
               sodipodi:role="line"
               id="tspan3971">st</tspan></text>
          <text
             xml:space="preserve"
             style="font-style:normal;font-variant:normal;font-weight:normal;font-stretch:normal;font-size:12.5px;line-height:125%;font-family:sans-serif;-inkscape-font-specification:'sans-serif, Normal';text-align:start;letter-spacing:0px;word-spacing:0px;writing-mode:lr-tb;text-anchor:start;fill:#00bf7d;fill-opacity:1;stroke:none;stroke-width:1px;stroke-linecap:butt;stroke-linejoin:miter;stroke-opacity:1"
             x="385.69815"
             y="-263.18225"
             id="text3916"
             sodipodi:linespacing="125%"
             transform="scale(1,-1)"><tspan
               sodipodi:role="line"
               id="tspan3918"
               x="385.69815"
               y="-340">iterm2</tspan></text>
          <text
             xml:space="preserve"
             style="font-style:normal;font-variant:normal;font-weight:normal;font-stretch:normal;font-size:12.5px;line-height:125%;font-family:sans-serif;-inkscape-font-specification:'sans-serif, Normal';text-align:start;letter-spacing:0px;word-spacing:0px;writing-mode:lr-tb;text-anchor:start;fill:#00bfc4;fill-opacity:1;stroke:none;stroke-width:1px;stroke-linecap:butt;stroke-linejoin:miter;stroke-opacity:1"
             id="text3924"
             sodipodi:linespacing="125%"
             transform="scale(1,-1)"><tspan
               sodipodi:role="line"
               id="tspan3926"
               x="385"
               y="-260">linux-alacritty</tspan></text>
          <text
             xml:space="preserve"
             style="font-style:normal;font-variant:normal;font-weight:normal;font-stretch:normal;font-size:12.5px;line-height:125%;font-family:sans-serif;-inkscape-font-specification:'sans-serif, Normal';text-align:start;letter-spacing:0px;word-spacing:0px;writing-mode:lr-tb;text-anchor:start;fill:#39b600;fill-opacity:1;stroke:none;stroke-width:1px;stroke-linecap:butt;stroke-linejoin:miter;stroke-opacity:1"
             x="384.94189"
             y="-218.56229"
             id="text3920"
             sodipodi:linespacing="125%"
             transform="scale(1,-1)"><tspan
               sodipodi:role="line"
               id="tspan3922"
               x="385"
               y="-232">hyper</tspan></text>
          <text
             xml:space="preserve"
             style="font-style:normal;font-variant:normal;font-weight:normal;font-stretch:normal;font-size:12.5px;line-height:125%;font-family:sans-serif;-inkscape-font-specification:'sans-serif, Normal';text-align:start;letter-spacing:0px;word-spacing:0px;writing-mode:lr-tb;text-anchor:start;fill:#f8766d;fill-opacity:1;stroke:none;stroke-width:1px;stroke-linecap:butt;stroke-linejoin:miter;stroke-opacity:1;"
             x="385.69815"
             y="-164.86703"
             id="text3928"
             sodipodi:linespacing="125%"
             transform="scale(1,-1)"><tspan
               sodipodi:role="line"
               id="tspan3930"
               x="385"
               y="-241">alacritty</tspan></text>
          <text
             xml:space="preserve"
             style="font-style:normal;font-variant:normal;font-weight:normal;font-stretch:normal;font-size:12.5px;line-height:125%;font-family:sans-serif;-inkscape-font-specification:'sans-serif, Normal';text-align:start;letter-spacing:0px;word-spacing:0px;writing-mode:lr-tb;text-anchor:start;fill:#00b0f6;fill-opacity:1;stroke:none;stroke-width:1px;stroke-linecap:butt;stroke-linejoin:miter;stroke-opacity:1"
             x="384.94189"
             y="-147.47281"
             id="text3932"
             sodipodi:linespacing="125%"
             transform="scale(1,-1)"><tspan
               sodipodi:role="line"
               id="tspan3934"
               x="385"
               y="-222">linux-lxterminal</tspan></text>
          <text
             xml:space="preserve"
             style="font-style:normal;font-variant:normal;font-weight:normal;font-stretch:normal;font-size:12.5px;line-height:125%;font-family:sans-serif;-inkscape-font-specification:'sans-serif, Normal';text-align:start;letter-spacing:0px;word-spacing:0px;writing-mode:lr-tb;text-anchor:start;fill:#a3a500;fill-opacity:1;stroke:none;stroke-width:1px;stroke-linecap:butt;stroke-linejoin:miter;stroke-opacity:1;"
             x="384.94189"
             y="-135.3725"
             id="text3955"
             sodipodi:linespacing="125%"
             transform="scale(1,-1)"><tspan
               sodipodi:role="line"
               id="tspan3957"
               x="385"
               y="-213">emacs-term</tspan></text>
          <text
             xml:space="preserve"
             style="font-style:normal;font-variant:normal;font-weight:normal;font-stretch:normal;font-size:12.5px;line-height:125%;font-family:sans-serif;-inkscape-font-specification:'sans-serif, Normal';text-align:start;letter-spacing:0px;word-spacing:0px;writing-mode:lr-tb;text-anchor:start;fill:#ff62bc;fill-opacity:1;stroke:none;stroke-width:1px;stroke-linecap:butt;stroke-linejoin:miter;stroke-opacity:1;"
             x="385.69815"
             y="-122.51587"
             id="text3959"
             sodipodi:linespacing="125%"
             transform="scale(1,-1)"><tspan
               sodipodi:role="line"
               id="tspan3961"
               x="385"
               y="-142">terminal.app</tspan></text>
          <text
             xml:space="preserve"
             style="font-style:normal;font-variant:normal;font-weight:normal;font-stretch:normal;font-size:12.5px;line-height:125%;font-family:sans-serif;-inkscape-font-specification:'sans-serif, Normal';text-align:start;letter-spacing:0px;word-spacing:0px;writing-mode:lr-tb;text-anchor:start;fill:#9590ff;fill-opacity:1;stroke:none;stroke-width:1px;stroke-linecap:butt;stroke-linejoin:miter;stroke-opacity:1"
             x="386.45441"
             y="-107.39047"
             id="text3963"
             sodipodi:linespacing="125%"
             transform="scale(1,-1)"><tspan
               sodipodi:role="line"
               id="tspan3965"
               x="385"
               y="-250">linux-st</tspan></text>
          <text
             xml:space="preserve"
             style="font-style:normal;font-variant:normal;font-weight:normal;font-stretch:normal;font-size:12.5px;line-height:125%;font-family:sans-serif;-inkscape-font-specification:'sans-serif, Normal';text-align:start;letter-spacing:0px;word-spacing:0px;writing-mode:lr-tb;text-anchor:start;fill:#d89000;fill-opacity:1;stroke:none;stroke-width:1px;stroke-linecap:butt;stroke-linejoin:miter;stroke-opacity:1;"
             x="385.69815"
             y="-93.021332"
             id="text3967"
             sodipodi:linespacing="125%"
             transform="scale(1,-1)"><tspan
               sodipodi:role="line"
               id="tspan3969"
               x="385"
               y="-151">emacs-eshell</tspan></text>
        </g>
      </g>
    </g>
  </g>
</svg>
